<svg width="32" height="32" fill="none" xmlns="http://www.w3.org/2000/svg"><g clip-path="url(#a)"><path d="m16 0 13.856 8v16L16 32 2.144 24V8L16 0Z" fill="#252525"/><path d="m15.47 18.35 1.88-2.027c1.845-1.989.058-6.763-3.733-4.9-.362.178-.677.454-.958.757l-3.942 4.248c-2.093 2.256.72 7.19 4.268 4.6" stroke="#fff" stroke-width="1.2" stroke-linecap="round"/><path d="m16.53 14.487-1.88 2.072c-1.845 2.032-.058 6.913 3.733 5.008.362-.182.677-.463.958-.773l3.942-4.343c2.093-2.306-.72-7.35-4.267-4.702" stroke="#fff" stroke-width="1.2" stroke-linecap="round"/></g><defs><clipPath id="a"><path fill="#fff" d="M0 0h32v32H0z"/></clipPath></defs></svg>