<svg width="28" height="28" viewBox="0 0 28 28" fill="none" xmlns="http://www.w3.org/2000/svg">
<circle cx="22" cy="19.5" r="1.5" stroke="#252525"/>
<circle cx="6" cy="19.5" r="1.5" stroke="#252525"/>
<path d="M4.5 19.5H1C0.723858 19.5 0.5 19.2761 0.5 19V19V14C0.5 9.58172 4.08172 6 8.5 6H10.5M20.5 11V11C20.5 8.23858 18.2614 6 15.5 6H10.5M1 11H10.5M23.5 19.5H27C27.2761 19.5 27.5 19.2761 27.5 19V19V14C27.5 12.3431 26.1569 11 24.5 11H10.5M7.5 19.5H10.5H11.5M20.5 19.5H17.5H16.5M10.5 6V11M13.5 19.5H14.5" stroke="#252525" stroke-linecap="round"/>
<path d="M11 19C11 16.7909 8.76142 15 6 15C3.23858 15 1 16.7909 1 19" stroke="#252525"/>
<path d="M27 19C27 16.7909 24.7614 15 22 15C19.2386 15 17 16.7909 17 19" stroke="#252525"/>
</svg>
