<svg width="28" height="28" viewBox="0 0 28 28" fill="none" xmlns="http://www.w3.org/2000/svg">
<path d="M11.2863 15.5105L12.5757 16.7999C12.771 16.9952 12.771 17.3118 12.5757 17.507L6.29496 23.7878C6.0997 23.9831 5.78312 23.9831 5.58785 23.7878L4.29842 22.4984C4.10316 22.3031 4.10316 21.9865 4.29842 21.7913L10.5792 15.5105C10.7745 15.3152 11.091 15.3152 11.2863 15.5105Z" stroke="#252525" stroke-linecap="round"/>
<path d="M22.6003 4.19684L23.8897 5.48627C24.085 5.68153 24.085 5.99811 23.8897 6.19337L17.6089 12.4741C17.4137 12.6694 17.0971 12.6694 16.9018 12.4741L15.6124 11.1847C15.4171 10.9895 15.4171 10.6729 15.6124 10.4776L21.8932 4.19684C22.0884 4.00157 22.405 4.00157 22.6003 4.19684Z" stroke="#252525" stroke-linecap="round"/>
<path d="M2.32309 15.8641L6.27456 19.8156L10.226 15.8641C10.6166 15.4736 11.2497 15.4736 11.6403 15.8641L12.2226 16.4464C12.6131 16.8369 12.6131 17.4701 12.2226 17.8606L8.2711 21.8121L12.2226 25.7636C12.6131 26.1541 13.2463 26.1541 13.6368 25.7636L25.8656 13.5348C26.2561 13.1443 26.2561 12.5111 25.8656 12.1206L21.9141 8.16912L23.5363 6.54693C23.9268 6.15641 23.9268 5.52324 23.5363 5.13272L22.954 4.55039C22.5634 4.15987 21.9303 4.15987 21.5398 4.55039L19.9176 6.17258L15.9661 2.2211C15.5756 1.83058 14.9424 1.83058 14.5519 2.2211L2.32309 14.4499C1.93256 14.8404 1.93256 15.4736 2.32309 15.8641Z" stroke="#252525" stroke-linecap="round"/>
<path d="M11.8891 20.7722L10.5997 19.4828L12.2218 17.8606C12.6124 17.4701 12.6124 16.8369 12.2218 16.4464L11.6395 15.8641C11.249 15.4735 10.6158 15.4735 10.2253 15.8641L8.60312 17.4862L7.31369 16.1968C6.92316 15.8063 6.92317 15.1731 7.31369 14.7826L14.8839 7.21239C15.2744 6.82187 15.9076 6.82187 16.2981 7.21239L17.5875 8.50182L15.9653 10.124C15.5748 10.5145 15.5748 11.1477 15.9653 11.5382L16.5477 12.1205C16.9382 12.5111 17.5714 12.5111 17.9619 12.1205L19.5841 10.4984L20.8735 11.7878C21.264 12.1783 21.264 12.8115 20.8735 13.202L13.3033 20.7722C12.9128 21.1627 12.2796 21.1627 11.8891 20.7722Z" stroke="#252525" stroke-linecap="round"/>
</svg>
