<svg width="28" height="28" viewBox="0 0 28 28" fill="none" xmlns="http://www.w3.org/2000/svg">
<ellipse cx="14.7365" cy="4.9455" rx="0.490909" ry="0.490909" fill="#252525"/>
<path d="M6.87284 22.1273C6.87284 23.4779 5.77798 24.5727 4.42739 24.5727C3.0768 24.5727 1.98193 23.4779 1.98193 22.1273C1.98193 20.7767 3.0768 19.6818 4.42739 19.6818C5.77798 19.6818 6.87284 20.7767 6.87284 22.1273Z" stroke="#252525"/>
<path d="M17.6731 22.1273C17.6731 23.4779 16.5783 24.5727 15.2277 24.5727C13.8771 24.5727 12.7822 23.4779 12.7822 22.1273C12.7822 20.7767 13.8771 19.6818 15.2277 19.6818C16.5783 19.6818 17.6731 20.7767 17.6731 22.1273Z" stroke="#252525"/>
<path d="M27.5 24.5818H22.6091C22.0568 24.5818 21.6091 24.1341 21.6091 23.5818V16.7273M21.6091 2V16.7273M21.6091 16.7273H18.6476M5.40909 3.47273V15.7273C5.40909 16.2796 5.85681 16.7273 6.40909 16.7273H8.84545M5.40909 3.47273H3.46364C2.91135 3.47273 2.46364 3.92044 2.46364 4.47273V15.7455C2.46364 16.2877 2.02406 16.7273 1.48182 16.7273V16.7273C0.939575 16.7273 0.5 17.1668 0.5 17.7091V20.6364C0.5 21.1886 0.947715 21.6364 1.5 21.6364H1.97273M5.40909 3.47273H11.3C11.7909 3.47273 12.2818 3.47273 12.7727 3.96364M8.84545 16.7273V11.3273M8.84545 16.7273H18.6476M6.88182 21.6364H12.7727M17.6818 21.6364H17.7014C18.2387 21.6364 18.6806 21.212 18.6912 20.6747C18.7137 19.5309 18.7063 18.1653 18.6476 16.7273M16.2091 5.92727C17.8476 7.56582 18.4734 12.4643 18.6476 16.7273M18.6476 16.7273L13.7545 11.8182M13.7545 11.8182L12.2818 13.2909M13.7545 11.8182L15.2273 10.3455" stroke="#252525" stroke-linecap="round"/>
</svg>
