<svg width="28" height="28" viewBox="0 0 28 28" fill="none" xmlns="http://www.w3.org/2000/svg">
<path d="M0.5 12.3126C4.42857 8.87506 15.2321 9.36609 13.2679 20.1697H20.6339" stroke="#252525" stroke-linecap="round"/>
<path d="M0.5 2.49103H2.70982M4.91964 2.49103H2.70982M2.70982 2.49103V10.8392M8.84821 2.49103H10.567M12.2857 2.49103H10.567M10.567 2.49103L13.7589 11.8214H10.8125H17.1964M17.1964 11.8214V9.87496C17.1964 9.32267 17.6441 8.87496 18.1964 8.87496H18.9152M17.1964 11.8214C17.1964 13.2946 18.1786 13.7857 19.1607 13.7857C20.6339 13.7857 20.6339 12.8035 20.6339 11.8214M18.9152 8.87496H19.6339C20.1862 8.87496 20.6339 9.32267 20.6339 9.87496V11.8214M18.9152 8.87496V3.96424C18.9152 3.72813 18.7679 2.49103 17.1964 2.49103M20.6339 11.8214H23.0714C23.6237 11.8214 24.0714 12.2691 24.0714 12.8214V16.7321" stroke="#252525" stroke-linecap="round"/>
<path d="M27.4997 20.6607C27.4997 22.5543 25.9647 24.0893 24.0711 24.0893C22.1776 24.0893 20.6426 22.5543 20.6426 20.6607C20.6426 18.7672 22.1776 17.2322 24.0711 17.2322C25.9647 17.2322 27.4997 18.7672 27.4997 20.6607Z" stroke="#252525"/>
<path d="M10.8036 19.1875C10.8036 21.8947 8.60897 24.0893 5.90179 24.0893C3.1946 24.0893 1 21.8947 1 19.1875C1 16.4803 3.1946 14.2857 5.90179 14.2857C8.60897 14.2857 10.8036 16.4803 10.8036 19.1875Z" stroke="#252525"/>
<circle cx="5.90213" cy="19.1875" r="1.95536" stroke="#252525"/>
<ellipse cx="24.0715" cy="20.6607" rx="0.982143" ry="0.982143" fill="#252525"/>
<ellipse cx="6.88365" cy="2.49107" rx="0.491071" ry="0.491071" fill="#252525"/>
</svg>
