<svg width="28" height="28" viewBox="0 0 28 28" fill="none" xmlns="http://www.w3.org/2000/svg">
<circle cx="5" cy="21" r="1.5" stroke="#252525"/>
<circle cx="8" cy="21" r="1.5" stroke="#252525"/>
<circle cx="22" cy="21" r="1.5" stroke="#252525"/>
<path d="M3.5 21.5H1.5C0.947715 21.5 0.5 21.0523 0.5 20.5V16.5M5 5H1.5C0.947715 5 0.5 5.44772 0.5 6V16.5M9 5H13.25M17.5 5H13.25M13.25 5V16M0.5 16.5H17M9.5 21.5H17M20.5 21.5H17M17 21.5V9.5C17 8.94772 17.4477 8.5 18 8.5H20.5M23.5 21.5H26.5C27.0523 21.5 27.5 21.0523 27.5 20.5V15M20.5 8.5H24.5C26.1569 8.5 27.5 9.84315 27.5 11.5V15M20.5 8.5V14C20.5 14.5523 20.9477 15 21.5 15H24M27.5 15H24M24 15V13M4 8V13.5M7 8V13.5M10 8V13.5M6.5 5H7.5" stroke="#252525" stroke-linecap="round"/>
</svg>
