<svg width="1260" height="62" viewBox="0 0 1260 62" fill="none" xmlns="http://www.w3.org/2000/svg">
<path d="M1201.45 1.3916H1209.22V25.1863H1226.64C1232.42 25.1863 1236.83 26.6854 1239.88 29.6836C1242.99 32.6272 1244.55 36.9065 1244.55 42.5213C1244.55 48.0815 1242.99 52.3608 1239.88 55.3589C1236.83 58.3026 1232.42 59.7745 1226.64 59.7745H1201.45V1.3916ZM1224.02 53.233C1232.53 53.233 1236.78 49.6624 1236.78 42.5213C1236.78 35.2711 1232.53 31.646 1224.02 31.646H1209.22V53.233H1224.02ZM1252.23 1.3916H1260V59.7745H1252.23V1.3916Z" fill="#252525"/>
<path d="M1166.56 61.0812C1162.04 61.0812 1158.09 60.318 1154.71 58.7917C1151.33 57.2108 1148.52 55.0576 1146.29 52.332C1144.05 49.6063 1142.36 46.3901 1141.22 42.6833C1140.13 38.9764 1139.58 34.997 1139.58 30.745C1139.58 26.4931 1140.18 22.5136 1141.38 18.8068C1142.58 15.0454 1144.32 11.7747 1146.61 8.99455C1148.96 6.21442 1151.85 4.03392 1155.28 2.45306C1158.71 0.817686 1162.69 0 1167.22 0C1170.27 0 1173.16 0.408843 1175.89 1.22653C1178.61 2.04422 1181.04 3.24349 1183.16 4.82435C1185.29 6.40521 1187.06 8.39492 1188.48 10.7935C1189.9 13.1375 1190.82 15.8631 1191.26 18.9703H1183.49C1182.62 14.8274 1180.68 11.7202 1177.69 9.6487C1174.74 7.57723 1171.23 6.54149 1167.14 6.54149C1163.65 6.54149 1160.65 7.19564 1158.14 8.50394C1155.69 9.81224 1153.65 11.5839 1152.01 13.8189C1150.43 15.9994 1149.26 18.507 1148.49 21.3416C1147.73 24.1763 1147.35 27.1199 1147.35 30.1726C1147.35 33.4979 1147.73 36.6596 1148.49 39.6578C1149.26 42.6015 1150.43 45.1908 1152.01 47.4258C1153.65 49.6063 1155.72 51.3507 1158.22 52.659C1160.73 53.9673 1163.73 54.6215 1167.22 54.6215C1169.73 54.6215 1171.99 54.2127 1174.01 53.395C1176.02 52.5228 1177.74 51.3507 1179.16 49.8789C1180.63 48.3526 1181.77 46.5536 1182.59 44.4822C1183.41 42.4107 1183.9 40.1757 1184.06 37.7771H1191.83C1191.07 45.1908 1188.53 50.9419 1184.23 55.0303C1179.97 59.0643 1174.09 61.0812 1166.56 61.0812Z" fill="#252525"/>
<path d="M1105.01 61.0812C1100.38 61.0812 1096.32 60.2635 1092.83 58.6282C1089.34 56.9383 1086.42 54.676 1084.08 51.8414C1081.74 49.0067 1079.96 45.7632 1078.76 42.1109C1077.62 38.4585 1077.05 34.6154 1077.05 30.5815C1077.05 26.6021 1077.62 22.7862 1078.76 19.1339C1079.96 15.427 1081.74 12.1563 1084.08 9.32163C1086.42 6.48698 1089.34 4.22471 1092.83 2.53483C1096.32 0.844942 1100.38 0 1105.01 0C1109.65 0 1113.71 0.844942 1117.2 2.53483C1120.68 4.22471 1123.6 6.48698 1125.94 9.32163C1128.29 12.1563 1130.03 15.427 1131.18 19.1339C1132.38 22.7862 1132.98 26.6021 1132.98 30.5815C1132.98 34.6154 1132.38 38.4585 1131.18 42.1109C1130.03 45.7632 1128.29 49.0067 1125.94 51.8414C1123.6 54.676 1120.68 56.9383 1117.2 58.6282C1113.71 60.2635 1109.65 61.0812 1105.01 61.0812ZM1105.01 54.6215C1108.56 54.6215 1111.61 53.9401 1114.17 52.5773C1116.73 51.1599 1118.83 49.3065 1120.47 47.017C1122.1 44.7275 1123.3 42.1654 1124.06 39.3307C1124.83 36.4416 1125.21 33.5252 1125.21 30.5815C1125.21 27.6378 1124.83 24.7487 1124.06 21.914C1123.3 19.0248 1122.1 16.4355 1120.47 14.146C1118.83 11.8565 1116.73 10.0303 1114.17 8.66748C1111.61 7.25016 1108.56 6.54149 1105.01 6.54149C1101.47 6.54149 1098.42 7.25016 1095.85 8.66748C1093.29 10.0303 1091.19 11.8565 1089.56 14.146C1087.92 16.4355 1086.72 19.0248 1085.96 21.914C1085.2 24.7487 1084.81 27.6378 1084.81 30.5815C1084.81 33.5252 1085.2 36.4416 1085.96 39.3307C1086.72 42.1654 1087.92 44.7275 1089.56 47.017C1091.19 49.3065 1093.29 51.1599 1095.85 52.5773C1098.42 53.9401 1101.47 54.6215 1105.01 54.6215Z" fill="#252525"/>
<path d="M1027.3 1.3916H1052.89C1058.83 1.3916 1063.3 2.91795 1066.3 5.97065C1069.3 8.96883 1070.8 13.1936 1070.8 18.6448C1070.8 24.096 1069.3 28.348 1066.3 31.4007C1063.3 34.3989 1058.83 35.898 1052.89 35.898H1035.06V59.7745H1027.3V1.3916ZM1050.27 29.3565C1054.69 29.3565 1057.9 28.457 1059.92 26.6581C1061.99 24.8047 1063.03 22.1336 1063.03 18.6448C1063.03 15.156 1061.99 12.5121 1059.92 10.7132C1057.9 8.85981 1054.69 7.9331 1050.27 7.9331H1035.06V29.3565H1050.27Z" fill="#252525"/>
<path d="M969.084 1.3916H1014.55V59.7745H1006.78V7.9331H976.852V59.7745H969.084V1.3916Z" fill="#252525"/>
<path d="M931.653 61.0812C927.02 61.0812 922.959 60.2635 919.47 58.6282C915.981 56.9383 913.065 54.676 910.721 51.8414C908.377 49.0067 906.605 45.7632 905.406 42.1109C904.261 38.4585 903.688 34.6154 903.688 30.5815C903.688 26.6021 904.261 22.7862 905.406 19.1339C906.605 15.427 908.377 12.1563 910.721 9.32163C913.065 6.48698 915.981 4.22471 919.47 2.53483C922.959 0.844942 927.02 0 931.653 0C936.287 0 940.348 0.844942 943.837 2.53483C947.326 4.22471 950.242 6.48698 952.586 9.32163C954.93 12.1563 956.675 15.427 957.819 19.1339C959.019 22.7862 959.618 26.6021 959.618 30.5815C959.618 34.6154 959.019 38.4585 957.819 42.1109C956.675 45.7632 954.93 49.0067 952.586 51.8414C950.242 54.676 947.326 56.9383 943.837 58.6282C940.348 60.2635 936.287 61.0812 931.653 61.0812ZM931.653 54.6215C935.197 54.6215 938.249 53.9401 940.812 52.5773C943.374 51.1599 945.472 49.3065 947.108 47.017C948.743 44.7275 949.942 42.1654 950.706 39.3307C951.469 36.4416 951.85 33.5252 951.85 30.5815C951.85 27.6378 951.469 24.7487 950.706 21.914C949.942 19.0248 948.743 16.4355 947.108 14.146C945.472 11.8565 943.374 10.0303 940.812 8.66748C938.249 7.25016 935.197 6.54149 931.653 6.54149C928.11 6.54149 925.057 7.25016 922.495 8.66748C919.933 10.0303 917.835 11.8565 916.199 14.146C914.564 16.4355 913.365 19.0248 912.601 21.914C911.838 24.7487 911.456 27.6378 911.456 30.5815C911.456 33.5252 911.838 36.4416 912.601 39.3307C913.365 42.1654 914.564 44.7275 916.199 47.017C917.835 49.3065 919.933 51.1599 922.495 52.5773C925.057 53.9401 928.11 54.6215 931.653 54.6215Z" fill="#252525"/>
<path d="M850.981 1.3916H872.16C873.413 1.3916 874.749 1.41886 876.166 1.47337C877.638 1.47337 879.083 1.55514 880.5 1.71868C881.917 1.8277 883.253 2.0185 884.507 2.29106C885.76 2.56362 886.796 2.97247 887.614 3.51759C889.522 4.66235 891.13 6.24321 892.438 8.26017C893.801 10.2771 894.482 12.7575 894.482 15.7011C894.482 18.8083 893.719 21.5067 892.193 23.7962C890.721 26.0312 888.595 27.6939 885.815 28.7841V28.9477C889.413 29.7108 892.166 31.3462 894.074 33.8538C895.981 36.3614 896.936 39.4141 896.936 43.0119C896.936 45.1379 896.554 47.2093 895.791 49.2263C895.027 51.2433 893.883 53.0422 892.356 54.623C890.885 56.1494 889.031 57.4032 886.796 58.3844C884.616 59.3111 882.081 59.7745 879.192 59.7745H850.981V1.3916ZM878.21 53.233C881.645 53.233 884.316 52.3063 886.224 50.4528C888.186 48.5994 889.167 46.0373 889.167 42.7666C889.167 40.8586 888.813 39.2778 888.104 38.024C887.396 36.7702 886.442 35.789 885.243 35.0803C884.098 34.3171 882.762 33.7993 881.236 33.5267C879.71 33.1996 878.129 33.0361 876.493 33.0361H858.749V53.233H878.21ZM874.286 26.4946C878.701 26.4946 881.863 25.7314 883.771 24.2051C885.733 22.6242 886.714 20.2802 886.714 17.173C886.714 15.156 886.387 13.5479 885.733 12.3486C885.079 11.0948 884.18 10.1409 883.035 9.48671C881.89 8.83255 880.554 8.42371 879.028 8.26017C877.556 8.04212 875.975 7.9331 874.286 7.9331H858.749V26.4946H874.286Z" fill="#252525"/>
<path d="M778.237 1.3916H818.549V7.9331H786.005V26.4946H816.342V33.0361H786.005V53.233H818.795V59.7745H778.237V1.3916Z" fill="#252525"/>
<path d="M706.929 1.3916H714.697V25.1863H732.114C737.892 25.1863 742.307 26.6854 745.36 29.6836C748.467 32.6272 750.021 36.9065 750.021 42.5213C750.021 48.0815 748.467 52.3608 745.36 55.3589C742.307 58.3026 737.892 59.7745 732.114 59.7745H706.929V1.3916ZM729.497 53.233C738.001 53.233 742.253 49.6624 742.253 42.5213C742.253 35.2711 738.001 31.646 729.497 31.646H714.697V53.233H729.497ZM757.707 1.3916H765.475V59.7745H757.707V1.3916Z" fill="#252525"/>
<path d="M673.222 7.9331H653.761V1.3916H700.451V7.9331H680.99V59.7745H673.222V7.9331Z" fill="#252525"/>
<path d="M625.087 61.0812C620.563 61.0812 616.611 60.318 613.231 58.7917C609.851 57.2108 607.044 55.0576 604.809 52.332C602.574 49.6063 600.884 46.3901 599.739 42.6833C598.649 38.9764 598.104 34.997 598.104 30.745C598.104 26.4931 598.703 22.5136 599.902 18.8068C601.102 15.0454 602.846 11.7747 605.136 8.99455C607.48 6.21442 610.369 4.03392 613.803 2.45306C617.237 0.817686 621.217 0 625.741 0C628.794 0 631.683 0.408843 634.409 1.22653C637.134 2.04422 639.56 3.24349 641.686 4.82435C643.812 6.40521 645.584 8.39492 647.001 10.7935C648.419 13.1375 649.345 15.8631 649.781 18.9703H642.013C641.141 14.8274 639.206 11.7202 636.208 9.6487C633.264 7.57723 629.748 6.54149 625.66 6.54149C622.171 6.54149 619.173 7.19564 616.665 8.50394C614.212 9.81224 612.168 11.5839 610.532 13.8189C608.951 15.9994 607.779 18.507 607.016 21.3416C606.253 24.1763 605.872 27.1199 605.872 30.1726C605.872 33.4979 606.253 36.6596 607.016 39.6578C607.779 42.6015 608.951 45.1908 610.532 47.4258C612.168 49.6063 614.239 51.3507 616.747 52.659C619.254 53.9673 622.253 54.6215 625.741 54.6215C628.249 54.6215 630.511 54.2127 632.528 53.395C634.545 52.5228 636.262 51.3507 637.68 49.8789C639.151 48.3526 640.296 46.5536 641.114 44.4822C641.932 42.4107 642.422 40.1757 642.586 37.7771H650.354C649.591 45.1908 647.056 50.9419 642.749 55.0303C638.497 59.0643 632.61 61.0812 625.087 61.0812Z" fill="#252525"/>
<path d="M563.806 1.3916H572.392L595.205 59.7745H586.619L580.241 42.1942H555.547L549.006 59.7745H541.074L563.806 1.3916ZM577.788 35.6527L568.058 8.42371H567.894L558 35.6527H577.788Z" fill="#252525"/>
<path d="M527.403 34.7532C526.748 35.0258 525.822 35.3529 524.622 35.7345C523.478 36.0615 522.197 36.3886 520.779 36.7157C519.362 37.0428 517.89 37.3426 516.364 37.6151C514.837 37.8332 513.393 37.9422 512.03 37.9422C507.56 37.9422 503.989 37.3971 501.318 36.3068C498.647 35.2166 496.576 33.7993 495.104 32.0549C493.687 30.3105 492.733 28.3208 492.242 26.0858C491.806 23.8507 491.588 21.6157 491.588 19.3807V1.3916H499.274V18.7266C499.274 20.0349 499.383 21.4249 499.601 22.8968C499.819 24.3686 500.364 25.7314 501.237 26.9852C502.109 28.239 503.39 29.2747 505.08 30.0924C506.77 30.9101 509.086 31.3189 512.03 31.3189C515.682 31.3189 518.79 30.9919 521.352 30.3377C523.968 29.6291 525.985 28.9204 527.403 28.2117V1.3916H535.171V59.7745H527.403V34.7532Z" fill="#252525"/>
<path d="M434.206 1.3916H442.792L465.605 59.7745H457.02L450.642 42.1942H425.948L419.406 59.7745H411.475L434.206 1.3916ZM448.189 35.6527L438.458 8.42371H438.295L428.401 35.6527H448.189Z" fill="#252525"/>
<path d="M359.332 1.3916H367.1V26.4946H397.845V1.3916H405.613V59.7745H397.845V33.0361H367.1V59.7745H359.332V1.3916Z" fill="#252525"/>
<path d="M265.266 1.3916H273.034V25.1863H290.45C296.229 25.1863 300.644 26.6854 303.697 29.6836C306.804 32.6272 308.358 36.9065 308.358 42.5213C308.358 48.0815 306.804 52.3608 303.697 55.3589C300.644 58.3026 296.229 59.7745 290.45 59.7745H265.266V1.3916ZM287.834 53.233C296.338 53.233 300.59 49.6624 300.59 42.5213C300.59 35.2711 296.338 31.646 287.834 31.646H273.034V53.233H287.834ZM316.044 1.3916H323.812V59.7745H316.044V1.3916Z" fill="#252525"/>
<path d="M231.56 7.9331H212.099V1.3916H258.789V7.9331H239.328V59.7745H231.56V7.9331Z" fill="#252525"/>
<path d="M168.325 1.3916H208.637V7.9331H176.093V26.4946H206.429V33.0361H176.093V53.233H208.882V59.7745H168.325V1.3916Z" fill="#252525"/>
<path d="M112.349 1.3916H133.527C134.781 1.3916 136.116 1.41886 137.533 1.47337C139.005 1.47337 140.45 1.55514 141.867 1.71868C143.284 1.8277 144.62 2.0185 145.874 2.29106C147.128 2.56362 148.163 2.97247 148.981 3.51759C150.889 4.66235 152.497 6.24321 153.805 8.26017C155.168 10.2771 155.85 12.7575 155.85 15.7011C155.85 18.8083 155.086 21.5067 153.56 23.7962C152.088 26.0312 149.962 27.6939 147.182 28.7841V28.9477C150.78 29.7108 153.533 31.3462 155.441 33.8538C157.349 36.3614 158.303 39.4141 158.303 43.0119C158.303 45.1379 157.921 47.2093 157.158 49.2263C156.395 51.2433 155.25 53.0422 153.724 54.623C152.252 56.1494 150.398 57.4032 148.163 58.3844C145.983 59.3111 143.448 59.7745 140.559 59.7745H112.349V1.3916ZM139.578 53.233C143.012 53.233 145.683 52.3063 147.591 50.4528C149.553 48.5994 150.535 46.0373 150.535 42.7666C150.535 40.8586 150.18 39.2778 149.472 38.024C148.763 36.7702 147.809 35.789 146.61 35.0803C145.465 34.3171 144.129 33.7993 142.603 33.5267C141.077 33.1996 139.496 33.0361 137.86 33.0361H120.117V53.233H139.578ZM135.653 26.4946C140.068 26.4946 143.23 25.7314 145.138 24.2051C147.1 22.6242 148.082 20.2802 148.082 17.173C148.082 15.156 147.754 13.5479 147.1 12.3486C146.446 11.0948 145.547 10.1409 144.402 9.48671C143.257 8.83255 141.922 8.42371 140.395 8.26017C138.923 8.04212 137.343 7.9331 135.653 7.9331H120.117V26.4946H135.653Z" fill="#252525"/>
<path d="M78.6426 7.9331H59.1816V1.3916H105.872V7.9331H86.4106V59.7745H78.6426V7.9331Z" fill="#252525"/>
<path d="M27.9649 61.0812C23.3313 61.0812 19.2702 60.2635 15.7814 58.6282C12.2926 56.9383 9.37615 54.676 7.03211 51.8414C4.68807 49.0067 2.91642 45.7632 1.71714 42.1109C0.572381 38.4585 0 34.6154 0 30.5815C0 26.6021 0.572381 22.7862 1.71714 19.1339C2.91642 15.427 4.68807 12.1563 7.03211 9.32163C9.37615 6.48698 12.2926 4.22471 15.7814 2.53483C19.2702 0.844942 23.3313 0 27.9649 0C32.5985 0 36.6596 0.844942 40.1484 2.53483C43.6372 4.22471 46.5537 6.48698 48.8977 9.32163C51.2417 12.1563 52.9861 15.427 54.1309 19.1339C55.3302 22.7862 55.9298 26.6021 55.9298 30.5815C55.9298 34.6154 55.3302 38.4585 54.1309 42.1109C52.9861 45.7632 51.2417 49.0067 48.8977 51.8414C46.5537 54.676 43.6372 56.9383 40.1484 58.6282C36.6596 60.2635 32.5985 61.0812 27.9649 61.0812ZM27.9649 54.6215C31.5082 54.6215 34.5609 53.9401 37.123 52.5773C39.6851 51.1599 41.7838 49.3065 43.4192 47.017C45.0546 44.7275 46.2538 42.1654 47.017 39.3307C47.7802 36.4416 48.1618 33.5252 48.1618 30.5815C48.1618 27.6378 47.7802 24.7487 47.017 21.914C46.2538 19.0248 45.0546 16.4355 43.4192 14.146C41.7838 11.8565 39.6851 10.0303 37.123 8.66748C34.5609 7.25016 31.5082 6.54149 27.9649 6.54149C24.4216 6.54149 21.3689 7.25016 18.8068 8.66748C16.2447 10.0303 14.146 11.8565 12.5106 14.146C10.8752 16.4355 9.67596 19.0248 8.91279 21.914C8.14961 24.7487 7.76803 27.6378 7.76803 30.5815C7.76803 33.5252 8.14961 36.4416 8.91279 39.3307C9.67596 42.1654 10.8752 44.7275 12.5106 47.017C14.146 49.3065 16.2447 51.1599 18.8068 52.5773C21.3689 53.9401 24.4216 54.6215 27.9649 54.6215Z" fill="#252525"/>
</svg>
