<svg width="370" height="69" viewBox="0 0 370 69" fill="none" xmlns="http://www.w3.org/2000/svg">
<path d="M341.809 39.5342H345.549V50.9916H353.935C356.718 50.9916 358.844 51.7135 360.314 53.1571C361.81 54.5745 362.558 56.635 362.558 59.3386C362.558 62.016 361.81 64.0765 360.314 65.5201C358.844 66.9376 356.718 67.6463 353.935 67.6463H341.809V39.5342ZM352.675 64.4965C356.77 64.4965 358.818 62.7772 358.818 59.3386C358.818 55.8476 356.77 54.1021 352.675 54.1021H345.549V64.4965H352.675ZM366.259 39.5342H369.999V67.6463H366.259V39.5342Z" fill="#252525"/>
<path d="M325.011 68.2766C322.832 68.2766 320.929 67.9091 319.302 67.1742C317.674 66.413 316.322 65.3762 315.246 64.0637C314.17 62.7513 313.356 61.2027 312.805 59.4178C312.28 57.6329 312.018 55.7167 312.018 53.6694C312.018 51.622 312.306 49.7058 312.884 47.9209C313.461 46.1098 314.301 44.5349 315.404 43.1962C316.532 41.8576 317.923 40.8076 319.577 40.0464C321.231 39.259 323.147 38.8652 325.326 38.8652C326.795 38.8652 328.187 39.0621 329.499 39.4558C330.811 39.8496 331.98 40.427 333.003 41.1882C334.027 41.9494 334.88 42.9075 335.562 44.0624C336.245 45.1911 336.691 46.5035 336.901 47.9997H333.161C332.741 46.0048 331.809 44.5086 330.365 43.5112C328.948 42.5138 327.255 42.015 325.286 42.015C323.606 42.015 322.163 42.33 320.955 42.96C319.774 43.59 318.79 44.443 318.002 45.5192C317.241 46.5692 316.677 47.7766 316.309 49.1415C315.942 50.5064 315.758 51.9238 315.758 53.3937C315.758 54.9949 315.942 56.5173 316.309 57.961C316.677 59.3784 317.241 60.6252 318.002 61.7014C318.79 62.7513 319.787 63.5913 320.995 64.2212C322.202 64.8512 323.646 65.1662 325.326 65.1662C326.533 65.1662 327.622 64.9693 328.593 64.5756C329.565 64.1556 330.391 63.5913 331.074 62.8826C331.783 62.1476 332.334 61.2814 332.728 60.284C333.121 59.2865 333.358 58.2103 333.436 57.0554H337.177C336.809 60.6252 335.589 63.3944 333.515 65.363C331.468 67.3054 328.633 68.2766 325.011 68.2766Z" fill="#252525"/>
<path d="M295.372 68.2766C293.141 68.2766 291.185 67.8829 289.505 67.0954C287.825 66.2817 286.421 65.1924 285.292 63.8275C284.164 62.4626 283.311 60.9008 282.733 59.1422C282.182 57.3835 281.906 55.533 281.906 53.5906C281.906 51.6745 282.182 49.8371 282.733 48.0784C283.311 46.2935 284.164 44.7186 285.292 43.3537C286.421 41.9888 287.825 40.8995 289.505 40.0858C291.185 39.2721 293.141 38.8652 295.372 38.8652C297.603 38.8652 299.558 39.2721 301.238 40.0858C302.918 40.8995 304.322 41.9888 305.451 43.3537C306.58 44.7186 307.42 46.2935 307.971 48.0784C308.548 49.8371 308.837 51.6745 308.837 53.5906C308.837 55.533 308.548 57.3835 307.971 59.1422C307.42 60.9008 306.58 62.4626 305.451 63.8275C304.322 65.1924 302.918 66.2817 301.238 67.0954C299.558 67.8829 297.603 68.2766 295.372 68.2766ZM295.372 65.1662C297.078 65.1662 298.548 64.8381 299.781 64.1819C301.015 63.4994 302.026 62.607 302.813 61.5045C303.601 60.4021 304.178 59.1684 304.546 57.8035C304.913 56.4123 305.097 55.008 305.097 53.5906C305.097 52.1732 304.913 50.782 304.546 49.4171C304.178 48.0259 303.601 46.7791 302.813 45.6767C302.026 44.5743 301.015 43.6949 299.781 43.0387C298.548 42.3563 297.078 42.015 295.372 42.015C293.666 42.015 292.196 42.3563 290.962 43.0387C289.728 43.6949 288.718 44.5743 287.93 45.6767C287.143 46.7791 286.565 48.0259 286.198 49.4171C285.83 50.782 285.647 52.1732 285.647 53.5906C285.647 55.008 285.83 56.4123 286.198 57.8035C286.565 59.1684 287.143 60.4021 287.93 61.5045C288.718 62.607 289.728 63.4994 290.962 64.1819C292.196 64.8381 293.666 65.1662 295.372 65.1662Z" fill="#252525"/>
<path d="M257.949 39.5342H270.273C273.134 39.5342 275.286 40.2691 276.73 41.739C278.174 43.1827 278.895 45.217 278.895 47.8418C278.895 50.4667 278.174 52.514 276.73 53.984C275.286 55.4276 273.134 56.1494 270.273 56.1494H261.69V67.6463H257.949V39.5342ZM269.013 52.9996C271.139 52.9996 272.688 52.5665 273.659 51.7003C274.656 50.8079 275.155 49.5217 275.155 47.8418C275.155 46.1619 274.656 44.8889 273.659 44.0227C272.688 43.1302 271.139 42.684 269.013 42.684H261.69V52.9996H269.013Z" fill="#252525"/>
<path d="M229.92 39.5342H251.811V67.6463H248.071V42.684H233.66V67.6463H229.92V39.5342Z" fill="#252525"/>
<path d="M211.897 68.2766C209.666 68.2766 207.71 67.8829 206.031 67.0954C204.351 66.2817 202.946 65.1924 201.818 63.8275C200.689 62.4626 199.836 60.9008 199.258 59.1422C198.707 57.3835 198.432 55.533 198.432 53.5906C198.432 51.6745 198.707 49.8371 199.258 48.0784C199.836 46.2935 200.689 44.7186 201.818 43.3537C202.946 41.9888 204.351 40.8995 206.031 40.0858C207.71 39.2721 209.666 38.8652 211.897 38.8652C214.128 38.8652 216.084 39.2721 217.764 40.0858C219.444 40.8995 220.848 41.9888 221.977 43.3537C223.105 44.7186 223.945 46.2935 224.496 48.0784C225.074 49.8371 225.363 51.6745 225.363 53.5906C225.363 55.533 225.074 57.3835 224.496 59.1422C223.945 60.9008 223.105 62.4626 221.977 63.8275C220.848 65.1924 219.444 66.2817 217.764 67.0954C216.084 67.8829 214.128 68.2766 211.897 68.2766ZM211.897 65.1662C213.603 65.1662 215.073 64.8381 216.307 64.1819C217.541 63.4994 218.551 62.607 219.339 61.5045C220.126 60.4021 220.703 59.1684 221.071 57.8035C221.438 56.4123 221.622 55.008 221.622 53.5906C221.622 52.1732 221.438 50.782 221.071 49.4171C220.703 48.0259 220.126 46.7791 219.339 45.6767C218.551 44.5743 217.541 43.6949 216.307 43.0387C215.073 42.3563 213.603 42.015 211.897 42.015C210.191 42.015 208.721 42.3563 207.487 43.0387C206.254 43.6949 205.243 44.5743 204.456 45.6767C203.668 46.7791 203.091 48.0259 202.723 49.4171C202.356 50.782 202.172 52.1732 202.172 53.5906C202.172 55.008 202.356 56.4123 202.723 57.8035C203.091 59.1684 203.668 60.4021 204.456 61.5045C205.243 62.607 206.254 63.4994 207.487 64.1819C208.721 64.8381 210.191 65.1662 211.897 65.1662Z" fill="#252525"/>
<path d="M173.053 39.5342H183.25C183.854 39.5342 184.497 39.5473 185.18 39.5736C185.888 39.5736 186.584 39.6129 187.266 39.6917C187.949 39.7442 188.592 39.836 189.196 39.9673C189.799 40.0985 190.298 40.2954 190.692 40.5579C191.61 41.1091 192.385 41.8703 193.015 42.8415C193.671 43.8127 193.999 45.007 193.999 46.4244C193.999 47.9206 193.632 49.2199 192.897 50.3223C192.188 51.3985 191.164 52.1991 189.826 52.724V52.8028C191.558 53.1703 192.883 53.9577 193.802 55.1651C194.721 56.3726 195.18 57.8425 195.18 59.5749C195.18 60.5986 194.996 61.596 194.629 62.5672C194.261 63.5384 193.71 64.4046 192.975 65.1658C192.267 65.9007 191.374 66.5045 190.298 66.9769C189.248 67.4232 188.027 67.6463 186.636 67.6463H173.053V39.5342ZM186.164 64.4965C187.818 64.4965 189.104 64.0502 190.022 63.1578C190.967 62.2653 191.44 61.0317 191.44 59.4568C191.44 58.5381 191.269 57.7769 190.928 57.1731C190.587 56.5694 190.127 56.097 189.55 55.7557C188.999 55.3882 188.356 55.1389 187.621 55.0076C186.886 54.8502 186.124 54.7714 185.337 54.7714H176.793V64.4965H186.164ZM184.274 51.6216C186.4 51.6216 187.922 51.2541 188.841 50.5192C189.786 49.758 190.259 48.6293 190.259 47.1331C190.259 46.1619 190.101 45.3876 189.786 44.8101C189.471 44.2064 189.038 43.7471 188.487 43.4321C187.936 43.1171 187.293 42.9202 186.558 42.8415C185.849 42.7365 185.088 42.684 184.274 42.684H176.793V51.6216H184.274Z" fill="#252525"/>
<path d="M138.025 39.5342H157.436V42.684H141.766V51.6216H156.373V54.7714H141.766V64.4965H157.554V67.6463H138.025V39.5342Z" fill="#252525"/>
<path d="M103.689 39.5342H107.43V50.9916H115.816C118.599 50.9916 120.725 51.7135 122.195 53.1571C123.691 54.5745 124.439 56.635 124.439 59.3386C124.439 62.016 123.691 64.0765 122.195 65.5201C120.725 66.9376 118.599 67.6463 115.816 67.6463H103.689V39.5342ZM114.556 64.4965C118.651 64.4965 120.698 62.7772 120.698 59.3386C120.698 55.8476 118.651 54.1021 114.556 54.1021H107.43V64.4965H114.556ZM128.14 39.5342H131.88V67.6463H128.14V39.5342Z" fill="#252525"/>
<path d="M87.4586 42.684H78.0879V39.5342H100.57V42.684H91.199V67.6463H87.4586V42.684Z" fill="#252525"/>
<path d="M64.282 68.2766C62.1034 68.2766 60.2004 67.9091 58.573 67.1742C56.9456 66.413 55.5938 65.3762 54.5176 64.0637C53.4414 62.7513 52.6277 61.2027 52.0765 59.4178C51.5515 57.6329 51.2891 55.7167 51.2891 53.6694C51.2891 51.622 51.5778 49.7058 52.1553 47.9209C52.7327 46.1098 53.5727 44.5349 54.6751 43.1962C55.8038 41.8576 57.195 40.8076 58.8486 40.0464C60.5023 39.259 62.4184 38.8652 64.597 38.8652C66.0669 38.8652 67.4581 39.0621 68.7705 39.4558C70.083 39.8496 71.251 40.427 72.2747 41.1882C73.2984 41.9494 74.1515 42.9075 74.8339 44.0624C75.5164 45.1911 75.9626 46.5035 76.1726 47.9997H72.4322C72.0122 46.0048 71.0804 44.5086 69.6367 43.5112C68.2193 42.5138 66.5263 42.015 64.5576 42.015C62.8777 42.015 61.4341 42.33 60.2267 42.96C59.0455 43.59 58.0612 44.443 57.2737 45.5192C56.5125 46.5692 55.9482 47.7766 55.5807 49.1415C55.2132 50.5064 55.0295 51.9238 55.0295 53.3937C55.0295 54.9949 55.2132 56.5173 55.5807 57.961C55.9482 59.3784 56.5125 60.6252 57.2737 61.7014C58.0612 62.7513 59.0586 63.5913 60.266 64.2212C61.4735 64.8512 62.9171 65.1662 64.597 65.1662C65.8045 65.1662 66.8938 64.9693 67.865 64.5756C68.8362 64.1556 69.663 63.5913 70.3454 62.8826C71.0541 62.1476 71.6054 61.2814 71.9991 60.284C72.3928 59.2865 72.6291 58.2103 72.7078 57.0554H76.4482C76.0807 60.6252 74.8602 63.3944 72.7865 65.363C70.7392 67.3054 67.9043 68.2766 64.282 68.2766Z" fill="#252525"/>
<path d="M34.7737 39.5342H38.9079L49.8928 67.6463H45.7587L42.6876 59.1811H30.7971L27.6473 67.6463H23.8281L34.7737 39.5342ZM41.5065 56.0313L36.8211 42.9202H36.7424L31.9783 56.0313H41.5065Z" fill="#252525"/>
<path d="M17.2452 55.5982C16.9302 55.7295 16.484 55.887 15.9066 56.0707C15.3553 56.2282 14.7385 56.3857 14.056 56.5432C13.3736 56.7007 12.6649 56.845 11.9299 56.9763C11.1949 57.0813 10.4994 57.1338 9.84317 57.1338C7.6908 57.1338 5.9715 56.8713 4.68533 56.3463C3.39915 55.8213 2.40173 55.1389 1.69302 54.2989C1.01056 53.459 0.55122 52.5009 0.314984 51.4247C0.104996 50.3485 0 49.2724 0 48.1962V39.5342H3.70103V47.8812C3.70103 48.5112 3.75351 49.1805 3.85851 49.8892C3.9635 50.5979 4.226 51.2541 4.64598 51.8578C5.06595 52.4615 5.68278 52.9603 6.49648 53.354C7.31018 53.7477 8.42575 53.9446 9.84317 53.9446C11.6018 53.9446 13.098 53.7871 14.3316 53.4721C15.5916 53.1309 16.5628 52.7896 17.2452 52.4484V39.5342H20.9856V67.6463H17.2452V55.5982Z" fill="#252525"/>
<path d="M209.274 1.01367H213.408L224.393 29.1258H220.259L217.188 20.6606H205.297L202.147 29.1258H198.328L209.274 1.01367ZM216.006 17.5108L211.321 4.39972H211.242L206.478 17.5108H216.006Z" fill="#252525"/>
<path d="M173.221 1.01367H176.961V13.1011H191.765V1.01367H195.506V29.1258H191.765V16.2509H176.961V29.1258H173.221V1.01367Z" fill="#252525"/>
<path d="M127.926 1.01367H131.666V12.4711H140.053C142.835 12.4711 144.961 13.193 146.431 14.6366C147.927 16.054 148.675 18.1145 148.675 20.8181C148.675 23.4955 147.927 25.556 146.431 26.9996C144.961 28.4171 142.835 29.1258 140.053 29.1258H127.926V1.01367ZM138.793 25.976C142.887 25.976 144.935 24.2567 144.935 20.8181C144.935 17.3271 142.887 15.5816 138.793 15.5816H131.666V25.976H138.793ZM152.376 1.01367H156.117V29.1258H152.376V1.01367Z" fill="#252525"/>
<path d="M111.697 4.16349H102.326V1.01367H124.808V4.16349H115.437V29.1258H111.697V4.16349Z" fill="#252525"/>
<path d="M81.248 1.01367H100.659V4.16349H84.9884V13.1011H99.5957V16.2509H84.9884V25.976H100.777V29.1258H81.248V1.01367Z" fill="#252525"/>
<path d="M54.2969 1.01367H64.4944C65.0981 1.01367 65.7412 1.0268 66.4237 1.05304C67.1324 1.05304 67.8279 1.09242 68.5104 1.17116C69.1929 1.22366 69.836 1.31553 70.4397 1.44677C71.0434 1.57801 71.5421 1.77488 71.9358 2.03736C72.8545 2.58858 73.6289 3.34978 74.2588 4.32098C74.915 5.29217 75.2431 6.48647 75.2431 7.90389C75.2431 9.40005 74.8757 10.6994 74.1407 11.8018C73.432 12.878 72.4083 13.6785 71.0696 14.2035V14.2823C72.802 14.6497 74.1276 15.4372 75.0463 16.6446C75.965 17.8521 76.4243 19.322 76.4243 21.0544C76.4243 22.0781 76.2406 23.0755 75.8731 24.0467C75.5056 25.0179 74.9544 25.8841 74.2194 26.6453C73.5107 27.3802 72.6183 27.984 71.5421 28.4564C70.4922 28.9027 69.2716 29.1258 67.8804 29.1258H54.2969V1.01367ZM67.408 25.976C69.0616 25.976 70.3478 25.5297 71.2665 24.6373C72.2114 23.7448 72.6839 22.5112 72.6839 20.9362C72.6839 20.0176 72.5133 19.2563 72.1721 18.6526C71.8308 18.0489 71.3715 17.5764 70.794 17.2352C70.2428 16.8677 69.5997 16.6184 68.8648 16.4871C68.1298 16.3296 67.3686 16.2509 66.5811 16.2509H58.0373V25.976H67.408ZM65.5181 13.1011C67.6442 13.1011 69.1666 12.7336 70.0853 11.9986C71.0303 11.2374 71.5027 10.1088 71.5027 8.6126C71.5027 7.64141 71.3452 6.86708 71.0303 6.28961C70.7153 5.6859 70.2822 5.22655 69.731 4.91157C69.1797 4.59659 68.5367 4.39972 67.8017 4.32098C67.093 4.21598 66.3318 4.16349 65.5181 4.16349H58.0373V13.1011H65.5181Z" fill="#252525"/>
<path d="M38.066 4.16349H28.6953V1.01367H51.1771V4.16349H41.8064V29.1258H38.066V4.16349Z" fill="#252525"/>
<path d="M13.6627 29.7551C11.4316 29.7551 9.47609 29.3614 7.79619 28.574C6.11629 27.7603 4.712 26.6709 3.58332 25.306C2.45463 23.9411 1.60156 22.3793 1.02409 20.6207C0.472874 18.862 0.197266 17.0115 0.197266 15.0691C0.197266 13.153 0.472874 11.3156 1.02409 9.55695C1.60156 7.77206 2.45463 6.19715 3.58332 4.83223C4.712 3.46731 6.11629 2.378 7.79619 1.5643C9.47609 0.7506 11.4316 0.34375 13.6627 0.34375C15.8938 0.34375 17.8493 0.7506 19.5293 1.5643C21.2092 2.378 22.6134 3.46731 23.7421 4.83223C24.8708 6.19715 25.7108 7.77206 26.262 9.55695C26.8394 11.3156 27.1282 13.153 27.1282 15.0691C27.1282 17.0115 26.8394 18.862 26.262 20.6207C25.7108 22.3793 24.8708 23.9411 23.7421 25.306C22.6134 26.6709 21.2092 27.7603 19.5293 28.574C17.8493 29.3614 15.8938 29.7551 13.6627 29.7551ZM13.6627 26.6447C15.3689 26.6447 16.8388 26.3166 18.0725 25.6604C19.3061 24.9779 20.3167 24.0855 21.1042 22.983C21.8916 21.8806 22.4691 20.6469 22.8366 19.282C23.204 17.8908 23.3878 16.4865 23.3878 15.0691C23.3878 13.6517 23.204 12.2605 22.8366 10.8956C22.4691 9.50446 21.8916 8.25766 21.1042 7.15522C20.3167 6.05279 19.3061 5.17346 18.0725 4.51725C16.8388 3.83479 15.3689 3.49356 13.6627 3.49356C11.9566 3.49356 10.4867 3.83479 9.25298 4.51725C8.0193 5.17346 7.00874 6.05279 6.22129 7.15522C5.43383 8.25766 4.85637 9.50446 4.48889 10.8956C4.12141 12.2605 3.93767 13.6517 3.93767 15.0691C3.93767 16.4865 4.12141 17.8908 4.48889 19.282C4.85637 20.6469 5.43383 21.8806 6.22129 22.983C7.00874 24.0855 8.0193 24.9779 9.25298 25.6604C10.4867 26.3166 11.9566 26.6447 13.6627 26.6447Z" fill="#252525"/>
</svg>
