<svg width="370" height="32" viewBox="0 0 370 32" fill="none" xmlns="http://www.w3.org/2000/svg">
<path d="M356.8 0.584961H360.409L369.999 25.1274H366.39L363.709 17.7372H353.328L350.578 25.1274H347.244L356.8 0.584961ZM362.678 14.9873L358.587 3.54106H358.519L354.359 14.9873H362.678Z" fill="#252525"/>
<path d="M335.962 3.33482H327.781V0.584961H347.408V3.33482H339.228V25.1274H335.962V3.33482Z" fill="#252525"/>
<path d="M314.775 0.584961H318.384L327.974 25.1274H324.365L321.684 17.7372H311.303L308.553 25.1274H305.219L314.775 0.584961ZM320.652 14.9873L316.562 3.54106H316.493L312.334 14.9873H320.652Z" fill="#252525"/>
<path d="M283.593 25.4712C283.25 25.4712 282.883 25.4368 282.493 25.3681C282.127 25.3222 281.829 25.242 281.6 25.1274V22.1713C282.035 22.3088 282.505 22.3776 283.009 22.3776C284.04 22.3776 284.842 21.8505 285.415 20.7964C286.011 19.7194 286.446 18.2184 286.721 16.2935C286.996 14.3686 287.168 12.0771 287.237 9.41888C287.306 6.73777 287.34 3.79313 287.34 0.584961H302.739V25.1274H299.474V3.33482H290.537C290.514 5.28264 290.468 7.18462 290.399 9.04077C290.353 10.874 290.25 12.6156 290.09 14.2655C289.952 15.8925 289.735 17.3935 289.437 18.7684C289.139 20.1433 288.738 21.3349 288.234 22.3432C287.729 23.3286 287.099 24.0962 286.343 24.6462C285.587 25.1962 284.67 25.4712 283.593 25.4712Z" fill="#252525"/>
<path d="M259.467 0.584961H278.578V25.1274H275.313V3.33482H262.732V25.1274H259.467V0.584961Z" fill="#252525"/>
<path d="M243.73 25.6768C241.782 25.6768 240.075 25.3331 238.609 24.6456C237.142 23.9352 235.916 22.9842 234.931 21.7926C233.945 20.601 233.201 19.2375 232.696 17.7022C232.215 16.1669 231.975 14.5513 231.975 12.8556C231.975 11.1828 232.215 9.57867 232.696 8.04333C233.201 6.48508 233.945 5.11015 234.931 3.91855C235.916 2.72694 237.142 1.77595 238.609 1.06557C240.075 0.35519 241.782 0 243.73 0C245.678 0 247.385 0.35519 248.852 1.06557C250.318 1.77595 251.544 2.72694 252.53 3.91855C253.515 5.11015 254.248 6.48508 254.73 8.04333C255.234 9.57867 255.486 11.1828 255.486 12.8556C255.486 14.5513 255.234 16.1669 254.73 17.7022C254.248 19.2375 253.515 20.601 252.53 21.7926C251.544 22.9842 250.318 23.9352 248.852 24.6456C247.385 25.3331 245.678 25.6768 243.73 25.6768ZM243.73 22.9613C245.22 22.9613 246.503 22.6749 247.58 22.102C248.657 21.5062 249.539 20.7271 250.227 19.7646C250.914 18.8022 251.418 17.7251 251.739 16.5335C252.06 15.319 252.22 14.093 252.22 12.8556C252.22 11.6181 252.06 10.4036 251.739 9.21202C251.418 7.9975 250.914 6.90902 250.227 5.94657C249.539 4.98412 248.657 4.21645 247.58 3.64356C246.503 3.04776 245.22 2.74986 243.73 2.74986C242.241 2.74986 240.957 3.04776 239.88 3.64356C238.803 4.21645 237.921 4.98412 237.234 5.94657C236.546 6.90902 236.042 7.9975 235.721 9.21202C235.4 10.4036 235.24 11.6181 235.24 12.8556C235.24 14.093 235.4 15.319 235.721 16.5335C236.042 17.7251 236.546 18.8022 237.234 19.7646C237.921 20.7271 238.803 21.5062 239.88 22.102C240.957 22.6749 242.241 22.9613 243.73 22.9613Z" fill="#252525"/>
<path d="M198.676 0.584961H201.941V21.3808L214.281 0.584961H218.406V25.1274H215.141V4.2629L202.766 25.1274H198.676V0.584961Z" fill="#252525"/>
<path d="M173.487 0.584961H177.097L186.687 25.1274H183.078L180.396 17.7372H170.016L167.266 25.1274H163.932L173.487 0.584961ZM179.365 14.9873L175.275 3.54106H175.206L171.047 14.9873H179.365Z" fill="#252525"/>
<path d="M143.893 0.584961H147.158V12.4781L159.601 0.584961H163.829L152.142 11.5156L164.242 25.1274H160.117L149.667 13.5093L147.158 15.8467V25.1274H143.893V0.584961Z" fill="#252525"/>
<path d="M120.363 0.584961H129.266C129.793 0.584961 130.354 0.596419 130.95 0.619334C131.569 0.619334 132.176 0.653707 132.772 0.722454C133.368 0.768286 133.929 0.84849 134.456 0.963068C134.983 1.07764 135.419 1.24951 135.762 1.47867C136.565 1.95989 137.241 2.62444 137.791 3.47231C138.363 4.32018 138.65 5.36284 138.65 6.60028C138.65 7.90646 138.329 9.04077 137.687 10.0032C137.069 10.9428 136.175 11.6417 135.006 12.1V12.1687C136.519 12.4896 137.676 13.177 138.478 14.2311C139.28 15.2852 139.681 16.5685 139.681 18.0809C139.681 18.9746 139.521 19.8454 139.2 20.6933C138.879 21.5412 138.398 22.2974 137.756 22.9619C137.137 23.6036 136.358 24.1306 135.419 24.5431C134.502 24.9327 133.437 25.1274 132.222 25.1274H120.363V0.584961ZM131.81 22.3776C133.253 22.3776 134.376 21.988 135.178 21.2089C136.003 20.4298 136.416 19.3527 136.416 17.9778C136.416 17.1758 136.267 16.5112 135.969 15.9842C135.671 15.4571 135.27 15.0446 134.766 14.7467C134.284 14.4259 133.723 14.2082 133.081 14.0936C132.44 13.9561 131.775 13.8874 131.088 13.8874H123.629V22.3776H131.81ZM130.16 11.1375C132.016 11.1375 133.345 10.8167 134.147 10.1751C134.972 9.51054 135.384 8.52518 135.384 7.21899C135.384 6.37112 135.247 5.69511 134.972 5.19097C134.697 4.66392 134.319 4.2629 133.838 3.98791C133.356 3.71292 132.795 3.54106 132.153 3.47231C131.535 3.38065 130.87 3.33482 130.16 3.33482H123.629V11.1375H130.16Z" fill="#252525"/>
<path d="M104.741 0.584961H108.35L117.941 25.1274H114.331L111.65 17.7372H101.27L98.5197 25.1274H95.1855L104.741 0.584961ZM110.619 14.9873L106.529 3.54106H106.46L102.301 14.9873H110.619Z" fill="#252525"/>
<path d="M83.9035 3.33482H75.7227V0.584961H95.3498V3.33482H87.1689V25.1274H83.9035V3.33482Z" fill="#252525"/>
<path d="M63.6693 25.6768C61.7673 25.6768 60.106 25.356 58.6852 24.7143C57.2645 24.0498 56.0843 23.1446 55.1448 21.9989C54.2052 20.8531 53.4949 19.5011 53.0136 17.9428C52.5553 16.3846 52.3262 14.7117 52.3262 12.9243C52.3262 11.1369 52.5782 9.46409 53.0824 7.90584C53.5865 6.32467 54.3198 4.94974 55.2823 3.78105C56.2676 2.61236 57.4822 1.69574 58.9258 1.0312C60.3695 0.343732 62.0423 0 63.9443 0C65.2276 0 66.4421 0.171866 67.5879 0.515598C68.7337 0.85933 69.7534 1.36347 70.6471 2.02802C71.5408 2.69257 72.2856 3.52898 72.8814 4.53726C73.4772 5.52263 73.8667 6.6684 74.05 7.97459H70.7846C70.4179 6.23301 69.6044 4.92683 68.3441 4.05604C67.1067 3.18525 65.6286 2.74986 63.9099 2.74986C62.4434 2.74986 61.183 3.02484 60.1289 3.57481C59.0977 4.12479 58.2384 4.86954 57.5509 5.80907C56.8864 6.72569 56.3937 7.77981 56.0728 8.97141C55.752 10.163 55.5916 11.4005 55.5916 12.6837C55.5916 14.0816 55.752 15.4107 56.0728 16.671C56.3937 17.9084 56.8864 18.9969 57.5509 19.9365C58.2384 20.8531 59.1092 21.5864 60.1633 22.1364C61.2174 22.6863 62.4777 22.9613 63.9443 22.9613C64.9984 22.9613 65.9494 22.7894 66.7973 22.4457C67.6452 22.0791 68.367 21.5864 68.9628 20.9677C69.5815 20.326 70.0627 19.5698 70.4065 18.699C70.7502 17.8282 70.9565 16.8887 71.0252 15.8804H74.2907C73.9698 18.9969 72.9043 21.4145 71.094 23.1332C69.3065 24.8289 66.8317 25.6768 63.6693 25.6768Z" fill="#252525"/>
<path d="M37.7947 25.6768C35.8469 25.6768 34.1397 25.3331 32.6731 24.6456C31.2065 23.9352 29.9805 22.9842 28.9952 21.7926C28.0098 20.601 27.265 19.2375 26.7609 17.7022C26.2797 16.1669 26.0391 14.5513 26.0391 12.8556C26.0391 11.1828 26.2797 9.57867 26.7609 8.04333C27.265 6.48508 28.0098 5.11015 28.9952 3.91855C29.9805 2.72694 31.2065 1.77595 32.6731 1.06557C34.1397 0.35519 35.8469 0 37.7947 0C39.7425 0 41.4497 0.35519 42.9163 1.06557C44.3829 1.77595 45.6089 2.72694 46.5942 3.91855C47.5796 5.11015 48.3129 6.48508 48.7941 8.04333C49.2983 9.57867 49.5503 11.1828 49.5503 12.8556C49.5503 14.5513 49.2983 16.1669 48.7941 17.7022C48.3129 19.2375 47.5796 20.601 46.5942 21.7926C45.6089 22.9842 44.3829 23.9352 42.9163 24.6456C41.4497 25.3331 39.7425 25.6768 37.7947 25.6768ZM37.7947 22.9613C39.2842 22.9613 40.5675 22.6749 41.6445 22.102C42.7215 21.5062 43.6038 20.7271 44.2912 19.7646C44.9787 18.8022 45.4828 17.7251 45.8037 16.5335C46.1245 15.319 46.2849 14.093 46.2849 12.8556C46.2849 11.6181 46.1245 10.4036 45.8037 9.21202C45.4828 7.9975 44.9787 6.90902 44.2912 5.94657C43.6038 4.98412 42.7215 4.21645 41.6445 3.64356C40.5675 3.04776 39.2842 2.74986 37.7947 2.74986C36.3052 2.74986 35.0219 3.04776 33.9449 3.64356C32.8679 4.21645 31.9856 4.98412 31.2982 5.94657C30.6107 6.90902 30.1066 7.9975 29.7857 9.21202C29.4649 10.4036 29.3045 11.6181 29.3045 12.8556C29.3045 14.093 29.4649 15.319 29.7857 16.5335C30.1066 17.7251 30.6107 18.8022 31.2982 19.7646C31.9856 20.7271 32.8679 21.5062 33.9449 22.102C35.0219 22.6749 36.3052 22.9613 37.7947 22.9613Z" fill="#252525"/>
<path d="M0 22.3776H2.40613C2.86444 21.5526 3.28837 20.5214 3.67793 19.284C4.0675 18.0466 4.39977 16.6945 4.67476 15.228C4.97266 13.7384 5.20181 12.1687 5.36222 10.5188C5.52263 8.84599 5.60284 7.16171 5.60284 5.46596V0.584961H21.4145V22.3776H24.13V31.2115H21.002V25.1274H3.12796V31.2115H0V22.3776ZM18.1491 22.3776V3.33482H8.76517V6.87526C8.76517 8.38768 8.68497 9.91156 8.52456 11.4469C8.38707 12.9593 8.18083 14.403 7.90584 15.7779C7.65377 17.1299 7.35587 18.3788 7.01214 19.5246C6.69132 20.6704 6.34759 21.6214 5.98094 22.3776H18.1491Z" fill="#252525"/>
</svg>
