<svg width="370" height="54" viewBox="0 0 370 54" fill="none" xmlns="http://www.w3.org/2000/svg">
<path d="M328.148 1.43359H333.701V18.4433H346.152C350.282 18.4433 353.439 19.5149 355.621 21.6582C357.842 23.7625 358.953 26.8215 358.953 30.8352C358.953 34.81 357.842 37.869 355.621 40.0123C353.439 42.1166 350.282 43.1687 346.152 43.1687H328.148V1.43359ZM344.281 38.4925C350.36 38.4925 353.4 35.9401 353.4 30.8352C353.4 25.6524 350.36 23.061 344.281 23.061H333.701V38.4925H344.281ZM364.447 1.43359H370V43.1687H364.447V1.43359Z" fill="#252525"/>
<path d="M304.052 6.1098H290.141V1.43359H323.517V6.1098H309.605V43.1687H304.052V6.1098Z" fill="#252525"/>
<path d="M252.398 1.43359H257.951V19.3785H279.93V1.43359H285.483V43.1687H279.93V24.0547H257.951V43.1687H252.398V1.43359Z" fill="#252525"/>
<path d="M216.666 1.43359H245.483V6.1098H222.219V19.3785H243.905V24.0547H222.219V38.4925H245.658V43.1687H216.666V1.43359Z" fill="#252525"/>
<path d="M165.865 1.43359H173.464L186.616 36.5051L199.826 1.43359H207.425V43.1687H202.164V8.4479H202.047L189.012 43.1687H184.278L171.243 8.4479H171.126V43.1687H165.865V1.43359Z" fill="#252525"/>
<path d="M136.094 43.8117C135.431 43.8117 134.769 43.7338 134.106 43.5779C133.483 43.461 132.957 43.3051 132.528 43.1103V38.1418C133.035 38.3756 133.541 38.5704 134.048 38.7263C134.593 38.8432 135.197 38.9017 135.86 38.9017C136.912 38.9017 137.906 38.5315 138.841 37.7911C139.776 37.0507 140.594 35.9401 141.296 34.4593L141.997 32.998L125.514 1.43359H131.534L144.92 27.5619L155.324 1.43359H161.228L147.2 33.6994C146.381 35.6478 145.543 37.265 144.686 38.551C143.829 39.8369 142.952 40.8696 142.056 41.6489C141.159 42.4283 140.205 42.9739 139.192 43.2856C138.217 43.6363 137.185 43.8117 136.094 43.8117Z" fill="#252525"/>
<path d="M91.0273 1.43359H96.5803V21.6582L117.74 1.43359H124.93L105.056 20.0215L125.631 43.1687H118.617L100.847 23.4117L96.5803 27.3865V43.1687H91.0273V1.43359Z" fill="#252525"/>
<path d="M64.2681 44.1035C60.9558 44.1035 58.0527 43.519 55.5587 42.3499C53.0647 41.1419 50.9799 39.5247 49.3043 37.4984C47.6286 35.472 46.3622 33.1534 45.5048 30.5425C44.6865 27.9316 44.2773 25.1844 44.2773 22.3007C44.2773 19.456 44.6865 16.7282 45.5048 14.1173C46.3622 11.4675 47.6286 9.1294 49.3043 7.10304C50.9799 5.07669 53.0647 3.4595 55.5587 2.25148C58.0527 1.04346 60.9558 0.439453 64.2681 0.439453C67.5804 0.439453 70.4836 1.04346 72.9775 2.25148C75.4715 3.4595 77.5563 5.07669 79.232 7.10304C80.9076 9.1294 82.1546 11.4675 82.9729 14.1173C83.8302 16.7282 84.2589 19.456 84.2589 22.3007C84.2589 25.1844 83.8302 27.9316 82.9729 30.5425C82.1546 33.1534 80.9076 35.472 79.232 37.4984C77.5563 39.5247 75.4715 41.1419 72.9775 42.3499C70.4836 43.519 67.5804 44.1035 64.2681 44.1035ZM64.2681 39.4858C66.8011 39.4858 68.9833 38.9987 70.8148 38.0244C72.6463 37.0113 74.1466 35.6863 75.3156 34.0497C76.4847 32.413 77.342 30.5815 77.8876 28.5551C78.4331 26.4898 78.7059 24.405 78.7059 22.3007C78.7059 20.1964 78.4331 18.1311 77.8876 16.1047C77.342 14.0394 76.4847 12.1884 75.3156 10.5517C74.1466 8.91507 72.6463 7.60963 70.8148 6.63542C68.9833 5.62225 66.8011 5.11566 64.2681 5.11566C61.7352 5.11566 59.5529 5.62225 57.7214 6.63542C55.8899 7.60963 54.3896 8.91507 53.2206 10.5517C52.0515 12.1884 51.1942 14.0394 50.6487 16.1047C50.1031 18.1311 49.8303 20.1964 49.8303 22.3007C49.8303 24.405 50.1031 26.4898 50.6487 28.5551C51.1942 30.5815 52.0515 32.413 53.2206 34.0497C54.3896 35.6863 55.8899 37.0113 57.7214 38.0244C59.5529 38.9987 61.7352 39.4858 64.2681 39.4858Z" fill="#252525"/>
<path d="M0 38.4925H4.09168C4.87105 37.0897 5.59196 35.3361 6.25442 33.2318C6.91688 31.1275 7.48193 28.8284 7.94955 26.3344C8.45613 23.8014 8.84582 21.1321 9.1186 18.3264C9.39137 15.4817 9.52776 12.6175 9.52776 9.73386V1.43359H36.4159V38.4925H41.0337V53.5148H35.7145V43.1687H5.31918V53.5148H0V38.4925ZM30.8629 38.4925V6.1098H14.9054V12.1304C14.9054 14.7023 14.769 17.2937 14.4962 19.9046C14.2624 22.4765 13.9117 24.9315 13.4441 27.2696C13.0154 29.5688 12.5088 31.6925 11.9243 33.6409C11.3788 35.5894 10.7942 37.2066 10.1707 38.4925H30.8629Z" fill="#252525"/>
</svg>
