<svg width="370" height="58" viewBox="0 0 370 58" fill="none" xmlns="http://www.w3.org/2000/svg">
<path d="M325.715 1.51855H333.044V48.196L360.742 1.51855H370.001V56.6056H362.671V9.7739L334.896 56.6056H325.715V1.51855Z" fill="#252525"/>
<path d="M293.911 7.69078H275.549V1.51855H319.603V7.69078H301.241V56.6056H293.911V7.69078Z" fill="#252525"/>
<path d="M248.494 57.8402C244.225 57.8402 240.495 57.1201 237.306 55.6799C234.117 54.1883 231.469 52.1566 229.36 49.5848C227.251 47.013 225.656 43.9784 224.576 40.4808C223.548 36.9832 223.033 33.2284 223.033 29.2165C223.033 25.2045 223.599 21.4498 224.731 17.9522C225.862 14.4031 227.508 11.317 229.668 8.69383C231.88 6.07064 234.606 4.01323 237.847 2.52161C241.087 0.978558 244.842 0.207031 249.111 0.207031C251.991 0.207031 254.717 0.592795 257.289 1.36432C259.861 2.13585 262.15 3.26742 264.156 4.75904C266.162 6.25066 267.833 8.12805 269.171 10.3912C270.508 12.6029 271.382 15.1747 271.794 18.1065H264.464C263.641 14.1974 261.815 11.2656 258.986 9.31106C256.209 7.35652 252.891 6.37925 249.034 6.37925C245.742 6.37925 242.913 6.99647 240.547 8.23092C238.232 9.46536 236.303 11.137 234.76 13.2458C233.269 15.3033 232.163 17.6693 231.443 20.3439C230.723 23.0185 230.363 25.796 230.363 28.6764C230.363 31.8139 230.723 34.7972 231.443 37.6261C232.163 40.4036 233.269 42.8468 234.76 44.9556C236.303 47.013 238.258 48.659 240.624 49.8934C242.99 51.1279 245.819 51.7451 249.111 51.7451C251.477 51.7451 253.611 51.3593 255.515 50.5878C257.418 49.7648 259.038 48.659 260.375 47.2702C261.764 45.83 262.844 44.1327 263.616 42.1781C264.387 40.2236 264.85 38.1148 265.004 35.8516H272.334C271.614 42.8468 269.222 48.2732 265.159 52.1308C261.147 55.937 255.592 57.8402 248.494 57.8402Z" fill="#252525"/>
<path d="M190.414 57.8402C186.042 57.8402 182.21 57.0686 178.918 55.5256C175.626 53.9311 172.874 51.7965 170.662 49.1219C168.451 46.4473 166.779 43.3869 165.648 39.9407C164.567 36.4946 164.027 32.8684 164.027 29.0622C164.027 25.3074 164.567 21.7069 165.648 18.2608C166.779 14.7632 168.451 11.6771 170.662 9.00244C172.874 6.32782 175.626 4.19326 178.918 2.59876C182.21 1.00428 186.042 0.207031 190.414 0.207031C194.786 0.207031 198.618 1.00428 201.909 2.59876C205.201 4.19326 207.953 6.32782 210.165 9.00244C212.376 11.6771 214.022 14.7632 215.102 18.2608C216.234 21.7069 216.8 25.3074 216.8 29.0622C216.8 32.8684 216.234 36.4946 215.102 39.9407C214.022 43.3869 212.376 46.4473 210.165 49.1219C207.953 51.7965 205.201 53.9311 201.909 55.5256C198.618 57.0686 194.786 57.8402 190.414 57.8402ZM190.414 51.7451C193.757 51.7451 196.637 51.1021 199.055 49.8163C201.472 48.479 203.452 46.7302 204.995 44.5699C206.539 42.4096 207.67 39.9921 208.39 37.3175C209.11 34.5914 209.47 31.8397 209.47 29.0622C209.47 26.2847 209.11 23.5586 208.39 20.884C207.67 18.1579 206.539 15.7147 204.995 13.5545C203.452 11.3942 201.472 9.6711 199.055 8.38523C196.637 7.04791 193.757 6.37925 190.414 6.37925C187.07 6.37925 184.19 7.04791 181.772 8.38523C179.355 9.6711 177.375 11.3942 175.832 13.5545C174.289 15.7147 173.157 18.1579 172.437 20.884C171.717 23.5586 171.357 26.2847 171.357 29.0622C171.357 31.8397 171.717 34.5914 172.437 37.3175C173.157 39.9921 174.289 42.4096 175.832 44.5699C177.375 46.7302 179.355 48.479 181.772 49.8163C184.19 51.1021 187.07 51.7451 190.414 51.7451Z" fill="#252525"/>
<path d="M114.299 1.51855H134.281C135.464 1.51855 136.725 1.54427 138.062 1.59571C139.451 1.59571 140.814 1.67286 142.151 1.82717C143.488 1.93004 144.748 2.11006 145.931 2.36724C147.114 2.62441 148.092 3.01018 148.863 3.52453C150.663 4.60467 152.181 6.09629 153.415 7.99939C154.701 9.90249 155.344 12.2428 155.344 15.0203C155.344 17.9521 154.624 20.4981 153.184 22.6584C151.795 24.7673 149.789 26.336 147.166 27.3647V27.519C150.561 28.2391 153.158 29.7822 154.958 32.1482C156.759 34.5142 157.659 37.3946 157.659 40.7893C157.659 42.7953 157.299 44.7498 156.579 46.6529C155.858 48.556 154.778 50.2534 153.338 51.745C151.949 53.1852 150.201 54.3682 148.092 55.294C146.034 56.1684 143.643 56.6056 140.917 56.6056H114.299V1.51855ZM139.991 50.4334C143.231 50.4334 145.751 49.559 147.552 47.8102C149.403 46.0614 150.329 43.644 150.329 40.5579C150.329 38.7576 149.995 37.266 149.326 36.083C148.658 34.9 147.757 33.9742 146.626 33.3055C145.546 32.5854 144.286 32.0968 142.845 31.8396C141.405 31.531 139.914 31.3767 138.37 31.3767H121.628V50.4334H139.991ZM136.287 25.2045C140.454 25.2045 143.437 24.4844 145.237 23.0442C147.089 21.5526 148.015 19.3408 148.015 16.409C148.015 14.5059 147.706 12.9886 147.089 11.857C146.472 10.674 145.623 9.7739 144.543 9.15668C143.463 8.53946 142.202 8.15369 140.762 7.99939C139.373 7.79365 137.882 7.69078 136.287 7.69078H121.628V25.2045H136.287Z" fill="#252525"/>
<path d="M78.98 57.8402C74.608 57.8402 70.7761 57.0686 67.4842 55.5256C64.1924 53.9311 61.4406 51.7965 59.2289 49.1219C57.0172 46.4473 55.3455 43.3869 54.214 39.9407C53.1338 36.4946 52.5938 32.8684 52.5938 29.0622C52.5938 25.3074 53.1338 21.7069 54.214 18.2608C55.3455 14.7632 57.0172 11.6771 59.2289 9.00244C61.4406 6.32782 64.1924 4.19326 67.4842 2.59876C70.7761 1.00428 74.608 0.207031 78.98 0.207031C83.352 0.207031 87.1839 1.00428 90.4758 2.59876C93.7676 4.19326 96.5194 6.32782 98.7311 9.00244C100.943 11.6771 102.589 14.7632 103.669 18.2608C104.8 21.7069 105.366 25.3074 105.366 29.0622C105.366 32.8684 104.8 36.4946 103.669 39.9407C102.589 43.3869 100.943 46.4473 98.7311 49.1219C96.5194 51.7965 93.7676 53.9311 90.4758 55.5256C87.1839 57.0686 83.352 57.8402 78.98 57.8402ZM78.98 51.7451C82.3233 51.7451 85.2037 51.1021 87.6211 49.8163C90.0386 48.479 92.0188 46.7302 93.5619 44.5699C95.1049 42.4096 96.2365 39.9921 96.9566 37.3175C97.6767 34.5914 98.0367 31.8397 98.0367 29.0622C98.0367 26.2847 97.6767 23.5586 96.9566 20.884C96.2365 18.1579 95.1049 15.7147 93.5619 13.5545C92.0188 11.3942 90.0386 9.6711 87.6211 8.38523C85.2037 7.04791 82.3233 6.37925 78.98 6.37925C75.6367 6.37925 72.7563 7.04791 70.3389 8.38523C67.9214 9.6711 65.9412 11.3942 64.3981 13.5545C62.8551 15.7147 61.7235 18.1579 61.0034 20.884C60.2833 23.5586 59.9233 26.2847 59.9233 29.0622C59.9233 31.8397 60.2833 34.5914 61.0034 37.3175C61.7235 39.9921 62.8551 42.4096 64.3981 44.5699C65.9412 46.7302 67.9214 48.479 70.3389 49.8163C72.7563 51.1021 75.6367 51.7451 78.98 51.7451Z" fill="#252525"/>
<path d="M0 1.51855H7.32951V25.2045H36.339V1.51855H43.6685V56.6056H36.339V31.3767H7.32951V56.6056H0V1.51855Z" fill="#252525"/>
</svg>
