<svg width="370" height="125" viewBox="0 0 370 125" fill="none" xmlns="http://www.w3.org/2000/svg">
<path d="M370 89.5312V95.6124L359.496 103.905V97.9619L366.406 92.5718L359.496 87.1816V81.2386L370 89.5312ZM356.455 89.5312V95.6124L345.951 103.905V97.9619L352.862 92.5718L345.951 87.1816V81.2386L356.455 89.5312Z" fill="white"/>
<path d="M296.977 62.4423H303.541V83.6574H329.525V62.4423H336.09V111.783H329.525V89.1857H303.541V111.783H296.977V62.4423Z" fill="white"/>
<path d="M247.107 62.4423H253.672V83.6574H279.656V62.4423H286.22V111.783H279.656V89.1857H253.672V111.783H247.107V62.4423Z" fill="white"/>
<path d="M218.314 89.8076H238.286V95.336H218.314V89.8076Z" fill="white"/>
<path d="M175.1 62.4423H181.665V82.5517H197.075C201.958 82.5517 205.69 83.8186 208.27 86.3524C210.896 88.8402 212.209 92.4567 212.209 97.2018C212.209 101.901 210.896 105.517 208.27 108.051C205.69 110.539 201.958 111.783 197.075 111.783H175.1V62.4423ZM194.863 106.254C202.05 106.254 205.644 103.237 205.644 97.2018C205.644 91.0746 202.05 88.0109 194.863 88.0109H181.665V106.254H194.863Z" fill="white"/>
<path d="M125.904 62.4423H164.326V111.783H157.761V67.9707H132.469V111.783H125.904V62.4423Z" fill="white"/>
<path d="M83.6582 62.4423H117.727V67.9707H90.2231V83.6574H115.861V89.1857H90.2231V106.254H117.934V111.783H83.6582V62.4423Z" fill="white"/>
<path d="M70.7565 111.783H33.9238V62.4423H40.4887V106.254H65.159V62.4423H71.7239V106.254H77.0449V124.014H70.7565V111.783Z" fill="white"/>
<path d="M0 95.6124V89.5312L10.5039 81.2386V87.1816L3.59343 92.5718L10.5039 97.9619V103.905L0 95.6124ZM13.5444 95.6124V89.5312L24.0483 81.2386V87.1816L17.1379 92.5718L24.0483 97.9619V103.905L13.5444 95.6124Z" fill="white"/>
<path d="M128.64 51.621C124.724 51.621 121.291 50.9299 118.343 49.5478C115.395 48.1197 112.93 46.2078 110.949 43.8122C108.968 41.4166 107.471 38.6754 106.457 35.5888C105.49 32.5021 105.006 29.2542 105.006 25.845C105.006 22.482 105.49 19.2571 106.457 16.1704C107.471 13.0377 108.968 10.2735 110.949 7.8779C112.93 5.48228 115.395 3.57039 118.343 2.14223C121.291 0.714078 124.724 0 128.64 0C132.555 0 135.988 0.714078 138.936 2.14223C141.885 3.57039 144.349 5.48228 146.33 7.8779C148.311 10.2735 149.785 13.0377 150.753 16.1704C151.766 19.2571 152.273 22.482 152.273 25.845C152.273 29.2542 151.766 32.5021 150.753 35.5888C149.785 38.6754 148.311 41.4166 146.33 43.8122C144.349 46.2078 141.885 48.1197 138.936 49.5478C135.988 50.9299 132.555 51.621 128.64 51.621ZM128.64 46.1617C131.634 46.1617 134.214 45.5859 136.379 44.4341C138.545 43.2363 140.318 41.6699 141.7 39.735C143.082 37.8001 144.096 35.6348 144.741 33.2392C145.386 30.7975 145.708 28.3328 145.708 25.845C145.708 23.3573 145.386 20.9156 144.741 18.52C144.096 16.0783 143.082 13.89 141.7 11.9551C140.318 10.0201 138.545 8.4768 136.379 7.32506C134.214 6.12725 131.634 5.52835 128.64 5.52835C125.645 5.52835 123.065 6.12725 120.9 7.32506C118.735 8.4768 116.961 10.0201 115.579 11.9551C114.197 13.89 113.183 16.0783 112.538 18.52C111.893 20.9156 111.571 23.3573 111.571 25.845C111.571 28.3328 111.893 30.7975 112.538 33.2392C113.183 35.6348 114.197 37.8001 115.579 39.735C116.961 41.6699 118.735 43.2363 120.9 44.4341C123.065 45.5859 125.645 46.1617 128.64 46.1617Z" fill="white"/>
<path d="M76.1356 51.621C72.2197 51.621 68.7875 50.9299 65.8391 49.5478C62.8906 48.1197 60.4259 46.2078 58.4449 43.8122C56.4639 41.4166 54.9667 38.6754 53.9531 35.5888C52.9857 32.5021 52.502 29.2542 52.502 25.845C52.502 22.482 52.9857 19.2571 53.9531 16.1704C54.9667 13.0377 56.4639 10.2735 58.4449 7.8779C60.4259 5.48228 62.8906 3.57039 65.8391 2.14223C68.7875 0.714078 72.2197 0 76.1356 0C80.0516 0 83.4837 0.714078 86.4322 2.14223C89.3806 3.57039 91.8454 5.48228 93.8264 7.8779C95.8074 10.2735 97.2816 13.0377 98.2491 16.1704C99.2626 19.2571 99.7693 22.482 99.7693 25.845C99.7693 29.2542 99.2626 32.5021 98.2491 35.5888C97.2816 38.6754 95.8074 41.4166 93.8264 43.8122C91.8454 46.2078 89.3806 48.1197 86.4322 49.5478C83.4837 50.9299 80.0516 51.621 76.1356 51.621ZM76.1356 46.1617C79.1302 46.1617 81.7101 45.5859 83.8753 44.4341C86.0406 43.2363 87.8143 41.6699 89.1964 39.735C90.5785 37.8001 91.592 35.6348 92.237 33.2392C92.8819 30.7975 93.2044 28.3328 93.2044 25.845C93.2044 23.3573 92.8819 20.9156 92.237 18.52C91.592 16.0783 90.5785 13.89 89.1964 11.9551C87.8143 10.0201 86.0406 8.4768 83.8753 7.32506C81.7101 6.12725 79.1302 5.52835 76.1356 5.52835C73.1411 5.52835 70.5612 6.12725 68.396 7.32506C66.2307 8.4768 64.457 10.0201 63.0749 11.9551C61.6928 13.89 60.6793 16.0783 60.0343 18.52C59.3894 20.9156 59.0669 23.3573 59.0669 25.845C59.0669 28.3328 59.3894 30.7975 60.0343 33.2392C60.6793 35.6348 61.6928 37.8001 63.0749 39.735C64.457 41.6699 66.2307 43.2363 68.396 44.4341C70.5612 45.5859 73.1411 46.1617 76.1356 46.1617Z" fill="white"/>
<path d="M23.6337 51.621C19.7178 51.621 16.2856 50.9299 13.3371 49.5478C10.3887 48.1197 7.92397 46.2078 5.94298 43.8122C3.96198 41.4166 2.46472 38.6754 1.45119 35.5888C0.483731 32.5021 0 29.2542 0 25.845C0 22.482 0.483731 19.2571 1.45119 16.1704C2.46472 13.0377 3.96198 10.2735 5.94298 7.8779C7.92397 5.48228 10.3887 3.57039 13.3371 2.14223C16.2856 0.714078 19.7178 0 23.6337 0C27.5496 0 30.9818 0.714078 33.9302 2.14223C36.8787 3.57039 39.3434 5.48228 41.3244 7.8779C43.3054 10.2735 44.7796 13.0377 45.7471 16.1704C46.7606 19.2571 47.2674 22.482 47.2674 25.845C47.2674 29.2542 46.7606 32.5021 45.7471 35.5888C44.7796 38.6754 43.3054 41.4166 41.3244 43.8122C39.3434 46.2078 36.8787 48.1197 33.9302 49.5478C30.9818 50.9299 27.5496 51.621 23.6337 51.621ZM23.6337 46.1617C26.6282 46.1617 29.2081 45.5859 31.3734 44.4341C33.5387 43.2363 35.3123 41.6699 36.6944 39.735C38.0765 37.8001 39.09 35.6348 39.735 33.2392C40.38 30.7975 40.7025 28.3328 40.7025 25.845C40.7025 23.3573 40.38 20.9156 39.735 18.52C39.09 16.0783 38.0765 13.89 36.6944 11.9551C35.3123 10.0201 33.5387 8.4768 31.3734 7.32506C29.2081 6.12725 26.6282 5.52835 23.6337 5.52835C20.6392 5.52835 18.0593 6.12725 15.894 7.32506C13.7287 8.4768 11.9551 10.0201 10.573 11.9551C9.19088 13.89 8.17735 16.0783 7.53237 18.52C6.8874 20.9156 6.56491 23.3573 6.56491 25.845C6.56491 28.3328 6.8874 30.7975 7.53237 33.2392C8.17735 35.6348 9.19088 37.8001 10.573 39.735C11.9551 41.6699 13.7287 43.2363 15.894 44.4341C18.0593 45.5859 20.6392 46.1617 23.6337 46.1617Z" fill="white"/>
</svg>
