<svg width="1260" height="145" viewBox="0 0 1260 145" fill="none" xmlns="http://www.w3.org/2000/svg">
<path d="M1260 65.0368V79.03L1235.83 98.1117V84.4365L1251.73 72.0334L1235.83 59.6303V45.9551L1260 65.0368ZM1228.83 65.0368V79.03L1204.66 98.1117V84.4365L1220.56 72.0334L1204.66 59.6303V45.9551L1228.83 65.0368Z" fill="white"/>
<path d="M1091.97 2.70331H1107.08V51.5206H1166.87V2.70331H1181.97V116.239H1166.87V64.2417H1107.08V116.239H1091.97V2.70331Z" fill="white"/>
<path d="M977.215 2.70331H992.321V51.5206H1052.11V2.70331H1067.22V116.239H1052.11V64.2417H992.321V116.239H977.215V2.70331Z" fill="white"/>
<path d="M910.959 65.6729H956.914V78.394H910.959V65.6729Z" fill="white"/>
<path d="M811.524 2.70331H826.631V48.9764H862.091C873.328 48.9764 881.915 51.8917 887.851 57.7222C893.894 63.4467 896.915 71.7684 896.915 82.6874C896.915 93.5003 893.894 101.822 887.851 107.653C881.915 113.377 873.328 116.239 862.091 116.239H811.524V2.70331ZM857.002 103.518C873.54 103.518 881.809 96.5746 881.809 82.6874C881.809 68.5881 873.54 61.5385 857.002 61.5385H826.631V103.518H857.002Z" fill="white"/>
<path d="M698.319 2.70331H786.731V116.239H771.625V15.4244H713.426V116.239H698.319V2.70331Z" fill="white"/>
<path d="M601.11 2.70331H679.504V15.4244H616.217V51.5206H675.211V64.2417H616.217V103.518H679.981V116.239H601.11V2.70331Z" fill="white"/>
<path d="M571.419 116.239H486.664V2.70331H501.77V103.518H558.538V2.70331H573.645V103.518H585.889V144.385H571.419V116.239Z" fill="white"/>
<path d="M408.604 79.03V65.0368L432.775 45.9551V59.6303L416.873 72.0334L432.775 84.4365V98.1117L408.604 79.03ZM439.771 79.03V65.0368L463.941 45.9551V59.6303L448.04 72.0334L463.941 84.4365V98.1117L439.771 79.03Z" fill="white"/>
<path d="M296.01 118.783C286.999 118.783 279.101 117.193 272.317 114.013C265.532 110.727 259.861 106.327 255.302 100.815C250.744 95.3024 247.298 88.9949 244.966 81.8922C242.74 74.7896 241.627 67.3159 241.627 59.4713C241.627 51.7326 242.74 44.3119 244.966 37.2093C247.298 30.0006 250.744 23.6401 255.302 18.1276C259.861 12.6151 265.532 8.21572 272.317 4.92943C279.101 1.64314 286.999 0 296.01 0C305.021 0 312.918 1.64314 319.703 4.92943C326.487 8.21572 332.159 12.6151 336.717 18.1276C341.276 23.6401 344.668 30.0006 346.894 37.2093C349.226 44.3119 350.393 51.7326 350.393 59.4713C350.393 67.3159 349.226 74.7896 346.894 81.8922C344.668 88.9949 341.276 95.3024 336.717 100.815C332.159 106.327 326.487 110.727 319.703 114.013C312.918 117.193 305.021 118.783 296.01 118.783ZM296.01 106.221C302.9 106.221 308.837 104.896 313.819 102.246C318.802 99.4898 322.883 95.8855 326.063 91.4331C329.244 86.9807 331.576 81.9982 333.06 76.4858C334.544 70.8673 335.286 65.1958 335.286 59.4713C335.286 53.7467 334.544 48.1282 333.06 42.6158C331.576 36.9973 329.244 31.9618 326.063 27.5094C322.883 23.057 318.802 19.5057 313.819 16.8555C308.837 14.0992 302.9 12.7211 296.01 12.7211C289.119 12.7211 283.183 14.0992 278.2 16.8555C273.218 19.5057 269.136 23.057 265.956 27.5094C262.776 31.9618 260.444 36.9973 258.959 42.6158C257.475 48.1282 256.733 53.7467 256.733 59.4713C256.733 65.1958 257.475 70.8673 258.959 76.4858C260.444 81.9982 262.776 86.9807 265.956 91.4331C269.136 95.8855 273.218 99.4898 278.2 102.246C283.183 104.896 289.119 106.221 296.01 106.221Z" fill="white"/>
<path d="M175.196 118.783C166.185 118.783 158.288 117.193 151.503 114.013C144.719 110.727 139.047 106.327 134.489 100.815C129.93 95.3024 126.485 88.9949 124.153 81.8922C121.927 74.7896 120.813 67.3159 120.813 59.4713C120.813 51.7326 121.927 44.3119 124.153 37.2093C126.485 30.0006 129.93 23.6401 134.489 18.1276C139.047 12.6151 144.719 8.21572 151.503 4.92943C158.288 1.64314 166.185 0 175.196 0C184.207 0 192.105 1.64314 198.889 4.92943C205.674 8.21572 211.345 12.6151 215.904 18.1276C220.462 23.6401 223.855 30.0006 226.081 37.2093C228.413 44.3119 229.579 51.7326 229.579 59.4713C229.579 67.3159 228.413 74.7896 226.081 81.8922C223.855 88.9949 220.462 95.3024 215.904 100.815C211.345 106.327 205.674 110.727 198.889 114.013C192.105 117.193 184.207 118.783 175.196 118.783ZM175.196 106.221C182.087 106.221 188.023 104.896 193.006 102.246C197.988 99.4898 202.07 95.8855 205.25 91.4331C208.43 86.9807 210.762 81.9982 212.247 76.4858C213.731 70.8673 214.473 65.1958 214.473 59.4713C214.473 53.7467 213.731 48.1282 212.247 42.6158C210.762 36.9973 208.43 31.9618 205.25 27.5094C202.07 23.057 197.988 19.5057 193.006 16.8555C188.023 14.0992 182.087 12.7211 175.196 12.7211C168.306 12.7211 162.369 14.0992 157.387 16.8555C152.404 19.5057 148.323 23.057 145.143 27.5094C141.962 31.9618 139.63 36.9973 138.146 42.6158C136.662 48.1282 135.92 53.7467 135.92 59.4713C135.92 65.1958 136.662 70.8673 138.146 76.4858C139.63 81.9982 141.962 86.9807 145.143 91.4331C148.323 95.8855 152.404 99.4898 157.387 102.246C162.369 104.896 168.306 106.221 175.196 106.221Z" fill="white"/>
<path d="M54.3828 118.783C45.372 118.783 37.4743 117.193 30.6897 114.013C23.9051 110.727 18.2336 106.327 13.6752 100.815C9.11681 95.3024 5.6715 88.9949 3.3393 81.8922C1.1131 74.7896 0 67.3159 0 59.4713C0 51.7326 1.1131 44.3119 3.3393 37.2093C5.6715 30.0006 9.11681 23.6401 13.6752 18.1276C18.2336 12.6151 23.9051 8.21572 30.6897 4.92943C37.4743 1.64314 45.372 0 54.3828 0C63.3936 0 71.2913 1.64314 78.0759 4.92943C84.8605 8.21572 90.532 12.6151 95.0904 18.1276C99.6488 23.6401 103.041 30.0006 105.267 37.2093C107.6 44.3119 108.766 51.7326 108.766 59.4713C108.766 67.3159 107.6 74.7896 105.267 81.8922C103.041 88.9949 99.6488 95.3024 95.0904 100.815C90.532 106.327 84.8605 110.727 78.0759 114.013C71.2913 117.193 63.3936 118.783 54.3828 118.783ZM54.3828 106.221C61.2734 106.221 67.2099 104.896 72.1924 102.246C77.1748 99.4898 81.2562 95.8855 84.4365 91.4331C87.6167 86.9807 89.949 81.9982 91.4331 76.4858C92.9172 70.8673 93.6593 65.1958 93.6593 59.4713C93.6593 53.7467 92.9172 48.1282 91.4331 42.6158C89.949 36.9973 87.6167 31.9618 84.4365 27.5094C81.2562 23.057 77.1748 19.5057 72.1924 16.8555C67.2099 14.0992 61.2734 12.7211 54.3828 12.7211C47.4922 12.7211 41.5557 14.0992 36.5732 16.8555C31.5908 19.5057 27.5094 23.057 24.3292 27.5094C21.1489 31.9618 18.8167 36.9973 17.3325 42.6158C15.8484 48.1282 15.1063 53.7467 15.1063 59.4713C15.1063 65.1958 15.8484 70.8673 17.3325 76.4858C18.8167 81.9982 21.1489 86.9807 24.3292 91.4331C27.5094 95.8855 31.5908 99.4898 36.5732 102.246C41.5557 104.896 47.4922 106.221 54.3828 106.221Z" fill="white"/>
</svg>
