<svg width="372" height="116" viewBox="0 0 372 116" fill="none" xmlns="http://www.w3.org/2000/svg">
<path d="M348.985 82.1012C345.873 81.6447 343.32 80.3167 341.328 78.1172C339.336 75.9177 338.34 72.9296 338.34 69.1531C338.34 64.9201 339.565 61.7245 342.013 59.5665C344.503 57.4085 347.948 56.3295 352.347 56.3295H371.395V100.776H365.544V82.4747H355.646L341.889 100.776H334.543L348.985 82.1012ZM365.544 77.4947V61.3095H354.339C351.102 61.3095 348.612 61.932 346.869 63.177C345.126 64.422 344.254 66.4141 344.254 69.1531C344.254 71.8921 345.105 73.9671 346.806 75.3782C348.549 76.7892 351.06 77.4947 354.339 77.4947H365.544Z" fill="white"/>
<path d="M294.9 56.3295H300.814V93.9911L323.162 56.3295H330.632V100.776H324.718V62.9903L302.308 100.776H294.9V56.3295Z" fill="white"/>
<path d="M284.25 100.776H251.07V56.3295H256.984V95.7964H279.208V56.3295H285.121V95.7964H289.915V111.795H284.25V100.776Z" fill="white"/>
<path d="M210.521 56.3295H216.435V77.8682L238.97 56.3295H246.627L225.462 76.1252L247.374 100.776H239.904L220.98 79.7357L216.435 83.9687V100.776H210.521V56.3295Z" fill="white"/>
<path d="M179.912 101.461C179.206 101.461 178.501 101.378 177.795 101.212C177.131 101.088 176.571 100.922 176.115 100.714V95.4229C176.654 95.6719 177.194 95.8794 177.733 96.0454C178.314 96.1699 178.957 96.2321 179.663 96.2321C180.783 96.2321 181.842 95.8379 182.838 95.0494C183.834 94.2608 184.705 93.0781 185.452 91.5011L186.199 89.9448L168.645 56.3295H175.056L189.312 84.1555L200.392 56.3295H206.68L191.74 90.6918C190.868 92.7668 189.976 94.4891 189.063 95.8586C188.15 97.2281 187.216 98.3279 186.261 99.1579C185.307 99.9879 184.29 100.569 183.211 100.901C182.174 101.274 181.074 101.461 179.912 101.461Z" fill="white"/>
<path d="M124.765 95.7964H129.122C129.952 94.3023 130.72 92.4348 131.425 90.1938C132.131 87.9528 132.733 85.5043 133.231 82.8482C133.77 80.1507 134.185 77.3079 134.476 74.3199C134.766 71.2904 134.912 68.2401 134.912 65.1691V56.3295H163.547V95.7964H168.465V111.795H162.8V100.776H130.429V111.795H124.765V95.7964ZM157.633 95.7964V61.3095H140.639V67.7213C140.639 70.4604 140.493 73.2201 140.203 76.0007C139.954 78.7397 139.58 81.3542 139.082 83.8442C138.626 86.2928 138.086 88.5545 137.464 90.6296C136.883 92.7046 136.26 94.4268 135.596 95.7964H157.633Z" fill="white"/>
<path d="M43.3447 56.3295H62.8292C67.3527 56.3295 70.7557 57.4915 73.0383 59.8155C75.3208 62.098 76.4621 65.3143 76.4621 69.4643C76.4621 73.6144 75.3208 76.8514 73.0383 79.1754C70.7557 81.458 67.3527 82.5992 62.8292 82.5992H49.2585V100.776H43.3447V56.3295ZM60.8372 77.6192C64.1987 77.6192 66.6472 76.9344 68.1827 75.5649C69.7598 74.1539 70.5482 72.1204 70.5482 69.4643C70.5482 66.8083 69.7598 64.7956 68.1827 63.426C66.6472 62.015 64.1987 61.3095 60.8372 61.3095H49.2585V77.6192H60.8372Z" fill="white"/>
<path d="M0 56.3295H34.6113V100.776H28.6975V61.3095H5.91381V100.776H0V56.3295Z" fill="white"/>
<path d="M157.457 0H163.993L181.361 44.4469H174.825L169.969 31.0631H151.17L146.19 44.4469H140.151L157.457 0ZM168.102 26.083L160.694 5.35355H160.57L153.037 26.083H168.102Z" fill="white"/>
<path d="M83.4326 0H89.3464V39.4669H107.088V0H113.002V39.4669H130.743V0H136.657V44.4469H83.4326V0Z" fill="white"/>
<path d="M56.1172 0H62.6535L80.0214 44.4469H73.4851L68.6296 31.0631H49.8299L44.8498 44.4469H38.8115L56.1172 0ZM66.7621 26.083L59.3542 5.35355H59.2297L51.6974 26.083H66.7621Z" fill="white"/>
<path d="M0.0878906 0H6.0017V19.1109H29.4079V0H35.3217V44.4469H29.4079V24.091H6.0017V44.4469H0.0878906V0Z" fill="white"/>
<path d="M101.845 71.614L101.845 80.7891M101.845 80.7891L106.433 76.2015M101.845 80.7891L97.2574 76.2015" stroke="white" stroke-width="2" stroke-linecap="square"/>
<path d="M102.226 54.9558L120.626 65.5787L120.626 86.8243L102.226 97.4472L83.827 86.8243L83.827 65.5787L102.226 54.9558Z" stroke="white" stroke-width="3"/>
</svg>
