<svg width="1258" height="130" viewBox="0 0 1258 130" fill="none" xmlns="http://www.w3.org/2000/svg">
<path d="M1208.75 64.4282C1201.91 63.425 1196.3 60.5065 1191.92 55.6727C1187.55 50.839 1185.36 44.2724 1185.36 35.973C1185.36 26.6703 1188.05 19.6477 1193.43 14.9052C1198.9 10.1626 1206.47 7.79138 1216.14 7.79138H1258V105.469H1245.14V65.249H1223.39L1193.15 105.469H1177.01L1208.75 64.4282ZM1245.14 54.3047V18.7357H1220.52C1213.4 18.7357 1207.93 20.1037 1204.1 22.8398C1200.27 25.5759 1198.35 29.9536 1198.35 35.973C1198.35 41.9924 1200.22 46.5525 1203.96 49.6534C1207.79 52.7543 1213.31 54.3047 1220.52 54.3047H1245.14Z" fill="white"/>
<path d="M1089.89 7.79138H1102.89V90.5577L1152 7.79138H1168.41V105.469H1155.42V22.4294L1106.17 105.469H1089.89V7.79138Z" fill="white"/>
<path d="M1066.48 105.469H993.565V7.79138H1006.56V94.525H1055.4V7.79138H1068.4V94.525H1078.93V129.684H1066.48V105.469Z" fill="white"/>
<path d="M904.455 7.79138H917.451V55.1255L966.974 7.79138H983.801L937.288 51.295L985.443 105.469H969.027L927.438 59.2296L917.451 68.5323V105.469H904.455V7.79138Z" fill="white"/>
<path d="M837.188 106.974C835.638 106.974 834.087 106.792 832.537 106.427C831.078 106.153 829.846 105.789 828.843 105.333V93.7042C830.029 94.2514 831.214 94.7075 832.4 95.0723C833.677 95.3459 835.091 95.4827 836.641 95.4827C839.104 95.4827 841.429 94.6162 843.618 92.8834C845.807 91.1506 847.722 88.5513 849.364 85.0856L851.005 81.6655L812.427 7.79138H826.518L857.846 68.9427L882.197 7.79138H896.014L863.181 83.3071C861.266 87.8673 859.305 91.6522 857.298 94.6619C855.292 97.6715 853.24 100.088 851.142 101.912C849.045 103.737 846.81 105.013 844.439 105.743C842.159 106.564 839.742 106.974 837.188 106.974Z" fill="white"/>
<path d="M715.995 94.525H725.571C727.395 91.2418 729.082 87.1376 730.633 82.2127C732.183 77.2878 733.506 71.9068 734.6 66.0698C735.786 60.1417 736.698 53.8943 737.336 47.3277C737.974 40.6699 738.294 33.9665 738.294 27.2175V7.79138H801.223V94.525H812.031V129.684H799.582V105.469H728.444V129.684H715.995V94.525ZM788.227 94.525V18.7357H750.88V32.8265C750.88 38.8459 750.56 44.9108 749.922 51.0214C749.375 57.0408 748.554 62.7865 747.46 68.2587C746.456 73.6397 745.271 78.6102 743.903 83.1703C742.626 87.7305 741.258 91.5154 739.799 94.525H788.227Z" fill="white"/>
<path d="M537.062 7.79138H579.882C589.823 7.79138 597.302 10.3451 602.318 15.4524C607.334 20.4685 609.842 27.5367 609.842 36.657C609.842 45.7773 607.334 52.8911 602.318 57.9984C597.302 63.0146 589.823 65.5226 579.882 65.5226H550.059V105.469H537.062V7.79138ZM575.504 54.5783C582.892 54.5783 588.273 53.0735 591.647 50.0638C595.113 46.9629 596.846 42.494 596.846 36.657C596.846 30.82 595.113 26.3967 591.647 23.387C588.273 20.2861 582.892 18.7357 575.504 18.7357H550.059V54.5783H575.504Z" fill="white"/>
<path d="M441.807 7.79138H517.87V105.469H504.873V18.7357H454.803V105.469H441.807V7.79138Z" fill="white"/>
<path d="M345.839 7.79138H360.203L398.371 105.469H384.007L373.336 76.0565H332.021L321.077 105.469H307.807L345.839 7.79138ZM369.232 65.1122L352.952 19.5565H352.679L336.126 65.1122H369.232Z" fill="white"/>
<path d="M183.162 7.79138H196.158V94.525H235.148V7.79138H248.144V94.525H287.133V7.79138H300.129V105.469H183.162V7.79138Z" fill="white"/>
<path d="M123.131 7.79138H137.495L175.664 105.469H161.299L150.629 76.0565H109.314L98.3696 105.469H85.0996L123.131 7.79138ZM146.525 65.1122L130.245 19.5565H129.971L113.418 65.1122H146.525Z" fill="white"/>
<path d="M0 7.79138H12.9964V49.7902H64.4346V7.79138H77.431V105.469H64.4346V60.7345H12.9964V105.469H0V7.79138Z" fill="white"/>
<mask id="mask0_5001_453" style="mask-type:alpha" maskUnits="userSpaceOnUse" x="621" y="0" width="90" height="103">
<rect x="621" width="90" height="103" fill="#D9D9D9"/>
</mask>
<g mask="url(#mask0_5001_453)">
<path d="M665.622 41.3809L665.622 61.5446M665.622 61.5446L675.704 51.4628M665.622 61.5446L655.54 51.4628" stroke="white" stroke-width="4" stroke-linecap="square"/>
<path d="M666.463 4.43027L707.194 27.9465L707.194 74.9789L666.463 98.4952L625.731 74.9789L625.731 27.9465L666.463 4.43027Z" stroke="white" stroke-width="6"/>
</g>
</svg>
