<svg width="1260" height="144" viewBox="0 0 1260 144" fill="none" xmlns="http://www.w3.org/2000/svg">
<path d="M1168.68 2.69946H1183.8V98.7637L1240.91 2.69946H1260V116.071H1244.89V19.6893L1187.61 116.071H1168.68V2.69946Z" fill="#252525"/>
<path d="M1062.27 2.69946H1150.72V116.071H1135.61V15.4022H1077.38V116.071H1062.27V2.69946Z" fill="#252525"/>
<path d="M971.852 2.69946H1050.28V15.4022H986.965V51.4461H1045.99V64.1488H986.965V103.368H1050.76V116.071H971.852V2.69946Z" fill="#252525"/>
<path d="M948.989 116.071H864.193V2.69946H879.307V103.368H936.102V2.69946H951.216V103.368H963.466V144.176H948.989V116.071Z" fill="#252525"/>
<path d="M736.343 2.69946H814.774V15.4022H751.456V51.4461H810.479V64.1488H751.456V103.368H815.252V116.071H736.343V2.69946Z" fill="#252525"/>
<path d="M604.447 2.69946H619.561V48.9056H653.447C664.69 48.9056 673.28 51.8166 679.22 57.6387C685.265 63.3549 688.288 71.6646 688.288 82.5677C688.288 93.365 685.265 101.675 679.22 107.497C673.28 113.213 664.69 116.071 653.447 116.071H604.447V2.69946ZM648.356 103.368C664.902 103.368 673.174 96.4349 673.174 82.5677C673.174 68.4889 664.902 61.4495 648.356 61.4495H619.561V103.368H648.356ZM703.243 2.69946H718.356V116.071H703.243V2.69946Z" fill="#252525"/>
<path d="M496.478 2.69946H511.591V51.4461H571.409V2.69946H586.523V116.071H571.409V64.1488H511.591V116.071H496.478V2.69946Z" fill="#252525"/>
<path d="M399.384 2.69946H414.497V48.9056H449.975C461.217 48.9056 469.808 51.8166 475.747 57.6387C481.793 63.3549 484.815 71.6646 484.815 82.5677C484.815 93.365 481.793 101.675 475.747 107.497C469.808 113.213 461.217 116.071 449.975 116.071H399.384V2.69946ZM444.884 103.368C461.429 103.368 469.702 96.4349 469.702 82.5677C469.702 68.4889 461.429 61.4495 444.884 61.4495H414.497V103.368H444.884Z" fill="#252525"/>
<path d="M292.774 117.659C291.183 117.659 289.486 117.5 287.683 117.183C285.986 116.971 284.607 116.6 283.547 116.071V102.416C285.562 103.051 287.736 103.368 290.07 103.368C294.842 103.368 298.554 100.934 301.206 96.0643C303.964 91.0891 305.979 84.1556 307.251 75.2637C308.524 66.3718 309.32 55.7862 309.638 43.5069C309.956 31.1218 310.115 17.5193 310.115 2.69946H381.388V116.071H366.274V15.4022H324.91C324.804 24.3999 324.592 33.186 324.274 41.7603C324.062 50.2288 323.585 58.2738 322.842 65.8954C322.206 73.4112 321.198 80.3447 319.82 86.6961C318.441 93.0475 316.585 98.552 314.251 103.21C311.918 107.761 309.001 111.308 305.501 113.848C302.001 116.389 297.759 117.659 292.774 117.659Z" fill="#252525"/>
<path d="M228.911 2.69946H245.615L290.002 116.071H273.297L260.888 81.9326H212.843L200.115 116.071H184.684L228.911 2.69946ZM256.115 69.2299L237.183 16.3549H236.865L217.615 69.2299H256.115Z" fill="#252525"/>
<path d="M139.31 15.4022H101.446V2.69946H192.287V15.4022H154.423V116.071H139.31V15.4022Z" fill="#252525"/>
<path d="M52.4999 118.612C43.6969 118.612 36.0075 117.13 29.4318 114.166C22.856 111.096 17.3939 106.914 13.0454 101.622C8.69695 96.3289 5.40908 90.0834 3.18181 82.8852C1.0606 75.687 0 67.9595 0 59.7027C0 51.446 1.16666 43.7185 3.49999 36.5203C5.83332 29.2162 9.22725 22.8649 13.6818 17.4662C18.2424 12.0676 23.8636 7.83333 30.5454 4.76351C37.2272 1.58784 44.9696 0 53.7726 0C59.712 0 65.3332 0.793918 70.6362 2.38175C75.9392 3.96959 80.6589 6.29842 84.7953 9.36824C88.9316 12.4381 92.3786 16.3018 95.1362 20.9595C97.8937 25.5113 99.6967 30.8041 100.545 36.8378H85.4316C83.7347 28.7928 79.9695 22.759 74.1362 18.7365C68.4089 14.714 61.568 12.7027 53.6135 12.7027C46.8257 12.7027 40.9923 13.973 36.1136 16.5135C31.3408 19.0541 27.3636 22.4944 24.1818 26.8345C21.106 31.0687 18.8257 35.9381 17.3409 41.4426C15.856 46.9471 15.1136 52.6633 15.1136 58.5912C15.1136 65.0484 15.856 71.1881 17.3409 77.0101C18.8257 82.7264 21.106 87.7545 24.1818 92.0946C27.3636 96.3288 31.3939 99.7162 36.2726 102.257C41.1514 104.797 46.9847 106.068 53.7726 106.068C58.6514 106.068 63.0529 105.274 66.9771 103.686C70.9014 101.992 74.2423 99.7162 76.9998 96.8581C79.8635 93.8942 82.0907 90.4009 83.6816 86.3784C85.2725 82.3559 86.2271 78.0158 86.5453 73.3581H101.659C100.174 87.7545 95.2422 98.9223 86.8634 106.862C78.5907 114.695 67.1362 118.612 52.4999 118.612Z" fill="#252525"/>
</svg>
