<svg width="370" height="126" viewBox="0 0 370 126" fill="none" xmlns="http://www.w3.org/2000/svg">
<path d="M138.191 61.2678H145.051V104.866L170.971 61.2678H179.636V112.721H172.777V68.9786L146.784 112.721H138.191V61.2678Z" fill="#252525"/>
<path d="M89.8945 61.2678H130.039V112.721H123.18V67.0329H96.7538V112.721H89.8945V61.2678Z" fill="#252525"/>
<path d="M48.8604 61.2678H84.4564V67.0329H55.7196V83.3914H82.5068V89.1565H55.7196V106.956H84.673V112.721H48.8604V61.2678Z" fill="#252525"/>
<path d="M38.4841 112.721H0V61.2678H6.85927V106.956H32.6357V61.2678H39.495V106.956H45.0546V125.477H38.4841V112.721Z" fill="#252525"/>
<path d="M334.188 1.22339H369.784V6.98848H341.047V23.3469H367.834V29.112H341.047V46.9118H370V52.6768H334.188V1.22339Z" fill="#252525"/>
<path d="M274.327 1.22339H281.186V22.1939H296.566C301.668 22.1939 305.567 23.5151 308.262 26.1574C311.006 28.7517 312.378 32.523 312.378 37.4714C312.378 42.3717 311.006 46.1431 308.262 48.7854C305.567 51.3797 301.668 52.6768 296.566 52.6768H274.327V1.22339ZM294.255 46.9118C301.764 46.9118 305.519 43.765 305.519 37.4714C305.519 31.0818 301.764 27.8869 294.255 27.8869H281.186V46.9118H294.255ZM319.165 1.22339H326.024V52.6768H319.165V1.22339Z" fill="#252525"/>
<path d="M225.325 1.22339H232.184V23.3469H259.333V1.22339H266.192V52.6768H259.333V29.112H232.184V52.6768H225.325V1.22339Z" fill="#252525"/>
<path d="M181.259 1.22339H188.118V22.1939H204.219C209.322 22.1939 213.221 23.5151 215.916 26.1574C218.66 28.7517 220.032 32.523 220.032 37.4714C220.032 42.3717 218.66 46.1431 215.916 48.7854C213.221 51.3797 209.322 52.6768 204.219 52.6768H181.259V1.22339ZM201.909 46.9118C209.418 46.9118 213.172 43.765 213.172 37.4714C213.172 31.0818 209.418 27.8869 201.909 27.8869H188.118V46.9118H201.909Z" fill="#252525"/>
<path d="M132.874 53.3975C132.152 53.3975 131.382 53.3254 130.564 53.1813C129.794 53.0852 129.168 52.9171 128.687 52.6768V46.4794C129.601 46.7676 130.588 46.9117 131.647 46.9117C133.813 46.9117 135.498 45.8068 136.701 43.5968C137.953 41.3388 138.867 38.192 139.445 34.1565C140.022 30.1209 140.383 25.3167 140.528 19.7437C140.672 14.1228 140.744 7.94933 140.744 1.22339H173.091V52.6768H166.232V6.98848H147.459C147.411 11.0721 147.315 15.0596 147.17 18.951C147.074 22.7944 146.858 26.4457 146.521 29.9047C146.232 33.3157 145.775 36.4625 145.149 39.3451C144.523 42.2276 143.681 44.7258 142.622 46.8397C141.563 48.9055 140.239 50.5149 138.651 51.668C137.062 52.821 135.137 53.3975 132.874 53.3975Z" fill="#252525"/>
<path d="M103.89 1.22339H111.471L131.616 52.6768H124.034L118.403 37.1832H96.5973L90.8211 52.6768H83.8174L103.89 1.22339ZM116.236 31.4181L107.644 7.42087H107.5L98.7634 31.4181H116.236Z" fill="#252525"/>
<path d="M63.2263 6.98848H46.042V1.22339H87.2698V6.98848H70.0855V52.6768H63.2263V6.98848Z" fill="#252525"/>
<path d="M23.8269 53.8298C19.8317 53.8298 16.3419 53.1573 13.3575 51.8121C10.3731 50.4188 7.89418 48.5212 5.92063 46.119C3.94709 43.7169 2.4549 40.8824 1.44406 37.6155C0.481352 34.3486 0 30.8415 0 27.0942C0 23.3469 0.529488 19.8398 1.58846 16.5729C2.64744 13.258 4.18777 10.3755 6.20945 7.92529C8.27926 5.47513 10.8304 3.55343 13.8629 2.1602C16.8955 0.718927 20.4093 -0.00170898 24.4046 -0.00170898C27.1001 -0.00170898 29.6513 0.358609 32.0581 1.07924C34.4648 1.79988 36.6068 2.85681 38.4841 4.25004C40.3614 5.64328 41.9258 7.39683 43.1773 9.51069C44.4288 11.5765 45.2471 13.9786 45.6322 16.7171H38.7729C38.0028 13.0658 36.294 10.3274 33.6465 8.5018C31.0472 6.67619 27.9425 5.76338 24.3324 5.76338C21.2517 5.76338 18.6043 6.33989 16.39 7.49291C14.224 8.64593 12.4189 10.2073 10.9748 12.177C9.57891 14.0987 8.54401 16.3087 7.87011 18.8069C7.19622 21.3051 6.85927 23.8994 6.85927 26.5898C6.85927 29.5204 7.19622 32.3068 7.87011 34.9492C8.54401 37.5435 9.57891 39.8255 10.9748 41.7952C12.4189 43.7169 14.248 45.2543 16.4623 46.4073C18.6765 47.5603 21.3239 48.1368 24.4046 48.1368C26.6188 48.1368 28.6164 47.7765 30.3974 47.0559C32.1784 46.2872 33.6947 45.2543 34.9462 43.9571C36.2458 42.6119 37.2567 41.0265 37.9787 39.2009C38.7007 37.3753 39.1339 35.4056 39.2784 33.2917H46.1376C45.4637 39.8255 43.2254 44.894 39.4228 48.4971C35.6682 52.0523 30.4696 53.8298 23.8269 53.8298Z" fill="#252525"/>
</svg>
