<svg width="370" height="30" viewBox="0 0 370 30" fill="none" xmlns="http://www.w3.org/2000/svg">
<path d="M353.295 29.6124C352.855 29.6124 352.415 29.5606 351.974 29.457C351.56 29.3793 351.21 29.2757 350.925 29.1462V25.8441C351.262 25.9995 351.599 26.129 351.936 26.2326C352.298 26.3103 352.7 26.3491 353.14 26.3491C353.839 26.3491 354.5 26.1031 355.121 25.611C355.743 25.1189 356.287 24.3808 356.753 23.3966L357.219 22.4254L346.264 1.44727H350.265L359.161 18.8125L366.076 1.44727H370L360.676 22.8916C360.133 24.1865 359.576 25.2613 359.006 26.116C358.436 26.9707 357.853 27.657 357.258 28.175C356.662 28.693 356.028 29.0555 355.354 29.2627C354.707 29.4958 354.02 29.6124 353.295 29.6124Z" fill="#252525"/>
<path d="M323.344 1.44727H327.034V14.8888L341.097 1.44727H345.876L332.667 13.8011L346.342 29.185H341.68L329.87 16.0543L327.034 18.696V29.185H323.344V1.44727Z" fill="#252525"/>
<path d="M296.75 1.44727H306.812C307.407 1.44727 308.042 1.46021 308.715 1.48611C309.415 1.48611 310.101 1.52496 310.774 1.60266C311.448 1.65446 312.082 1.74511 312.678 1.8746C313.274 2.00409 313.766 2.19834 314.154 2.45733C315.061 3.0012 315.825 3.75227 316.446 4.71053C317.094 5.66879 317.417 6.8472 317.417 8.24574C317.417 9.72198 317.055 11.004 316.33 12.0917C315.63 13.1536 314.62 13.9435 313.299 14.4615V14.5392C315.009 14.9018 316.317 15.6787 317.223 16.8701C318.13 18.0614 318.583 19.5118 318.583 21.2211C318.583 22.2312 318.402 23.2153 318.039 24.1736C317.676 25.1319 317.132 25.9865 316.407 26.7376C315.708 27.4628 314.827 28.0584 313.766 28.5246C312.73 28.9649 311.525 29.185 310.153 29.185H296.75V1.44727ZM309.687 26.0772C311.318 26.0772 312.587 25.6369 313.494 24.7563C314.426 23.8758 314.892 22.6585 314.892 21.1046C314.892 20.1981 314.724 19.447 314.387 18.8514C314.051 18.2557 313.597 17.7895 313.027 17.4528C312.484 17.0902 311.849 16.8442 311.124 16.7147C310.399 16.5593 309.648 16.4816 308.871 16.4816H300.441V26.0772H309.687ZM307.822 13.3737C309.92 13.3737 311.422 13.0111 312.328 12.286C313.261 11.5349 313.727 10.4213 313.727 8.94501C313.727 7.98675 313.571 7.22273 313.261 6.65295C312.95 6.05728 312.522 5.60405 311.979 5.29326C311.435 4.98247 310.8 4.78823 310.075 4.71053C309.376 4.60694 308.625 4.55514 307.822 4.55514H300.441V13.3737H307.822Z" fill="#252525"/>
<path d="M276.669 17.5305C274.727 17.2456 273.134 16.4169 271.891 15.0442C270.648 13.6716 270.026 11.8068 270.026 9.45004C270.026 6.80835 270.79 4.81413 272.318 3.46738C273.872 2.12064 276.022 1.44727 278.767 1.44727H290.655V29.185H287.003V17.7636H280.826L272.24 29.185H267.656L276.669 17.5305ZM287.003 14.6557V4.55514H280.01C277.99 4.55514 276.436 4.94362 275.348 5.72059C274.26 6.49756 273.717 7.74071 273.717 9.45004C273.717 11.1594 274.248 12.4543 275.309 13.3349C276.397 14.2154 277.964 14.6557 280.01 14.6557H287.003Z" fill="#252525"/>
<path d="M253.03 1.44727H257.109L267.948 29.185H263.869L260.839 20.8326H249.107L245.999 29.185H242.23L253.03 1.44727ZM259.673 17.7248L255.05 4.78823H254.973L250.272 17.7248H259.673Z" fill="#252525"/>
<path d="M229.945 29.8049C228.287 29.8049 226.759 29.6107 225.361 29.2222C223.962 28.8337 222.745 28.238 221.709 27.4352C220.699 26.6323 219.909 25.6222 219.339 24.405C218.769 23.1877 218.484 21.7374 218.484 20.054H222.02C222.045 21.2971 222.279 22.359 222.719 23.2395C223.185 24.0942 223.781 24.7935 224.506 25.3374C225.257 25.8553 226.125 26.2309 227.109 26.464C228.093 26.6971 229.142 26.8136 230.255 26.8136C231.214 26.8136 232.107 26.6841 232.936 26.4251C233.765 26.1402 234.477 25.7517 235.073 25.2597C235.694 24.7417 236.173 24.1331 236.51 23.4338C236.873 22.7086 237.054 21.9057 237.054 21.0252C237.054 20.0151 236.86 19.1993 236.471 18.5777C236.083 17.9303 235.565 17.4382 234.917 17.1015C234.296 16.7389 233.558 16.4929 232.703 16.3634C231.874 16.2339 230.994 16.1691 230.061 16.1691C229.673 16.1691 229.232 16.1821 228.74 16.208C228.248 16.208 227.86 16.2209 227.575 16.2468V13.2167C227.886 13.2684 228.3 13.2943 228.818 13.2943C229.336 13.2943 229.75 13.2943 230.061 13.2943C230.942 13.2943 231.745 13.2167 232.47 13.0613C233.221 12.88 233.855 12.5951 234.373 12.2066C234.917 11.8181 235.332 11.3131 235.617 10.6915C235.927 10.044 236.083 9.25411 236.083 8.32175C236.083 7.46708 235.914 6.75486 235.578 6.18509C235.267 5.61531 234.827 5.16208 234.257 4.82539C233.713 4.46281 233.078 4.20382 232.353 4.04842C231.654 3.89303 230.916 3.81533 230.139 3.81533C228.093 3.81533 226.487 4.26856 225.322 5.17503C224.156 6.05559 223.47 7.50593 223.263 9.52605H219.728C219.779 8.04981 220.077 6.76781 220.621 5.68006C221.191 4.5664 221.942 3.65994 222.874 2.96067C223.807 2.2355 224.894 1.69162 226.138 1.32903C227.407 0.966449 228.779 0.785156 230.255 0.785156C231.576 0.785156 232.806 0.940549 233.946 1.25134C235.111 1.53623 236.122 1.98946 236.976 2.61103C237.831 3.23261 238.504 4.02252 238.996 4.98078C239.488 5.91315 239.734 7.0268 239.734 8.32175C239.734 9.07282 239.605 9.77209 239.346 10.4196C239.087 11.067 238.737 11.6498 238.297 12.1677C237.883 12.6857 237.391 13.139 236.821 13.5274C236.277 13.89 235.72 14.162 235.15 14.3433V14.4598C236.057 14.6411 236.86 14.9519 237.559 15.3922C238.258 15.8065 238.841 16.3116 239.307 16.9072C239.773 17.5029 240.123 18.1633 240.356 18.8885C240.589 19.6137 240.706 20.3518 240.706 21.1029C240.706 21.9575 240.511 22.8899 240.123 23.9C239.734 24.91 239.1 25.8553 238.219 26.7359C237.365 27.6165 236.251 28.3546 234.878 28.9503C233.532 29.52 231.887 29.8049 229.945 29.8049Z" fill="#252525"/>
<path d="M183.883 1.44727H187.573V12.7522H196.237C198.982 12.7522 201.08 13.4644 202.53 14.8888C204.006 16.2874 204.744 18.3204 204.744 20.988C204.744 23.6297 204.006 25.6628 202.53 27.0872C201.08 28.4858 198.982 29.185 196.237 29.185H183.883V1.44727ZM194.993 26.0772C199.034 26.0772 201.054 24.3808 201.054 20.988C201.054 17.5435 199.034 15.8212 194.993 15.8212H187.573V26.0772H194.993Z" fill="#252525"/>
<path d="M167.871 4.55514H158.625V1.44727H180.807V4.55514H171.562V29.185H167.871V4.55514Z" fill="#252525"/>
<path d="M133.199 1.44727H136.89V24.9506L150.836 1.44727H155.498V29.185H151.808V5.60405L137.822 29.185H133.199V1.44727Z" fill="#252525"/>
<path d="M106.604 1.44727H116.665C117.261 1.44727 117.895 1.46021 118.569 1.48611C119.268 1.48611 119.954 1.52496 120.628 1.60266C121.301 1.65446 121.936 1.74511 122.531 1.8746C123.127 2.00409 123.619 2.19834 124.008 2.45733C124.914 3.0012 125.678 3.75227 126.3 4.71053C126.947 5.66879 127.271 6.8472 127.271 8.24574C127.271 9.72198 126.908 11.004 126.183 12.0917C125.484 13.1536 124.474 13.9435 123.153 14.4615V14.5392C124.862 14.9018 126.17 15.6787 127.077 16.8701C127.983 18.0614 128.436 19.5118 128.436 21.2211C128.436 22.2312 128.255 23.2153 127.892 24.1736C127.53 25.1319 126.986 25.9865 126.261 26.7376C125.562 27.4628 124.681 28.0584 123.619 28.5246C122.583 28.9649 121.379 29.185 120.006 29.185H106.604V1.44727ZM119.54 26.0772C121.172 26.0772 122.441 25.6369 123.347 24.7563C124.28 23.8758 124.746 22.6585 124.746 21.1046C124.746 20.1981 124.577 19.447 124.241 18.8514C123.904 18.2557 123.451 17.7895 122.881 17.4528C122.337 17.0902 121.703 16.8442 120.977 16.7147C120.252 16.5593 119.501 16.4816 118.724 16.4816H110.294V26.0772H119.54ZM117.675 13.3737C119.773 13.3737 121.275 13.0111 122.182 12.286C123.114 11.5349 123.58 10.4213 123.58 8.94501C123.58 7.98675 123.425 7.22273 123.114 6.65295C122.803 6.05728 122.376 5.60405 121.832 5.29326C121.288 4.98247 120.654 4.78823 119.929 4.71053C119.229 4.60694 118.478 4.55514 117.675 4.55514H110.294V13.3737H117.675Z" fill="#252525"/>
<path d="M88.9483 1.44727H93.0274L103.866 29.185H99.787L96.7568 20.8326H85.0246L81.9167 29.185H78.1484L88.9483 1.44727ZM95.5914 17.7248L90.9684 4.78823H90.8907L86.1901 17.7248H95.5914Z" fill="#252525"/>
<path d="M65.3983 4.55514H56.1523V1.44727H78.3348V4.55514H69.0889V29.185H65.3983V4.55514Z" fill="#252525"/>
<path d="M42.5309 29.8049C40.3813 29.8049 38.5036 29.4423 36.8979 28.7172C35.2922 27.9661 33.9584 26.9431 32.8965 25.6481C31.8347 24.3532 31.0318 22.8252 30.4879 21.064C29.9699 19.3029 29.7109 17.4123 29.7109 15.3922C29.7109 13.372 29.9958 11.4814 30.5656 9.72029C31.1354 7.93326 31.9641 6.37933 33.0519 5.05848C34.1656 3.73763 35.5382 2.70168 37.1698 1.95061C38.8015 1.17364 40.6921 0.785156 42.8417 0.785156C44.292 0.785156 45.6647 0.979398 46.9596 1.36788C48.2546 1.75637 49.4071 2.32614 50.4171 3.07721C51.4272 3.82828 52.2689 4.77359 52.9423 5.91315C53.6157 7.0268 54.056 8.32175 54.2631 9.79799H50.5725C50.1582 7.82967 49.2387 6.35343 47.8143 5.36927C46.4158 4.38511 44.7453 3.89303 42.8029 3.89303C41.1453 3.89303 39.7209 4.20382 38.5295 4.82539C37.3641 5.44697 36.3929 6.28868 35.6159 7.35054C34.8648 8.3865 34.308 9.57785 33.9454 10.9246C33.5828 12.2713 33.4015 13.6699 33.4015 15.1202C33.4015 16.7001 33.5828 18.2022 33.9454 19.6266C34.308 21.0252 34.8648 22.2554 35.6159 23.3172C36.3929 24.3532 37.377 25.182 38.5684 25.8035C39.7597 26.4251 41.1842 26.7359 42.8417 26.7359C44.0331 26.7359 45.1079 26.5417 46.0661 26.1532C47.0244 25.7388 47.8402 25.182 48.5136 24.4827C49.2128 23.7575 49.7567 22.9029 50.1452 21.9187C50.5337 20.9345 50.7668 19.8727 50.8445 18.7331H54.5351C54.1725 22.2554 52.9682 24.9877 50.9222 26.9301C48.9021 28.8467 46.105 29.8049 42.5309 29.8049Z" fill="#252525"/>
<path d="M13.2862 29.8049C11.0848 29.8049 9.15528 29.4164 7.49775 28.6395C5.84021 27.8366 4.45462 26.7618 3.34096 25.4151C2.22731 24.0683 1.38559 22.5273 0.815817 20.7921C0.271939 19.0569 0 17.231 0 15.3145C0 13.4238 0.271939 11.6109 0.815817 9.87569C1.38559 8.11456 2.22731 6.56062 3.34096 5.21387C4.45462 3.86713 5.84021 2.79232 7.49775 1.98946C9.15528 1.18659 11.0848 0.785156 13.2862 0.785156C15.4876 0.785156 17.417 1.18659 19.0746 1.98946C20.7321 2.79232 22.1177 3.86713 23.2314 5.21387C24.345 6.56062 25.1738 8.11456 25.7177 9.87569C26.2874 11.6109 26.5723 13.4238 26.5723 15.3145C26.5723 17.231 26.2874 19.0569 25.7177 20.7921C25.1738 22.5273 24.345 24.0683 23.2314 25.4151C22.1177 26.7618 20.7321 27.8366 19.0746 28.6395C17.417 29.4164 15.4876 29.8049 13.2862 29.8049ZM13.2862 26.7359C14.9696 26.7359 16.4199 26.4122 17.6372 25.7647C18.8544 25.0913 19.8515 24.2108 20.6285 23.123C21.4055 22.0352 21.9753 20.818 22.3378 19.4712C22.7004 18.0986 22.8817 16.713 22.8817 15.3145C22.8817 13.9159 22.7004 12.5433 22.3378 11.1965C21.9753 9.82389 21.4055 8.59369 20.6285 7.50593C19.8515 6.41818 18.8544 5.55056 17.6372 4.90309C16.4199 4.22972 14.9696 3.89303 13.2862 3.89303C11.6027 3.89303 10.1524 4.22972 8.93514 4.90309C7.71789 5.55056 6.72078 6.41818 5.94381 7.50593C5.16684 8.59369 4.59706 9.82389 4.23448 11.1965C3.87189 12.5433 3.6906 13.9159 3.6906 15.3145C3.6906 16.713 3.87189 18.0986 4.23448 19.4712C4.59706 20.818 5.16684 22.0352 5.94381 23.123C6.72078 24.2108 7.71789 25.0913 8.93514 25.7647C10.1524 26.4122 11.6027 26.7359 13.2862 26.7359Z" fill="#252525"/>
</svg>
