<svg width="390" height="80" viewBox="0 0 390 80" fill="none" xmlns="http://www.w3.org/2000/svg">
<path d="M335.246 64.2976V0H348.84V26.529H376.437V0H389.999V64.2976H376.437V37.7371H348.84V64.2976H335.246Z" fill="white"/>
<path d="M269.285 64.2976V0H282.879V26.529H310.476V0H324.039V64.2976H310.476V37.7371H282.879V64.2976H269.285Z" fill="white"/>
<path d="M257.638 32.5884V43.2H228.314V32.5884H257.638Z" fill="white"/>
<path d="M184 30.8928H198.41C204.794 30.8928 209.775 32.4207 213.354 35.4765C216.933 38.5114 218.723 42.5718 218.723 47.6579C218.723 50.9648 217.917 53.8741 216.305 56.3858C214.694 58.8765 212.371 60.823 209.336 62.2253C206.301 63.6067 202.659 64.2974 198.41 64.2974H175.617V16.0742H188.395V53.78H198.41C200.65 53.78 202.492 53.2148 203.936 52.0846C205.38 50.9544 206.112 49.5102 206.133 47.7521C206.112 45.8893 205.38 44.3718 203.936 43.1997C202.492 42.0067 200.65 41.4102 198.41 41.4102H184V30.8928Z" fill="white"/>
<path d="M122.779 64.2974V16.0742H164.943V64.2974H152.165V26.5916H135.4V64.2974H122.779Z" fill="white"/>
<path d="M91.9173 65.2395C86.9569 65.2395 82.6871 64.2348 79.1081 62.2255C75.5499 60.1953 72.8081 57.3278 70.8825 53.6232C68.9569 49.8976 67.9941 45.4918 67.9941 40.4058C67.9941 35.4453 68.9569 31.0919 70.8825 27.3453C72.8081 23.5988 75.5185 20.6791 79.0139 18.5861C82.5302 16.493 86.6534 15.4465 91.3836 15.4465C94.565 15.4465 97.5266 15.9593 100.268 16.9849C103.031 17.9896 105.438 19.507 107.489 21.5372C109.561 23.5674 111.173 26.1209 112.324 29.1977C113.475 32.2535 114.051 35.8325 114.051 39.9349V43.6081H73.3313V35.3197H101.462C101.462 33.3942 101.043 31.6884 100.206 30.2023C99.3685 28.7163 98.2069 27.5546 96.7208 26.7174C95.2557 25.8593 93.5499 25.4302 91.6034 25.4302C89.5732 25.4302 87.7732 25.9012 86.2034 26.843C84.6546 27.7639 83.4406 29.0093 82.5616 30.5791C81.6825 32.1279 81.2325 33.8546 81.2116 35.7593V43.6395C81.2116 46.0255 81.6511 48.0872 82.5302 49.8244C83.4302 51.5616 84.6964 52.9011 86.329 53.843C87.9615 54.7848 89.8976 55.2558 92.1371 55.2558C93.6232 55.2558 94.9836 55.0465 96.2185 54.6279C97.4534 54.2092 98.5104 53.5813 99.3894 52.7441C100.268 51.9069 100.938 50.8813 101.399 49.6674L113.768 50.4837C113.141 53.4558 111.853 56.0511 109.907 58.2697C107.981 60.4674 105.491 62.1836 102.435 63.4185C99.3999 64.6325 95.8941 65.2395 91.9173 65.2395Z" fill="white"/>
<path d="M61.9429 53.4348L61.158 79.4929H48.2232V64.2975H43.7022V53.4348H61.9429ZM0 64.2975V0H13.0604V53.372H39.8092V0H53.0266V64.2975H0Z" fill="white"/>
</svg>
