<svg width="370" height="53" viewBox="0 0 370 53" fill="none" xmlns="http://www.w3.org/2000/svg">
<path d="M330.645 1.95801H337.158V43.4404L361.773 1.95801H370.001V50.9141H363.488V9.29456L338.804 50.9141H330.645V1.95801Z" fill="#252525"/>
<path d="M280.559 1.95801H287.072V43.4404L311.688 1.95801H319.915V50.9141H313.402V9.29456L288.718 50.9141H280.559V1.95801Z" fill="#252525"/>
<path d="M251.303 52.0107C247.509 52.0107 244.195 51.3708 241.36 50.0909C238.526 48.7653 236.172 46.9597 234.298 44.6742C232.424 42.3886 231.007 39.6917 230.047 36.5834C229.133 33.4751 228.676 30.1382 228.676 26.5728C228.676 23.0073 229.179 19.6705 230.184 16.5622C231.19 13.4081 232.653 10.6655 234.572 8.33424C236.538 6.003 238.961 4.17457 241.84 2.84897C244.72 1.47765 248.057 0.791992 251.851 0.791992C254.411 0.791992 256.834 1.13482 259.119 1.82048C261.405 2.50614 263.439 3.51177 265.221 4.83738C267.004 6.16299 268.49 7.83143 269.678 9.84269C270.867 11.8082 271.644 14.0938 272.009 16.6993H265.496C264.764 13.2253 263.142 10.6198 260.628 8.88277C258.159 7.14577 255.211 6.27726 251.783 6.27726C248.857 6.27726 246.343 6.82579 244.24 7.92285C242.183 9.0199 240.469 10.5055 239.098 12.3796C237.772 14.2081 236.789 16.3107 236.149 18.6877C235.51 21.0646 235.19 23.533 235.19 26.0928C235.19 28.8812 235.51 31.5324 236.149 34.0465C236.789 36.5148 237.772 38.6861 239.098 40.5602C240.469 42.3886 242.206 43.8514 244.309 44.9484C246.411 46.0455 248.926 46.594 251.851 46.594C253.954 46.594 255.851 46.2512 257.542 45.5655C259.233 44.8342 260.673 43.8514 261.862 42.6172C263.096 41.3373 264.056 39.8289 264.741 38.0919C265.427 36.3548 265.839 34.4807 265.976 32.4694H272.489C271.849 38.6861 269.724 43.5086 266.113 46.9369C262.547 50.3194 257.611 52.0107 251.303 52.0107Z" fill="#252525"/>
<path d="M181.592 1.95801H188.106V23.0077H213.886V1.95801H220.4V50.9141H213.886V28.493H188.106V50.9141H181.592V1.95801Z" fill="#252525"/>
<path d="M150.432 1.95801H157.632L176.762 50.9141H169.562L164.214 36.1724H143.507L138.022 50.9141H131.371L150.432 1.95801ZM162.157 30.6871L153.998 7.85468H153.861L145.564 30.6871H162.157Z" fill="#252525"/>
<path d="M91.3984 1.95801H97.9122V25.6818L122.733 1.95801H131.167L107.854 23.762L131.989 50.9141H123.762L102.918 27.7388L97.9122 32.4013V50.9141H91.3984V1.95801Z" fill="#252525"/>
<path d="M60.2391 1.95801H67.4385L86.5684 50.9141H79.3689L74.0208 36.1724H53.3139L47.8286 50.9141H41.1777L60.2391 1.95801ZM71.9638 30.6871L63.8045 7.85468H63.6674L55.3709 30.6871H71.9638Z" fill="#252525"/>
<path d="M0 1.95801H17.7586C18.8099 1.95801 19.9298 1.98086 21.1183 2.02657C22.3525 2.02657 23.5638 2.09514 24.7523 2.23227C25.9408 2.32369 27.0607 2.48368 28.112 2.71224C29.1634 2.94079 30.0319 3.28362 30.7175 3.74072C32.3174 4.70064 33.6659 6.02625 34.7629 7.71754C35.9057 9.40884 36.4771 11.4887 36.4771 13.957C36.4771 16.5625 35.8371 18.8252 34.5572 20.7451C33.323 22.6192 31.5403 24.0134 29.2091 24.9276V25.0647C32.226 25.7047 34.5344 27.076 36.1342 29.1787C37.7341 31.2814 38.534 33.8412 38.534 36.8581C38.534 38.6408 38.2141 40.3778 37.5741 42.0691C36.9342 43.7604 35.9742 45.2688 34.6944 46.5944C33.4602 47.8743 31.906 48.9257 30.0319 49.7485C28.2034 50.5255 26.0779 50.9141 23.6552 50.9141H0V1.95801ZM22.8324 45.4288C25.7122 45.4288 27.952 44.6517 29.5519 43.0976C31.1975 41.5434 32.0203 39.395 32.0203 36.6524C32.0203 35.0525 31.7232 33.7269 31.1289 32.6755C30.5347 31.6242 29.7348 30.8014 28.7291 30.2072C27.7692 29.5672 26.6493 29.133 25.3694 28.9044C24.0895 28.6302 22.7639 28.493 21.3926 28.493H6.51376V45.4288H22.8324ZM19.5413 23.0077C23.2438 23.0077 25.8951 22.3678 27.4949 21.0879C29.1405 19.7623 29.9633 17.7967 29.9633 15.1912C29.9633 13.4999 29.689 12.1515 29.1405 11.1458C28.592 10.0945 27.8378 9.29456 26.8778 8.74604C25.9179 8.19751 24.798 7.85468 23.5181 7.71754C22.2839 7.5347 20.9583 7.44328 19.5413 7.44328H6.51376V23.0077H19.5413Z" fill="#252525"/>
</svg>
