<svg width="18" height="11" viewBox="0 0 18 11" xmlns="http://www.w3.org/2000/svg">
<path d="M10.8995 4.98793C10.5704 4.86535 10.5704 4.39721 10.55 4.07121C10.4677 2.90998 10.8791 1.13718 10.3854 0.383461C10.0359 -0.0651195 8.34872 -0.0240431 7.32049 0.0372454C7.03217 0.0783218 6.68262 0.138959 6.43577 0.261536C6.18891 0.384113 5.94206 0.587538 5.94206 0.770752C5.94206 1.03547 6.55952 0.995042 6.78531 1.34126C7.03217 1.70834 7.03217 2.50248 7.03217 3.15449C7.03217 3.9082 6.90841 4.90708 6.60034 4.9475C6.12703 4.96771 5.85977 4.49892 5.61292 4.15271C5.11921 3.48049 4.6255 2.64462 4.25489 1.82961C4.06992 1.40189 3.96657 0.933102 3.69931 0.749888C3.28788 0.46431 2.54732 0.444098 1.82717 0.46431C1.16889 0.484522 0.222285 0.403021 0.037309 0.790313C-0.106854 1.21803 0.201878 1.62553 0.366448 1.9724C1.2097 3.78563 2.11483 5.37522 3.22601 6.88266C4.25489 8.28838 5.22124 9.40918 7.11379 9.9999C7.64897 10.1629 9.99376 10.6317 10.4671 9.9999C10.6316 9.75539 10.5908 9.2051 10.6731 8.7976C10.7554 8.39009 10.8581 7.98259 11.2491 7.96238C11.5782 7.94217 11.7632 8.22709 11.9692 8.43117C12.1957 8.65546 12.3807 8.83867 12.5452 9.04275C12.9363 9.43004 13.3477 9.95947 13.8414 10.1636C14.5201 10.4491 15.5694 10.3676 16.5568 10.3266C17.3592 10.3063 17.9352 10.1433 17.9971 9.67455C18.0386 9.30747 17.6265 8.77804 17.3796 8.47225C16.7622 7.71853 16.4745 7.49424 15.7747 6.80116C15.466 6.49536 15.075 6.16936 15.075 5.80293C15.0546 5.57864 15.2396 5.37522 15.4041 5.15093C16.1243 4.09142 16.8444 3.3377 17.5027 2.23711C17.6877 1.91111 18.1202 1.15739 17.9556 0.790313C17.7706 0.382809 16.7418 0.504734 16.1039 0.504734C15.281 0.504734 14.2113 0.443445 14.0053 0.606447C13.6143 0.871161 13.4497 1.29953 13.2647 1.70703C12.8533 2.64462 12.2977 3.60176 11.7217 4.31506C11.5157 4.55956 11.1253 5.06878 10.8989 4.98727L10.8995 4.98793Z"/>
</svg>
