<svg width="18" height="13" viewBox="0 0 18 13" xmlns="http://www.w3.org/2000/svg">
<path fill-rule="evenodd" clip-rule="evenodd" d="M7.18959 8.6275V3.57687C8.98258 4.42056 10.3712 5.23557 12.0136 6.11427C10.659 6.86551 8.98258 7.70842 7.18959 8.6275ZM17.1819 1.06496C16.8726 0.657471 16.3455 0.34028 15.7843 0.235268C14.1347 -0.077977 3.84389 -0.078868 2.19524 0.235268C1.7452 0.319634 1.34445 0.523559 1.0002 0.840395C-0.450326 2.1867 0.00419956 9.40653 0.353832 10.576C0.500856 11.0823 0.690921 11.4473 0.930285 11.687C1.23868 12.0038 1.66092 12.222 2.14592 12.3198C3.50411 12.6007 10.5012 12.7578 15.7556 12.362C16.2397 12.2776 16.6682 12.0524 17.0062 11.7221C18.3473 10.3812 18.2559 2.75592 17.1819 1.06496Z"/>
</svg>
