<svg width="32" height="32" viewBox="0 0 32 32" fill="none" xmlns="http://www.w3.org/2000/svg">
<path d="M8.94248 24.9421C8.42178 25.4628 7.57756 25.4628 7.05687 24.9421C6.53617 24.4214 6.53617 23.5772 7.05687 23.0565L14.1141 15.9993L7.05687 8.94216C6.53617 8.42146 6.53617 7.57724 7.05687 7.05654C7.57756 6.53584 8.42178 6.53584 8.94248 7.05654L15.9997 14.1137L23.0569 7.05654C23.5776 6.53584 24.4218 6.53584 24.9425 7.05654C25.4632 7.57724 25.4632 8.42146 24.9425 8.94216L17.8853 15.9993L24.9425 23.0565C25.4632 23.5772 25.4632 24.4215 24.9425 24.9422C24.4218 25.4629 23.5776 25.4629 23.0569 24.9422L15.9997 17.885L8.94248 24.9421Z" fill="white"/>
</svg>
