<svg xmlns="http://www.w3.org/2000/svg">
  <style>:root svg:not(:target){display:none}</style>
  <svg viewBox="0 0 98 20" id="logo" style="fill: currentColor" xmlns="http://www.w3.org/2000/svg">
    <path d="M15.8047 13.2969L15.6094 19.7812H12.3906V16H11.2656V13.2969H15.8047ZM0.390625 16V-4.76837e-07H3.64062V13.2812H10.2969V-4.76837e-07H13.5859V16H0.390625ZM23.2637 16.2344C22.0293 16.2344 20.9668 15.9844 20.0762 15.4844C19.1908 14.9792 18.5085 14.2656 18.0293 13.3437C17.5501 12.4167 17.3105 11.3203 17.3105 10.0547C17.3105 8.82031 17.5501 7.73698 18.0293 6.80469C18.5085 5.8724 19.1829 5.14583 20.0527 4.625C20.9277 4.10417 21.9538 3.84375 23.1309 3.84375C23.9225 3.84375 24.6595 3.97135 25.3418 4.22656C26.0293 4.47656 26.6283 4.85417 27.1387 5.35937C27.6543 5.86458 28.0553 6.5 28.3418 7.26562C28.6283 8.02604 28.7715 8.91667 28.7715 9.9375V10.8516H18.6387V8.78906H25.6387C25.6387 8.3099 25.5345 7.88542 25.3262 7.51563C25.1178 7.14583 24.8288 6.85677 24.459 6.64844C24.0944 6.4349 23.6699 6.32812 23.1855 6.32812C22.6803 6.32812 22.2324 6.44531 21.8418 6.67969C21.4564 6.90885 21.1543 7.21875 20.9355 7.60937C20.7168 7.99479 20.6048 8.42448 20.5996 8.89844V10.8594C20.5996 11.4531 20.709 11.9661 20.9277 12.3984C21.1517 12.8307 21.4668 13.1641 21.873 13.3984C22.2793 13.6328 22.7611 13.75 23.3184 13.75C23.6882 13.75 24.0267 13.6979 24.334 13.5938C24.6413 13.4896 24.9043 13.3333 25.123 13.125C25.3418 12.9167 25.5085 12.6615 25.623 12.3594L28.7012 12.5625C28.5449 13.3021 28.2246 13.9479 27.7402 14.5C27.2611 15.0469 26.6413 15.474 25.8809 15.7813C25.1257 16.0833 24.2533 16.2344 23.2637 16.2344ZM30.9434 16V4H41.4355V16H38.2559V6.61719H34.084V16H30.9434ZM46.1777 7.6875H49.7637C51.3522 7.6875 52.5918 8.06771 53.4824 8.82812C54.373 9.58333 54.8184 10.5937 54.8184 11.8594C54.8184 12.6823 54.6178 13.4062 54.2168 14.0312C53.8158 14.651 53.2376 15.1354 52.4824 15.4844C51.7272 15.8281 50.821 16 49.7637 16H44.0918V4H47.2715V13.3828H49.7637C50.321 13.3828 50.7793 13.2422 51.1387 12.9609C51.498 12.6797 51.6803 12.3203 51.6855 11.8828C51.6803 11.4193 51.498 11.0417 51.1387 10.75C50.7793 10.4531 50.321 10.3047 49.7637 10.3047H46.1777V7.6875ZM64.502 8.10937V10.75H57.2051V8.10937H64.502ZM67.4004 16V-4.76837e-07H70.7832V6.60156H77.6504V-4.76837e-07H81.0254V16H77.6504V9.39062H70.7832V16H67.4004ZM83.8145 16V-4.76837e-07H87.1973V6.60156H94.0645V-4.76837e-07H97.4395V16H94.0645V9.39062H87.1973V16H83.8145Z"/>
  </svg>
</svg>
