<svg width="370" height="69" fill="none" xmlns="http://www.w3.org/2000/svg"><path d="M341.809 39.534h3.74v11.458h8.386c2.783 0 4.909.722 6.379 2.165 1.496 1.418 2.244 3.478 2.244 6.182 0 2.677-.748 4.737-2.244 6.181-1.47 1.418-3.596 2.126-6.379 2.126h-12.126V39.534Zm10.866 24.962c4.095 0 6.143-1.719 6.143-5.157 0-3.491-2.048-5.237-6.143-5.237h-7.126v10.395h7.126Zm13.584-24.962h3.74v28.112h-3.74V39.534ZM325.011 68.277c-2.179 0-4.082-.368-5.709-1.103-1.628-.761-2.98-1.798-4.056-3.11-1.076-1.313-1.89-2.861-2.441-4.646-.525-1.785-.787-3.701-.787-5.749 0-2.047.288-3.963.866-5.748.577-1.811 1.417-3.386 2.52-4.725 1.128-1.338 2.519-2.388 4.173-3.15 1.654-.787 3.57-1.18 5.749-1.18 1.469 0 2.861.196 4.173.59 1.312.394 2.481.971 3.504 1.732a9.64 9.64 0 0 1 2.559 2.874c.683 1.13 1.129 2.442 1.339 3.938h-3.74c-.42-1.995-1.352-3.491-2.796-4.489-1.417-.997-3.11-1.496-5.079-1.496-1.68 0-3.123.315-4.331.945a8.672 8.672 0 0 0-2.953 2.56c-.761 1.05-1.325 2.257-1.693 3.621a16.305 16.305 0 0 0-.551 4.253c0 1.6.184 3.123.551 4.567.368 1.417.932 2.664 1.693 3.74a8.732 8.732 0 0 0 2.993 2.52c1.207.63 2.651.945 4.331.945 1.207 0 2.296-.197 3.267-.59a7.565 7.565 0 0 0 2.481-1.693 7.853 7.853 0 0 0 1.654-2.599c.393-.998.63-2.074.708-3.229h3.741c-.368 3.57-1.588 6.34-3.662 8.308-2.047 1.942-4.882 2.914-8.504 2.914ZM295.372 68.277c-2.231 0-4.187-.394-5.867-1.182-1.68-.813-3.084-1.903-4.213-3.267-1.128-1.365-1.981-2.927-2.559-4.686a18.461 18.461 0 0 1-.827-5.551c0-1.916.276-3.754.827-5.513.578-1.785 1.431-3.36 2.559-4.724 1.129-1.365 2.533-2.454 4.213-3.268 1.68-.814 3.636-1.22 5.867-1.22s4.186.406 5.866 1.22c1.68.814 3.084 1.903 4.213 3.268 1.129 1.365 1.969 2.94 2.52 4.724.577 1.76.866 3.596.866 5.513 0 1.942-.289 3.792-.866 5.551a13.693 13.693 0 0 1-2.52 4.685c-1.129 1.365-2.533 2.455-4.213 3.268-1.68.788-3.635 1.182-5.866 1.182Zm0-3.11c1.706 0 3.176-.329 4.409-.985a9.044 9.044 0 0 0 3.032-2.678 11.413 11.413 0 0 0 1.733-3.7c.367-1.392.551-2.796.551-4.213 0-1.418-.184-2.809-.551-4.174-.368-1.391-.945-2.638-1.733-3.74a8.663 8.663 0 0 0-3.032-2.638c-1.233-.683-2.703-1.024-4.409-1.024s-3.176.341-4.41 1.024a8.672 8.672 0 0 0-3.032 2.638 11.363 11.363 0 0 0-1.732 3.74 15.962 15.962 0 0 0-.551 4.174c0 1.417.183 2.821.551 4.212a11.41 11.41 0 0 0 1.732 3.702 9.054 9.054 0 0 0 3.032 2.677c1.234.656 2.704.984 4.41.984ZM257.949 39.534h12.324c2.861 0 5.013.735 6.457 2.205 1.444 1.444 2.165 3.478 2.165 6.103 0 2.625-.721 4.672-2.165 6.142-1.444 1.444-3.596 2.165-6.457 2.165h-8.583v11.497h-3.741V39.534ZM269.013 53c2.126 0 3.675-.434 4.646-1.3.997-.892 1.496-2.178 1.496-3.858 0-1.68-.499-2.953-1.496-3.82-.971-.892-2.52-1.338-4.646-1.338h-7.323V53h7.323ZM229.92 39.534h21.891v28.112h-3.74V42.684H233.66v24.962h-3.74V39.534ZM211.897 68.277c-2.231 0-4.187-.394-5.866-1.182-1.68-.813-3.085-1.903-4.213-3.267-1.129-1.365-1.982-2.927-2.56-4.686a18.461 18.461 0 0 1-.826-5.551c0-1.916.275-3.754.826-5.513.578-1.785 1.431-3.36 2.56-4.724 1.128-1.365 2.533-2.454 4.213-3.268 1.679-.814 3.635-1.22 5.866-1.22s4.187.406 5.867 1.22c1.68.814 3.084 1.903 4.213 3.268 1.128 1.365 1.968 2.94 2.519 4.724a17.54 17.54 0 0 1 .867 5.513c0 1.942-.289 3.792-.867 5.551a13.708 13.708 0 0 1-2.519 4.685c-1.129 1.365-2.533 2.455-4.213 3.268-1.68.788-3.636 1.182-5.867 1.182Zm0-3.11c1.706 0 3.176-.329 4.41-.985a9.054 9.054 0 0 0 3.032-2.678 11.432 11.432 0 0 0 1.732-3.7c.367-1.392.551-2.796.551-4.213 0-1.418-.184-2.809-.551-4.174-.368-1.391-.945-2.638-1.732-3.74a8.672 8.672 0 0 0-3.032-2.638c-1.234-.683-2.704-1.024-4.41-1.024s-3.176.341-4.41 1.024a8.669 8.669 0 0 0-3.031 2.638c-.788 1.102-1.365 2.349-1.733 3.74a16.004 16.004 0 0 0-.551 4.174c0 1.417.184 2.821.551 4.212a11.413 11.413 0 0 0 1.733 3.702 9.05 9.05 0 0 0 3.031 2.677c1.234.656 2.704.984 4.41.984ZM173.053 39.534h10.197c.604 0 1.247.013 1.93.04.708 0 1.404.039 2.086.118.683.052 1.326.144 1.93.275.603.132 1.102.328 1.496.59.918.552 1.693 1.313 2.323 2.285.656.97.984 2.165.984 3.582 0 1.497-.367 2.796-1.102 3.898-.709 1.076-1.733 1.877-3.071 2.402v.079c1.732.367 3.057 1.155 3.976 2.362.919 1.208 1.378 2.678 1.378 4.41a8.4 8.4 0 0 1-.551 2.992 7.567 7.567 0 0 1-1.654 2.599c-.708.735-1.601 1.338-2.677 1.81-1.05.447-2.271.67-3.662.67h-13.583V39.534Zm13.111 24.962c1.654 0 2.94-.446 3.858-1.338.945-.893 1.418-2.126 1.418-3.701 0-.919-.171-1.68-.512-2.284a3.765 3.765 0 0 0-1.378-1.417c-.551-.368-1.194-.617-1.929-.748a10.883 10.883 0 0 0-2.284-.237h-8.544v9.725h9.371Zm-1.89-12.874c2.126 0 3.648-.368 4.567-1.103.945-.761 1.418-1.89 1.418-3.386 0-.971-.158-1.745-.473-2.323a3.301 3.301 0 0 0-1.299-1.378c-.551-.315-1.194-.512-1.929-.59a15.608 15.608 0 0 0-2.284-.158h-7.481v8.938h7.481ZM138.025 39.534h19.411v3.15h-15.67v8.938h14.607v3.15h-14.607v9.724h15.788v3.15h-19.529V39.534ZM103.689 39.534h3.741v11.458h8.386c2.783 0 4.909.722 6.379 2.165 1.496 1.418 2.244 3.478 2.244 6.182 0 2.677-.748 4.737-2.244 6.181-1.47 1.418-3.596 2.126-6.379 2.126h-12.127V39.534Zm10.867 24.962c4.095 0 6.142-1.719 6.142-5.157 0-3.491-2.047-5.237-6.142-5.237h-7.126v10.395h7.126Zm13.584-24.962h3.74v28.112h-3.74V39.534ZM87.459 42.684h-9.371v-3.15h22.482v3.15h-9.371v24.962h-3.74V42.684ZM64.282 68.277c-2.179 0-4.082-.368-5.709-1.103-1.627-.761-2.98-1.798-4.055-3.11-1.077-1.313-1.89-2.861-2.441-4.646-.526-1.785-.788-3.701-.788-5.749 0-2.047.289-3.963.866-5.748.578-1.811 1.418-3.386 2.52-4.725 1.129-1.338 2.52-2.388 4.174-3.15 1.653-.787 3.57-1.18 5.748-1.18 1.47 0 2.861.196 4.174.59 1.312.394 2.48.971 3.504 1.732a9.65 9.65 0 0 1 2.559 2.874c.682 1.13 1.129 2.442 1.339 3.938h-3.74c-.42-1.995-1.353-3.491-2.796-4.489-1.418-.997-3.11-1.496-5.08-1.496-1.68 0-3.123.315-4.33.945a8.666 8.666 0 0 0-2.953 2.56c-.761 1.05-1.326 2.257-1.693 3.621a16.284 16.284 0 0 0-.552 4.253c0 1.6.184 3.123.552 4.567.367 1.417.931 2.664 1.693 3.74a8.73 8.73 0 0 0 2.992 2.52c1.208.63 2.651.945 4.331.945 1.208 0 2.297-.197 3.268-.59a7.565 7.565 0 0 0 2.48-1.693A7.852 7.852 0 0 0 72 60.284c.394-.998.63-2.074.709-3.229h3.74c-.367 3.57-1.588 6.34-3.661 8.308-2.048 1.942-4.883 2.914-8.505 2.914ZM34.774 39.534h4.134l10.985 28.112h-4.134l-3.071-8.465h-11.89l-3.15 8.465h-3.82l10.946-28.112Zm6.733 16.497-4.686-13.11h-.079l-4.764 13.11h9.529ZM17.245 55.598a17.37 17.37 0 0 1-1.338.473c-.552.157-1.168.315-1.851.472a43.38 43.38 0 0 1-2.126.433c-.735.105-1.43.158-2.087.158-2.152 0-3.872-.263-5.158-.788C3.4 55.821 2.402 55.14 1.693 54.3a6.807 6.807 0 0 1-1.378-2.874A16.821 16.821 0 0 1 0 48.196v-8.662h3.701v8.347c0 .63.053 1.3.158 2.008.104.709.367 1.365.787 1.969.42.604 1.037 1.102 1.85 1.496.814.394 1.93.59 3.347.59 1.759 0 3.255-.157 4.489-.472 1.26-.341 2.23-.682 2.913-1.024V39.534h3.74v28.112h-3.74V55.598ZM209.274 1.014h4.134l10.985 28.112h-4.134l-3.071-8.465h-11.891l-3.15 8.465h-3.819l10.946-28.112Zm6.732 16.497L211.321 4.4h-.079l-4.764 13.11h9.528ZM173.221 1.014h3.74V13.1h14.804V1.014h3.741v28.112h-3.741V16.25h-14.804v12.875h-3.74V1.014ZM127.926 1.014h3.74V12.47h8.387c2.782 0 4.908.722 6.378 2.166 1.496 1.417 2.244 3.477 2.244 6.181 0 2.677-.748 4.738-2.244 6.182-1.47 1.417-3.596 2.126-6.378 2.126h-12.127V1.014Zm10.867 24.962c4.094 0 6.142-1.72 6.142-5.158 0-3.49-2.048-5.236-6.142-5.236h-7.127v10.394h7.127Zm13.583-24.962h3.741v28.112h-3.741V1.014ZM111.697 4.163h-9.371v-3.15h22.482v3.15h-9.371v24.963h-3.74V4.163ZM81.248 1.014h19.411v3.15h-15.67V13.1h14.607v3.15H84.988v9.725h15.789v3.15H81.248V1.014ZM54.297 1.014h10.197c.604 0 1.247.013 1.93.039.708 0 1.404.04 2.086.118.683.053 1.326.145 1.93.276.603.131 1.102.328 1.496.59.918.552 1.693 1.313 2.323 2.284.656.971.984 2.165.984 3.583 0 1.496-.367 2.795-1.102 3.898-.709 1.076-1.733 1.877-3.071 2.402v.078c1.732.368 3.058 1.155 3.976 2.363.919 1.207 1.378 2.677 1.378 4.41a8.389 8.389 0 0 1-.55 2.992 7.56 7.56 0 0 1-1.655 2.598c-.708.735-1.6 1.339-2.677 1.811-1.05.447-2.27.67-3.662.67H54.297V1.014Zm13.111 24.962c1.654 0 2.94-.446 3.858-1.339.945-.892 1.418-2.126 1.418-3.7 0-.92-.17-1.68-.512-2.284a3.763 3.763 0 0 0-1.378-1.418c-.551-.367-1.194-.617-1.93-.748a10.87 10.87 0 0 0-2.283-.236h-8.544v9.725h9.371Zm-1.89-12.875c2.126 0 3.649-.367 4.567-1.102.945-.762 1.418-1.89 1.418-3.386 0-.972-.158-1.746-.473-2.323a3.3 3.3 0 0 0-1.299-1.378c-.551-.315-1.194-.512-1.93-.591a15.603 15.603 0 0 0-2.283-.158h-7.48v8.938h7.48ZM38.066 4.163h-9.37v-3.15h22.481v3.15h-9.37v24.963h-3.741V4.163ZM13.663 29.755c-2.231 0-4.187-.394-5.867-1.181-1.68-.814-3.084-1.903-4.213-3.268-1.128-1.365-1.981-2.927-2.559-4.685a18.455 18.455 0 0 1-.827-5.552c0-1.916.276-3.753.827-5.512.578-1.785 1.43-3.36 2.56-4.725 1.128-1.365 2.532-2.454 4.212-3.268 1.68-.813 3.636-1.22 5.867-1.22 2.23 0 4.186.407 5.866 1.22 1.68.814 3.084 1.903 4.213 3.268 1.129 1.365 1.969 2.94 2.52 4.725.577 1.759.866 3.596.866 5.512 0 1.943-.289 3.793-.866 5.552a13.701 13.701 0 0 1-2.52 4.685c-1.129 1.365-2.533 2.454-4.213 3.268-1.68.787-3.635 1.181-5.866 1.181Zm0-3.11c1.706 0 3.176-.328 4.41-.985a9.052 9.052 0 0 0 3.031-2.677 11.414 11.414 0 0 0 1.733-3.701c.367-1.391.55-2.796.55-4.213 0-1.417-.183-2.809-.55-4.173a11.366 11.366 0 0 0-1.733-3.74 8.67 8.67 0 0 0-3.031-2.639c-1.234-.682-2.704-1.023-4.41-1.023s-3.176.34-4.41 1.023a8.669 8.669 0 0 0-3.032 2.638 11.365 11.365 0 0 0-1.732 3.74 15.984 15.984 0 0 0-.551 4.174c0 1.417.183 2.822.55 4.213a11.412 11.412 0 0 0 1.733 3.701 9.05 9.05 0 0 0 3.032 2.677c1.234.657 2.704.985 4.41.985Z" fill="#252525"/></svg>