<svg width="1260" height="62" fill="none" xmlns="http://www.w3.org/2000/svg"><path d="M1201.45 1.392h7.77v23.794h17.42c5.78 0 10.19 1.5 13.24 4.498 3.11 2.943 4.67 7.223 4.67 12.837 0 5.56-1.56 9.84-4.67 12.838-3.05 2.944-7.46 4.416-13.24 4.416h-25.19V1.392Zm22.57 51.841c8.51 0 12.76-3.57 12.76-10.712 0-7.25-4.25-10.875-12.76-10.875h-14.8v21.587h14.8Zm28.21-51.841h7.77v58.383h-7.77V1.392ZM1166.56 61.081c-4.52 0-8.47-.763-11.85-2.29-3.38-1.58-6.19-3.733-8.42-6.459-2.24-2.726-3.93-5.942-5.07-9.649-1.09-3.707-1.64-7.686-1.64-11.938 0-4.252.6-8.231 1.8-11.938 1.2-3.762 2.94-7.032 5.23-9.812 2.35-2.78 5.24-4.961 8.67-6.542C1158.71.818 1162.69 0 1167.22 0c3.05 0 5.94.409 8.67 1.227 2.72.817 5.15 2.016 7.27 3.597 2.13 1.581 3.9 3.57 5.32 5.97 1.42 2.343 2.34 5.07 2.78 8.176h-7.77c-.87-4.143-2.81-7.25-5.8-9.321-2.95-2.072-6.46-3.108-10.55-3.108-3.49 0-6.49.655-9 1.963a18.058 18.058 0 0 0-6.13 5.315c-1.58 2.18-2.75 4.688-3.52 7.523a33.954 33.954 0 0 0-1.14 8.83c0 3.326.38 6.488 1.14 9.486.77 2.944 1.94 5.533 3.52 7.768 1.64 2.18 3.71 3.925 6.21 5.233 2.51 1.308 5.51 1.962 9 1.962 2.51 0 4.77-.408 6.79-1.226 2.01-.872 3.73-2.044 5.15-3.516 1.47-1.526 2.61-3.325 3.43-5.397.82-2.071 1.31-4.306 1.47-6.705h7.77c-.76 7.414-3.3 13.165-7.6 17.253-4.26 4.034-10.14 6.051-17.67 6.051ZM1105.01 61.081c-4.63 0-8.69-.818-12.18-2.453-3.49-1.69-6.41-3.952-8.75-6.787-2.34-2.834-4.12-6.078-5.32-9.73-1.14-3.652-1.71-7.496-1.71-11.53 0-3.979.57-7.795 1.71-11.447 1.2-3.707 2.98-6.978 5.32-9.812 2.34-2.835 5.26-5.097 8.75-6.787C1096.32.845 1100.38 0 1105.01 0c4.64 0 8.7.845 12.19 2.535 3.48 1.69 6.4 3.952 8.74 6.787 2.35 2.834 4.09 6.105 5.24 9.812 1.2 3.652 1.8 7.468 1.8 11.447 0 4.034-.6 7.878-1.8 11.53-1.15 3.652-2.89 6.896-5.24 9.73-2.34 2.835-5.26 5.097-8.74 6.787-3.49 1.636-7.55 2.453-12.19 2.453Zm0-6.46c3.55 0 6.6-.68 9.16-2.044 2.56-1.417 4.66-3.27 6.3-5.56 1.63-2.29 2.83-4.852 3.59-7.686a33.83 33.83 0 0 0 1.15-8.75c0-2.943-.38-5.832-1.15-8.667-.76-2.89-1.96-5.479-3.59-7.768-1.64-2.29-3.74-4.116-6.3-5.479-2.56-1.417-5.61-2.126-9.16-2.126-3.54 0-6.59.71-9.16 2.126-2.56 1.363-4.66 3.19-6.29 5.479-1.64 2.29-2.84 4.879-3.6 7.768a33.336 33.336 0 0 0-1.15 8.667c0 2.944.39 5.86 1.15 8.75.76 2.834 1.96 5.396 3.6 7.686 1.63 2.29 3.73 4.143 6.29 5.56 2.57 1.363 5.62 2.044 9.16 2.044ZM1027.3 1.392h25.59c5.94 0 10.41 1.526 13.41 4.579 3 2.998 4.5 7.223 4.5 12.674s-1.5 9.703-4.5 12.756c-3 2.998-7.47 4.497-13.41 4.497h-17.83v23.877h-7.76V1.392Zm22.97 27.965c4.42 0 7.63-.9 9.65-2.699 2.07-1.853 3.11-4.524 3.11-8.013s-1.04-6.133-3.11-7.932c-2.02-1.853-5.23-2.78-9.65-2.78h-15.21v21.424h15.21ZM969.084 1.392h45.466v58.383h-7.77V7.933h-29.928v51.842h-7.768V1.392ZM931.653 61.081c-4.633 0-8.694-.818-12.183-2.453-3.489-1.69-6.405-3.952-8.749-6.787-2.344-2.834-4.116-6.078-5.315-9.73-1.145-3.652-1.718-7.496-1.718-11.53 0-3.979.573-7.795 1.718-11.447 1.199-3.707 2.971-6.978 5.315-9.812 2.344-2.835 5.26-5.097 8.749-6.787C922.959.845 927.02 0 931.653 0c4.634 0 8.695.845 12.184 2.535 3.489 1.69 6.405 3.952 8.749 6.787 2.344 2.834 4.089 6.105 5.233 9.812 1.2 3.652 1.799 7.468 1.799 11.447 0 4.034-.599 7.878-1.799 11.53-1.144 3.652-2.889 6.896-5.233 9.73-2.344 2.835-5.26 5.097-8.749 6.787-3.489 1.636-7.55 2.453-12.184 2.453Zm0-6.46c3.544 0 6.596-.68 9.159-2.044 2.562-1.417 4.66-3.27 6.296-5.56 1.635-2.29 2.834-4.852 3.598-7.686a34.128 34.128 0 0 0 1.144-8.75c0-2.943-.381-5.832-1.144-8.667-.764-2.89-1.963-5.479-3.598-7.768-1.636-2.29-3.734-4.116-6.296-5.479-2.563-1.417-5.615-2.126-9.159-2.126-3.543 0-6.596.71-9.158 2.126-2.562 1.363-4.66 3.19-6.296 5.479-1.635 2.29-2.834 4.879-3.598 7.768a33.204 33.204 0 0 0-1.145 8.667c0 2.944.382 5.86 1.145 8.75.764 2.834 1.963 5.396 3.598 7.686 1.636 2.29 3.734 4.143 6.296 5.56 2.562 1.363 5.615 2.044 9.158 2.044ZM850.981 1.392h21.179c1.253 0 2.589.027 4.006.081 1.472 0 2.917.082 4.334.246 1.417.109 2.753.3 4.007.572 1.253.273 2.289.681 3.107 1.227 1.908 1.144 3.516 2.725 4.824 4.742 1.363 2.017 2.044 4.498 2.044 7.441 0 3.107-.763 5.806-2.289 8.095-1.472 2.235-3.598 3.898-6.378 4.988v.164c3.598.763 6.351 2.398 8.259 4.906 1.907 2.507 2.862 5.56 2.862 9.158 0 2.126-.382 4.197-1.145 6.214a15.703 15.703 0 0 1-3.435 5.397c-1.471 1.526-3.325 2.78-5.56 3.761-2.18.927-4.715 1.39-7.604 1.39h-28.211V1.393Zm27.229 51.841c3.435 0 6.106-.927 8.014-2.78 1.962-1.854 2.943-4.416 2.943-7.686 0-1.908-.354-3.49-1.063-4.743-.708-1.254-1.662-2.235-2.861-2.944-1.145-.763-2.481-1.28-4.007-1.553a22.57 22.57 0 0 0-4.743-.49h-17.744v20.196h19.461Zm-3.924-26.738c4.415 0 7.577-.764 9.485-2.29 1.962-1.58 2.943-3.925 2.943-7.032 0-2.017-.327-3.625-.981-4.824-.654-1.254-1.553-2.208-2.698-2.862-1.145-.654-2.481-1.063-4.007-1.227a32.408 32.408 0 0 0-4.742-.327h-15.537v18.562h15.537ZM778.237 1.392h40.312v6.541h-32.544v18.562h30.337v6.541h-30.337v20.197h32.79v6.542h-40.558V1.392ZM706.929 1.392h7.768v23.794h17.417c5.778 0 10.193 1.5 13.246 4.498 3.107 2.943 4.661 7.223 4.661 12.837 0 5.56-1.554 9.84-4.661 12.838-3.053 2.944-7.468 4.416-13.246 4.416h-25.185V1.392Zm22.568 51.841c8.504 0 12.756-3.57 12.756-10.712 0-7.25-4.252-10.875-12.756-10.875h-14.8v21.587h14.8Zm28.21-51.841h7.768v58.383h-7.768V1.392ZM673.222 7.933h-19.461V1.392h46.69v6.541H680.99v51.842h-7.768V7.933ZM625.087 61.081c-4.524 0-8.476-.763-11.856-2.29-3.38-1.58-6.187-3.733-8.422-6.459-2.235-2.726-3.925-5.942-5.07-9.649-1.09-3.707-1.635-7.686-1.635-11.938 0-4.252.599-8.231 1.798-11.938 1.2-3.762 2.944-7.032 5.234-9.812 2.344-2.78 5.233-4.961 8.667-6.542C617.237.818 621.217 0 625.741 0c3.053 0 5.942.409 8.668 1.227 2.725.817 5.151 2.016 7.277 3.597 2.126 1.581 3.898 3.57 5.315 5.97 1.418 2.343 2.344 5.07 2.78 8.176h-7.768c-.872-4.143-2.807-7.25-5.805-9.321-2.944-2.072-6.46-3.108-10.548-3.108-3.489 0-6.487.655-8.995 1.963a18.003 18.003 0 0 0-6.133 5.315c-1.581 2.18-2.753 4.688-3.516 7.523a33.828 33.828 0 0 0-1.144 8.83c0 3.326.381 6.488 1.144 9.486.763 2.944 1.935 5.533 3.516 7.768 1.636 2.18 3.707 3.925 6.215 5.233 2.507 1.308 5.506 1.962 8.994 1.962 2.508 0 4.77-.408 6.787-1.226 2.017-.872 3.734-2.044 5.152-3.516 1.471-1.526 2.616-3.325 3.434-5.397.818-2.071 1.308-4.306 1.472-6.705h7.768c-.763 7.414-3.298 13.165-7.605 17.253-4.252 4.034-10.139 6.051-17.662 6.051ZM563.806 1.392h8.586l22.813 58.383h-8.586l-6.378-17.58h-24.694l-6.541 17.58h-7.932l22.732-58.383Zm13.982 34.26-9.73-27.228h-.164L558 35.653h19.788ZM527.403 34.753c-.655.273-1.581.6-2.781.981a77.29 77.29 0 0 1-3.843.982 89.908 89.908 0 0 1-4.415.9 30.704 30.704 0 0 1-4.334.326c-4.47 0-8.041-.545-10.712-1.635-2.671-1.09-4.742-2.508-6.214-4.252a14.146 14.146 0 0 1-2.862-5.97 34.945 34.945 0 0 1-.654-6.704V1.39h7.686v17.336c0 1.308.109 2.698.327 4.17a9.509 9.509 0 0 0 1.636 4.088c.872 1.254 2.153 2.29 3.843 3.107 1.69.818 4.006 1.227 6.95 1.227 3.652 0 6.76-.327 9.322-.981 2.616-.709 4.633-1.418 6.051-2.126V1.392h7.768v58.383h-7.768V34.753ZM434.206 1.392h8.586l22.813 58.383h-8.585l-6.378-17.58h-24.694l-6.542 17.58h-7.931l22.731-58.383Zm13.983 34.26-9.731-27.228h-.163l-9.894 27.229h19.788ZM359.332 1.392h7.768v25.103h30.745V1.392h7.768v58.383h-7.768V33.035H367.1v26.739h-7.768V1.392ZM265.266 1.392h7.768v23.794h17.416c5.779 0 10.194 1.5 13.247 4.498 3.107 2.943 4.661 7.223 4.661 12.837 0 5.56-1.554 9.84-4.661 12.838-3.053 2.944-7.468 4.416-13.247 4.416h-25.184V1.392Zm22.568 51.841c8.504 0 12.756-3.57 12.756-10.712 0-7.25-4.252-10.875-12.756-10.875h-14.8v21.587h14.8Zm28.21-51.841h7.768v58.383h-7.768V1.392ZM231.56 7.933h-19.461V1.392h46.69v6.541h-19.461v51.842h-7.768V7.933ZM168.325 1.392h40.312v6.541h-32.544v18.562h30.336v6.541h-30.336v20.197h32.789v6.542h-40.557V1.392ZM112.349 1.392h21.178c1.254 0 2.589.027 4.006.081 1.472 0 2.917.082 4.334.246 1.417.109 2.753.3 4.007.572 1.254.273 2.289.681 3.107 1.227 1.908 1.144 3.516 2.725 4.824 4.742 1.363 2.017 2.045 4.498 2.045 7.441 0 3.107-.764 5.806-2.29 8.095-1.472 2.235-3.598 3.898-6.378 4.988v.164c3.598.763 6.351 2.398 8.259 4.906 1.908 2.507 2.862 5.56 2.862 9.158 0 2.126-.382 4.197-1.145 6.214a15.7 15.7 0 0 1-3.434 5.397c-1.472 1.526-3.326 2.78-5.561 3.761-2.18.927-4.715 1.39-7.604 1.39h-28.21V1.393Zm27.229 51.841c3.434 0 6.105-.927 8.013-2.78 1.962-1.854 2.944-4.416 2.944-7.686 0-1.908-.355-3.49-1.063-4.743-.709-1.254-1.663-2.235-2.862-2.944-1.145-.763-2.481-1.28-4.007-1.553a22.57 22.57 0 0 0-4.743-.49h-17.743v20.196h19.461Zm-3.925-26.738c4.415 0 7.577-.764 9.485-2.29 1.962-1.58 2.944-3.925 2.944-7.032 0-2.017-.328-3.625-.982-4.824-.654-1.254-1.553-2.208-2.698-2.862-1.145-.654-2.48-1.063-4.007-1.227a32.398 32.398 0 0 0-4.742-.327h-15.536v18.562h15.536ZM78.643 7.933H59.182V1.392h46.69v6.541H86.411v51.842h-7.768V7.933ZM27.965 61.081c-4.634 0-8.695-.818-12.184-2.453-3.488-1.69-6.405-3.952-8.749-6.787-2.344-2.834-4.116-6.078-5.315-9.73C.572 38.459 0 34.615 0 30.58c0-3.979.572-7.795 1.717-11.447 1.2-3.707 2.971-6.978 5.315-9.812 2.344-2.835 5.26-5.097 8.75-6.787C19.27.845 23.331 0 27.964 0c4.634 0 8.695.845 12.183 2.535 3.49 1.69 6.406 3.952 8.75 6.787 2.344 2.834 4.088 6.105 5.233 9.812 1.2 3.652 1.799 7.468 1.799 11.447 0 4.034-.6 7.878-1.8 11.53-1.144 3.652-2.888 6.896-5.232 9.73-2.344 2.835-5.26 5.097-8.75 6.787-3.488 1.636-7.55 2.453-12.183 2.453Zm0-6.46c3.543 0 6.596-.68 9.158-2.044 2.562-1.417 4.66-3.27 6.296-5.56 1.636-2.29 2.835-4.852 3.598-7.686a34.12 34.12 0 0 0 1.145-8.75c0-2.943-.382-5.832-1.145-8.667-.763-2.89-1.962-5.479-3.598-7.768-1.635-2.29-3.734-4.116-6.296-5.479-2.562-1.417-5.615-2.126-9.158-2.126-3.543 0-6.596.71-9.158 2.126-2.562 1.363-4.661 3.19-6.296 5.479-1.636 2.29-2.835 4.879-3.598 7.768a33.196 33.196 0 0 0-1.145 8.667c0 2.944.382 5.86 1.145 8.75.763 2.834 1.962 5.396 3.598 7.686 1.635 2.29 3.734 4.143 6.296 5.56 2.562 1.363 5.615 2.044 9.158 2.044Z" fill="#252525"/></svg>