<svg width="370" height="32" fill="none" xmlns="http://www.w3.org/2000/svg"><path d="M356.8.585h3.609l9.59 24.542h-3.609l-2.681-7.39h-10.381l-2.75 7.39h-3.334L356.8.585Zm5.878 14.402-4.091-11.446h-.068l-4.16 11.446h8.319ZM335.962 3.335h-8.181V.585h19.627v2.75h-8.18v21.792h-3.266V3.335ZM314.775.585h3.609l9.59 24.542h-3.609l-2.681-7.39h-10.381l-2.75 7.39h-3.334L314.775.585Zm5.877 14.402-4.09-11.446h-.069l-4.159 11.446h8.318ZM283.593 25.471a6.36 6.36 0 0 1-1.1-.103c-.366-.046-.664-.126-.893-.24V22.17c.435.138.905.207 1.409.207 1.031 0 1.833-.527 2.406-1.582.596-1.077 1.031-2.578 1.306-4.502.275-1.925.447-4.217.516-6.875.069-2.681.103-5.626.103-8.834h15.399v24.542h-3.265V3.335h-8.937c-.023 1.948-.069 3.85-.138 5.706a73.245 73.245 0 0 1-.309 5.224 35.463 35.463 0 0 1-.653 4.503c-.298 1.375-.699 2.567-1.203 3.575-.505.986-1.135 1.753-1.891 2.303s-1.673.825-2.75.825ZM259.467.585h19.111v24.542h-3.265V3.335h-12.581v21.792h-3.265V.585ZM243.73 25.677c-1.948 0-3.655-.344-5.121-1.031-1.467-.71-2.693-1.662-3.678-2.853a12.448 12.448 0 0 1-2.235-4.09 16.117 16.117 0 0 1-.721-4.847c0-1.673.24-3.277.721-4.813.505-1.558 1.249-2.933 2.235-4.124.985-1.192 2.211-2.143 3.678-2.853C240.075.356 241.782 0 243.73 0c1.948 0 3.655.355 5.122 1.066 1.466.71 2.692 1.66 3.678 2.853.985 1.191 1.718 2.566 2.2 4.124a15.33 15.33 0 0 1 .756 4.813 15.44 15.44 0 0 1-.756 4.846 11.982 11.982 0 0 1-2.2 4.09c-.986 1.192-2.212 2.143-3.678 2.854-1.467.687-3.174 1.03-5.122 1.03Zm0-2.716c1.49 0 2.773-.286 3.85-.859a7.907 7.907 0 0 0 2.647-2.337 9.976 9.976 0 0 0 1.512-3.232c.321-1.214.481-2.44.481-3.677 0-1.238-.16-2.452-.481-3.644a9.934 9.934 0 0 0-1.512-3.265 7.574 7.574 0 0 0-2.647-2.303c-1.077-.596-2.36-.894-3.85-.894-1.489 0-2.773.298-3.85.894a7.562 7.562 0 0 0-2.646 2.303 9.916 9.916 0 0 0-1.513 3.265 13.946 13.946 0 0 0-.481 3.644c0 1.237.16 2.463.481 3.678a9.957 9.957 0 0 0 1.513 3.23 7.894 7.894 0 0 0 2.646 2.338c1.077.573 2.361.86 3.85.86ZM198.676.585h3.265v20.796L214.281.585h4.125v24.542h-3.265V4.263l-12.375 20.864h-4.09V.585ZM173.487.585h3.61l9.59 24.542h-3.609l-2.682-7.39h-10.38l-2.75 7.39h-3.334L173.487.585Zm5.878 14.402-4.09-11.446h-.069l-4.159 11.446h8.318Z" fill="#252525"/><path d="M143.893.585h3.265v11.893L159.601.585h4.228l-11.687 10.93 12.1 13.612h-4.125l-10.45-11.618-2.509 2.338v9.28h-3.265V.585ZM120.363.585h8.903c.527 0 1.088.011 1.684.034.619 0 1.226.035 1.822.103.596.046 1.157.126 1.684.241.527.115.963.287 1.306.516.803.48 1.479 1.145 2.029 1.993.572.848.859 1.89.859 3.128 0 1.306-.321 2.44-.963 3.403-.618.94-1.512 1.639-2.681 2.097v.069c1.513.32 2.67 1.008 3.472 2.062.802 1.054 1.203 2.338 1.203 3.85a7.32 7.32 0 0 1-.481 2.612 6.597 6.597 0 0 1-1.444 2.269c-.619.642-1.398 1.169-2.337 1.581-.917.39-1.982.584-3.197.584h-11.859V.585Zm11.447 21.793c1.443 0 2.566-.39 3.368-1.17.825-.778 1.238-1.855 1.238-3.23 0-.802-.149-1.467-.447-1.994a3.287 3.287 0 0 0-1.203-1.237 4.396 4.396 0 0 0-1.685-.653 9.482 9.482 0 0 0-1.993-.207h-7.459v8.49h8.181Zm-1.65-11.24c1.856 0 3.185-.321 3.987-.963.825-.664 1.237-1.65 1.237-2.956 0-.848-.137-1.524-.412-2.028a2.882 2.882 0 0 0-1.134-1.203c-.482-.275-1.043-.447-1.685-.516a13.61 13.61 0 0 0-1.993-.137h-6.531v7.802h6.531ZM104.741.585h3.609l9.591 24.542h-3.61l-2.681-7.39h-10.38l-2.75 7.39h-3.334L104.74.585Zm5.878 14.402-4.09-11.446h-.069l-4.159 11.446h8.318ZM83.903 3.335h-8.18V.585H95.35v2.75h-8.181v21.792h-3.266V3.335ZM63.67 25.677c-1.903 0-3.564-.321-4.985-.963-1.42-.664-2.6-1.57-3.54-2.715-.94-1.146-1.65-2.498-2.131-4.056-.459-1.558-.688-3.231-.688-5.019 0-1.787.252-3.46.756-5.018.505-1.581 1.238-2.956 2.2-4.125.986-1.169 2.2-2.085 3.644-2.75C60.37.344 62.042 0 63.944 0c1.284 0 2.498.172 3.644.516a9.793 9.793 0 0 1 3.06 1.512 8.425 8.425 0 0 1 2.233 2.51c.596.985.986 2.13 1.169 3.437h-3.265c-.367-1.742-1.18-3.048-2.44-3.919-1.238-.87-2.716-1.306-4.435-1.306-1.467 0-2.727.275-3.781.825a7.565 7.565 0 0 0-2.578 2.234c-.665.917-1.157 1.97-1.478 3.162a14.218 14.218 0 0 0-.481 3.713c0 1.398.16 2.727.48 3.987.322 1.237.814 2.326 1.479 3.265a7.623 7.623 0 0 0 2.612 2.2c1.054.55 2.315.825 3.781.825 1.054 0 2.005-.172 2.853-.515a6.604 6.604 0 0 0 2.166-1.478 6.857 6.857 0 0 0 1.444-2.269c.343-.87.55-1.81.618-2.819h3.266c-.321 3.117-1.387 5.534-3.197 7.253-1.787 1.696-4.262 2.544-7.425 2.544ZM37.795 25.677c-1.948 0-3.655-.344-5.122-1.031-1.467-.71-2.693-1.662-3.678-2.853a12.441 12.441 0 0 1-2.234-4.09 16.111 16.111 0 0 1-.722-4.847c0-1.673.24-3.277.722-4.813.504-1.558 1.249-2.933 2.234-4.124.985-1.192 2.211-2.143 3.678-2.853C34.14.356 35.847 0 37.795 0c1.947 0 3.655.355 5.121 1.066 1.467.71 2.693 1.66 3.678 2.853.986 1.191 1.719 2.566 2.2 4.124.504 1.536.756 3.14.756 4.813 0 1.695-.252 3.31-.756 4.846a11.961 11.961 0 0 1-2.2 4.09c-.985 1.192-2.211 2.143-3.678 2.854-1.466.687-3.173 1.03-5.121 1.03Zm0-2.716c1.49 0 2.773-.286 3.85-.859a7.9 7.9 0 0 0 2.646-2.337 9.964 9.964 0 0 0 1.513-3.232c.32-1.214.48-2.44.48-3.677 0-1.238-.16-2.452-.48-3.644a9.923 9.923 0 0 0-1.513-3.265 7.568 7.568 0 0 0-2.646-2.303c-1.078-.596-2.36-.894-3.85-.894-1.49 0-2.773.298-3.85.894a7.568 7.568 0 0 0-2.647 2.303 9.923 9.923 0 0 0-1.512 3.265 13.955 13.955 0 0 0-.482 3.644c0 1.237.16 2.463.482 3.678a9.964 9.964 0 0 0 1.512 3.23 7.9 7.9 0 0 0 2.647 2.338c1.077.573 2.36.86 3.85.86ZM0 22.378h2.406c.458-.825.882-1.857 1.272-3.094.39-1.237.722-2.59.997-4.056.298-1.49.527-3.06.687-4.71.16-1.672.24-3.356.24-5.052V.585h15.813v21.793h2.715v8.834h-3.128v-6.085H3.128v6.085H0v-8.834Zm18.15 0V3.335H8.764v3.54c0 1.513-.08 3.037-.24 4.572a41.026 41.026 0 0 1-.62 4.33 36.08 36.08 0 0 1-.893 3.748c-.32 1.145-.664 2.096-1.031 2.853h12.168Z" fill="#252525"/></svg>