<svg width="370" height="54" fill="none" xmlns="http://www.w3.org/2000/svg"><path d="M328.148 1.434h5.553v17.01h12.451c4.13 0 7.287 1.07 9.469 3.214 2.221 2.104 3.332 5.163 3.332 9.177 0 3.975-1.111 7.034-3.332 9.177-2.182 2.105-5.339 3.157-9.469 3.157h-18.004V1.434Zm16.133 37.058c6.079 0 9.119-2.552 9.119-7.657 0-5.183-3.04-7.774-9.119-7.774h-10.58v15.431h10.58Zm20.166-37.058H370v41.735h-5.553V1.434ZM304.052 6.11h-13.911V1.434h33.376V6.11h-13.912v37.059h-5.553V6.109ZM252.398 1.434h5.553v17.945h21.979V1.433h5.553v41.735h-5.553V24.055h-21.979v19.114h-5.553V1.434ZM216.666 1.434h28.817V6.11h-23.264v13.268h21.686v4.677h-21.686v14.438h23.439v4.676h-28.992V1.434ZM165.865 1.434h7.599l13.152 35.071 13.21-35.071h7.599v41.735h-5.261V8.448h-.117l-13.035 34.72h-4.734l-13.035-34.72h-.117v34.72h-5.261V1.435ZM136.094 43.812a8.655 8.655 0 0 1-1.988-.234c-.623-.117-1.149-.273-1.578-.468v-4.968a12.17 12.17 0 0 0 1.52.584 8.657 8.657 0 0 0 1.812.176c1.052 0 2.046-.37 2.981-1.11.935-.741 1.753-1.852 2.455-3.333l.701-1.461-16.483-31.564h6.02l13.386 26.128 10.404-26.128h5.904L147.2 33.699c-.819 1.949-1.657 3.566-2.514 4.852-.857 1.286-1.734 2.319-2.63 3.098-.897.78-1.851 1.325-2.864 1.637a9.08 9.08 0 0 1-3.098.526ZM91.027 1.434h5.553v20.224l21.16-20.224h7.19L105.056 20.02l20.575 23.148h-7.014l-17.77-19.757-4.267 3.975v15.782h-5.553V1.434ZM64.268 44.103c-3.312 0-6.215-.584-8.71-1.753-2.493-1.208-4.578-2.825-6.254-4.852-1.675-2.026-2.942-4.345-3.8-6.955-.817-2.611-1.227-5.359-1.227-8.242 0-2.845.41-5.573 1.228-8.184.857-2.65 2.124-4.988 3.8-7.014 1.675-2.026 3.76-3.643 6.254-4.852C58.053 1.043 60.956.44 64.269.44c3.311 0 6.215.604 8.709 1.812 2.494 1.208 4.578 2.826 6.254 4.852 1.676 2.026 2.923 4.364 3.74 7.014.858 2.611 1.287 5.339 1.287 8.184 0 2.883-.429 5.63-1.286 8.242-.818 2.61-2.065 4.929-3.741 6.955-1.676 2.027-3.76 3.644-6.254 4.852-2.494 1.169-5.398 1.753-8.71 1.753Zm0-4.617c2.533 0 4.715-.487 6.547-1.462 1.831-1.013 3.332-2.338 4.5-3.974 1.17-1.637 2.027-3.468 2.573-5.495.545-2.065.818-4.15.818-6.254 0-2.105-.273-4.17-.818-6.196-.546-2.066-1.403-3.917-2.572-5.553-1.17-1.637-2.67-2.942-4.501-3.917-1.832-1.013-4.014-1.52-6.547-1.52-2.533 0-4.715.507-6.547 1.52-1.831.975-3.331 2.28-4.5 3.917-1.17 1.636-2.027 3.487-2.572 5.553a23.729 23.729 0 0 0-.819 6.196c0 2.104.273 4.189.819 6.254.545 2.026 1.402 3.858 2.572 5.495 1.169 1.636 2.669 2.961 4.5 3.974 1.832.975 4.014 1.462 6.547 1.462ZM0 38.492h4.092c.78-1.402 1.5-3.156 2.162-5.26.663-2.104 1.228-4.404 1.696-6.898a80.649 80.649 0 0 0 1.169-8.008c.272-2.844.409-5.709.409-8.592v-8.3h26.888v37.058h4.618v15.023h-5.32V43.169H5.32v10.346H0V38.492Zm30.863 0V6.11H14.905v6.02c0 2.572-.136 5.164-.409 7.775a69.773 69.773 0 0 1-1.052 7.365 61.362 61.362 0 0 1-1.52 6.37c-.545 1.95-1.13 3.567-1.753 4.852h20.692Z" fill="#252525"/></svg>