<svg width="370" height="58" fill="none" xmlns="http://www.w3.org/2000/svg"><path d="M325.715 1.519h7.329v46.677l27.698-46.677h9.259v55.087h-7.33V9.774l-27.775 46.832h-9.181V1.519ZM293.911 7.69h-18.362V1.52h44.054V7.69h-18.362v48.915h-7.33V7.69ZM248.494 57.84c-4.269 0-7.999-.72-11.188-2.16-3.189-1.492-5.837-3.523-7.946-6.095-2.109-2.572-3.704-5.607-4.784-9.104-1.028-3.498-1.543-7.253-1.543-11.265 0-4.012.566-7.766 1.698-11.264 1.131-3.549 2.777-6.635 4.937-9.258 2.212-2.623 4.938-4.68 8.179-6.172 3.24-1.543 6.995-2.315 11.264-2.315 2.88 0 5.606.386 8.178 1.157 2.572.772 4.861 1.903 6.867 3.395 2.006 1.492 3.677 3.369 5.015 5.632 1.337 2.212 2.211 4.784 2.623 7.716h-7.33c-.823-3.91-2.649-6.841-5.478-8.796-2.777-1.954-6.095-2.932-9.952-2.932-3.292 0-6.121.617-8.487 1.852a16.977 16.977 0 0 0-5.787 5.015c-1.491 2.057-2.597 4.423-3.317 7.098a31.916 31.916 0 0 0-1.08 8.332c0 3.138.36 6.121 1.08 8.95.72 2.778 1.826 5.22 3.317 7.33 1.543 2.057 3.498 3.703 5.864 4.937 2.366 1.235 5.195 1.852 8.487 1.852 2.366 0 4.5-.386 6.404-1.157 1.903-.823 3.523-1.929 4.86-3.318 1.389-1.44 2.469-3.137 3.241-5.092.771-1.954 1.234-4.063 1.388-6.326h7.33c-.72 6.995-3.112 12.421-7.175 16.279-4.012 3.806-9.567 5.71-16.665 5.71ZM190.414 57.84c-4.372 0-8.204-.771-11.496-2.314-3.292-1.595-6.044-3.73-8.256-6.404-2.211-2.675-3.883-5.735-5.014-9.181-1.081-3.446-1.621-7.073-1.621-10.879 0-3.755.54-7.355 1.621-10.801 1.131-3.498 2.803-6.584 5.014-9.259 2.212-2.674 4.964-4.809 8.256-6.403 3.292-1.595 7.124-2.392 11.496-2.392 4.372 0 8.204.797 11.495 2.392 3.292 1.594 6.044 3.729 8.256 6.403 2.211 2.675 3.857 5.761 4.937 9.259 1.132 3.446 1.698 7.046 1.698 10.801 0 3.806-.566 7.433-1.698 10.879-1.08 3.446-2.726 6.506-4.937 9.18-2.212 2.675-4.964 4.81-8.256 6.405-3.291 1.543-7.123 2.314-11.495 2.314Zm0-6.095c3.343 0 6.223-.643 8.641-1.929 2.417-1.337 4.397-3.086 5.94-5.246 1.544-2.16 2.675-4.578 3.395-7.252a32.2 32.2 0 0 0 1.08-8.256c0-2.777-.36-5.503-1.08-8.178-.72-2.726-1.851-5.17-3.395-7.33-1.543-2.16-3.523-3.883-5.94-5.169-2.418-1.337-5.298-2.006-8.641-2.006-3.344 0-6.224.669-8.642 2.006-2.417 1.286-4.397 3.01-5.94 5.17-1.543 2.16-2.675 4.603-3.395 7.329-.72 2.675-1.08 5.4-1.08 8.178 0 2.778.36 5.53 1.08 8.256.72 2.674 1.852 5.092 3.395 7.252s3.523 3.909 5.94 5.246c2.418 1.286 5.298 1.93 8.642 1.93ZM114.299 1.519h19.982c1.183 0 2.444.025 3.781.077 1.389 0 2.752.077 4.089.231a27.86 27.86 0 0 1 3.78.54c1.183.257 2.161.643 2.932 1.158 1.8 1.08 3.318 2.571 4.552 4.474 1.286 1.903 1.929 4.244 1.929 7.021 0 2.932-.72 5.478-2.16 7.638-1.389 2.11-3.395 3.678-6.018 4.707v.154c3.395.72 5.992 2.263 7.792 4.63 1.801 2.365 2.701 5.246 2.701 8.64 0 2.006-.36 3.96-1.08 5.864a14.83 14.83 0 0 1-3.241 5.092c-1.389 1.44-3.137 2.623-5.246 3.549-2.058.874-4.449 1.312-7.175 1.312h-26.618V1.519Zm25.692 48.914c3.24 0 5.76-.874 7.561-2.623 1.851-1.749 2.777-4.166 2.777-7.252 0-1.8-.334-3.292-1.003-4.475a7.372 7.372 0 0 0-2.7-2.777c-1.08-.72-2.34-1.21-3.781-1.466a21.295 21.295 0 0 0-4.475-.463h-16.742v19.056h18.363Zm-3.704-25.229c4.167 0 7.15-.72 8.95-2.16 1.852-1.491 2.778-3.703 2.778-6.635 0-1.903-.309-3.42-.926-4.552-.617-1.183-1.466-2.083-2.546-2.7-1.08-.618-2.341-1.003-3.781-1.158a30.576 30.576 0 0 0-4.475-.308h-14.659v17.514h14.659ZM78.98 57.84c-4.372 0-8.204-.771-11.496-2.314-3.292-1.595-6.043-3.73-8.255-6.404-2.212-2.675-3.883-5.735-5.015-9.181-1.08-3.446-1.62-7.073-1.62-10.879 0-3.755.54-7.355 1.62-10.801 1.132-3.498 2.803-6.584 5.015-9.259 2.212-2.674 4.963-4.809 8.255-6.403C70.776 1.004 74.608.207 78.98.207c4.372 0 8.204.797 11.496 2.392 3.292 1.594 6.043 3.729 8.255 6.403 2.212 2.675 3.858 5.761 4.938 9.259 1.131 3.446 1.697 7.046 1.697 10.801 0 3.806-.566 7.433-1.697 10.879-1.08 3.446-2.726 6.506-4.938 9.18-2.212 2.675-4.963 4.81-8.255 6.405-3.292 1.543-7.124 2.314-11.496 2.314Zm0-6.095c3.343 0 6.224-.643 8.641-1.929 2.418-1.337 4.398-3.086 5.94-5.246 1.544-2.16 2.675-4.578 3.396-7.252a32.195 32.195 0 0 0 1.08-8.256c0-2.777-.36-5.503-1.08-8.178-.72-2.726-1.852-5.17-3.395-7.33s-3.523-3.883-5.94-5.169C85.203 7.048 82.322 6.38 78.98 6.38c-3.343 0-6.224.669-8.641 2.006-2.418 1.286-4.398 3.01-5.94 5.17-1.544 2.16-2.675 4.603-3.396 7.329-.72 2.675-1.08 5.4-1.08 8.178 0 2.778.36 5.53 1.08 8.256.72 2.674 1.852 5.092 3.395 7.252s3.523 3.909 5.94 5.246c2.418 1.286 5.299 1.93 8.642 1.93ZM0 1.519h7.33v23.685h29.009V1.52h7.33v55.087h-7.33v-25.23H7.329v25.23H0V1.519Z" fill="#252525"/></svg>