<svg width="1260" height="145" fill="none" xmlns="http://www.w3.org/2000/svg"><path d="M1260 65.037V79.03l-24.17 19.082V84.437l15.9-12.404-15.9-12.403V45.955L1260 65.037Zm-31.17 0V79.03l-24.17 19.082V84.437l15.9-12.404-15.9-12.403V45.955l24.17 19.082ZM1091.97 2.703h15.11v48.818h59.79V2.703h15.1V116.24h-15.1V64.242h-59.79v51.997h-15.11V2.703ZM977.215 2.703h15.106v48.818h59.789V2.703h15.11V116.24h-15.11V64.242h-59.789v51.997h-15.106V2.703ZM910.959 65.673h45.955v12.721h-45.955V65.673ZM811.524 2.703h15.107v46.273h35.46c11.237 0 19.824 2.916 25.76 8.746 6.043 5.725 9.064 14.046 9.064 24.965 0 10.813-3.021 19.135-9.064 24.966-5.936 5.724-14.523 8.586-25.76 8.586h-50.567V2.703Zm45.478 100.815c16.538 0 24.807-6.943 24.807-20.83 0-14.1-8.269-21.15-24.807-21.15h-30.371v41.98h30.371ZM698.319 2.703h88.412V116.24h-15.106V15.424h-58.199V116.24h-15.107V2.703ZM601.11 2.703h78.394v12.721h-63.287v36.097h58.994v12.72h-58.994v39.277h63.764v12.721H601.11V2.703ZM571.419 116.239h-84.755V2.703h15.106v100.815h56.768V2.703h15.107v100.815h12.244v40.867h-14.47v-28.146ZM408.604 79.03V65.037l24.171-19.082V59.63l-15.902 12.403 15.902 12.403v13.676L408.604 79.03Zm31.167 0V65.037l24.17-19.082V59.63L448.04 72.033l15.901 12.403v13.676l-24.17-19.082ZM296.01 118.783c-9.011 0-16.909-1.59-23.693-4.77-6.785-3.286-12.456-7.686-17.015-13.198-4.558-5.513-8.004-11.82-10.336-18.923-2.226-7.102-3.339-14.576-3.339-22.42 0-7.74 1.113-15.16 3.339-22.263 2.332-7.208 5.778-13.569 10.336-19.081 4.559-5.513 10.23-9.912 17.015-13.199C279.101 1.643 286.999 0 296.01 0c9.011 0 16.908 1.643 23.693 4.93 6.784 3.286 12.456 7.685 17.014 13.198 4.559 5.512 7.951 11.873 10.177 19.081 2.332 7.103 3.499 14.524 3.499 22.262 0 7.845-1.167 15.319-3.499 22.421-2.226 7.103-5.618 13.41-10.177 18.923-4.558 5.512-10.23 9.912-17.014 13.198-6.785 3.18-14.682 4.77-23.693 4.77Zm0-12.562c6.89 0 12.827-1.325 17.809-3.975 4.983-2.756 9.064-6.36 12.244-10.813 3.181-4.452 5.513-9.435 6.997-14.947a66.362 66.362 0 0 0 2.226-17.015 64.56 64.56 0 0 0-2.226-16.855c-1.484-5.619-3.816-10.654-6.997-15.107-3.18-4.452-7.261-8.003-12.244-10.654-4.982-2.756-10.919-4.134-17.809-4.134-6.891 0-12.827 1.378-17.81 4.134-4.982 2.65-9.064 6.202-12.244 10.654-3.18 4.453-5.512 9.488-6.997 15.107a64.56 64.56 0 0 0-2.226 16.855c0 5.725.742 11.396 2.226 17.015 1.485 5.512 3.817 10.495 6.997 14.947 3.18 4.452 7.262 8.057 12.244 10.813 4.983 2.65 10.919 3.975 17.81 3.975ZM175.196 118.783c-9.011 0-16.908-1.59-23.693-4.77-6.784-3.286-12.456-7.686-17.014-13.198-4.559-5.513-8.004-11.82-10.336-18.923-2.226-7.102-3.34-14.576-3.34-22.42 0-7.74 1.114-15.16 3.34-22.263 2.332-7.208 5.777-13.569 10.336-19.081 4.558-5.513 10.23-9.912 17.014-13.199C158.288 1.643 166.185 0 175.196 0c9.011 0 16.909 1.643 23.693 4.93 6.785 3.286 12.456 7.685 17.015 13.198 4.558 5.512 7.951 11.873 10.177 19.081 2.332 7.103 3.498 14.524 3.498 22.262 0 7.845-1.166 15.319-3.498 22.421-2.226 7.103-5.619 13.41-10.177 18.923-4.559 5.512-10.23 9.912-17.015 13.198-6.784 3.18-14.682 4.77-23.693 4.77Zm0-12.562c6.891 0 12.827-1.325 17.81-3.975 4.982-2.756 9.064-6.36 12.244-10.813 3.18-4.452 5.512-9.435 6.997-14.947a66.362 66.362 0 0 0 2.226-17.015 64.56 64.56 0 0 0-2.226-16.855c-1.485-5.619-3.817-10.654-6.997-15.107-3.18-4.452-7.262-8.003-12.244-10.654-4.983-2.756-10.919-4.134-17.81-4.134-6.89 0-12.827 1.378-17.809 4.134-4.983 2.65-9.064 6.202-12.244 10.654-3.181 4.453-5.513 9.488-6.997 15.107a64.56 64.56 0 0 0-2.226 16.855c0 5.725.742 11.396 2.226 17.015 1.484 5.512 3.816 10.495 6.997 14.947 3.18 4.452 7.261 8.057 12.244 10.813 4.982 2.65 10.919 3.975 17.809 3.975ZM54.383 118.783c-9.011 0-16.909-1.59-23.693-4.77-6.785-3.286-12.456-7.686-17.015-13.198-4.558-5.513-8.004-11.82-10.336-18.923C1.113 74.79 0 67.316 0 59.472c0-7.74 1.113-15.16 3.34-22.263 2.332-7.208 5.777-13.569 10.335-19.081 4.559-5.513 10.23-9.912 17.015-13.199C37.474 1.643 45.372 0 54.383 0c9.01 0 16.908 1.643 23.693 4.93 6.785 3.286 12.456 7.685 17.014 13.198C99.65 23.64 103.041 30 105.267 37.209c2.333 7.103 3.499 14.524 3.499 22.262 0 7.845-1.166 15.319-3.499 22.421-2.226 7.103-5.618 13.41-10.177 18.923-4.558 5.512-10.23 9.912-17.014 13.198-6.785 3.18-14.682 4.77-23.693 4.77Zm0-12.562c6.89 0 12.827-1.325 17.81-3.975 4.982-2.756 9.063-6.36 12.243-10.813 3.18-4.452 5.513-9.435 6.997-14.947A66.358 66.358 0 0 0 93.66 59.47c0-5.724-.742-11.343-2.226-16.855-1.484-5.619-3.816-10.654-6.997-15.107-3.18-4.452-7.261-8.003-12.244-10.654-4.982-2.756-10.919-4.134-17.81-4.134-6.89 0-12.826 1.378-17.809 4.134-4.982 2.65-9.064 6.202-12.244 10.654-3.18 4.453-5.512 9.488-6.997 15.107a64.556 64.556 0 0 0-2.226 16.855c0 5.725.742 11.396 2.226 17.015 1.485 5.512 3.817 10.495 6.997 14.947 3.18 4.452 7.262 8.057 12.244 10.813 4.983 2.65 10.92 3.975 17.81 3.975Z" fill="#fff"/></svg>