<svg width="370" height="125" fill="none" xmlns="http://www.w3.org/2000/svg"><path d="M370 89.531v6.081l-10.504 8.293v-5.943l6.91-5.39-6.91-5.39v-5.943L370 89.53Zm-13.545 0v6.081l-10.504 8.293v-5.943l6.911-5.39-6.911-5.39v-5.943l10.504 8.292ZM296.977 62.442h6.564v21.215h25.984V62.442h6.565v49.341h-6.565V89.186h-25.984v22.597h-6.564v-49.34ZM247.107 62.442h6.565v21.215h25.984V62.442h6.564v49.341h-6.564V89.186h-25.984v22.597h-6.565v-49.34ZM218.314 89.808h19.972v5.528h-19.972v-5.528ZM175.1 62.442h6.565v20.11h15.41c4.883 0 8.615 1.267 11.195 3.8 2.626 2.488 3.939 6.105 3.939 10.85 0 4.699-1.313 8.315-3.939 10.849-2.58 2.488-6.312 3.732-11.195 3.732H175.1v-49.34Zm19.763 43.812c7.187 0 10.781-3.017 10.781-9.052 0-6.127-3.594-9.191-10.781-9.191h-13.198v18.243h13.198ZM125.904 62.442h38.422v49.341h-6.565V67.971h-25.292v43.812h-6.565v-49.34ZM83.658 62.442h34.069v5.529H90.223v15.686h25.638v5.529H90.223v17.068h27.711v5.529H83.658v-49.34ZM70.757 111.783H33.924v-49.34h6.565v43.811h24.67V62.442h6.565v43.812h5.32v17.76h-6.287v-12.231ZM0 95.612v-6.08l10.504-8.293v5.943l-6.91 5.39 6.91 5.39v5.943L0 95.612Zm13.544 0v-6.08l10.504-8.293v5.943l-6.91 5.39 6.91 5.39v5.943l-10.504-8.293ZM128.64 51.621c-3.916 0-7.349-.691-10.297-2.073-2.948-1.428-5.413-3.34-7.394-5.736-1.981-2.395-3.478-5.137-4.492-8.223-.967-3.087-1.451-6.335-1.451-9.744 0-3.363.484-6.588 1.451-9.675 1.014-3.132 2.511-5.897 4.492-8.292 1.981-2.396 4.446-4.308 7.394-5.736C121.291.714 124.724 0 128.64 0c3.915 0 7.348.714 10.296 2.142 2.949 1.428 5.413 3.34 7.394 5.736 1.981 2.396 3.455 5.16 4.423 8.292 1.013 3.087 1.52 6.312 1.52 9.675 0 3.41-.507 6.657-1.52 9.744-.968 3.086-2.442 5.828-4.423 8.223-1.981 2.396-4.445 4.308-7.394 5.736-2.948 1.382-6.381 2.073-10.296 2.073Zm0-5.46c2.994 0 5.574-.575 7.739-1.727 2.166-1.198 3.939-2.764 5.321-4.699 1.382-1.935 2.396-4.1 3.041-6.496.645-2.441.967-4.906.967-7.394 0-2.488-.322-4.93-.967-7.325-.645-2.442-1.659-4.63-3.041-6.565-1.382-1.935-3.155-3.478-5.321-4.63-2.165-1.198-4.745-1.797-7.739-1.797-2.995 0-5.575.6-7.74 1.797-2.165 1.152-3.939 2.695-5.321 4.63-1.382 1.935-2.396 4.123-3.041 6.565a28.053 28.053 0 0 0-.967 7.325c0 2.488.322 4.953.967 7.394.645 2.396 1.659 4.561 3.041 6.496 1.382 1.935 3.156 3.501 5.321 4.7 2.165 1.15 4.745 1.727 7.74 1.727ZM76.136 51.621c-3.916 0-7.349-.691-10.297-2.073-2.948-1.428-5.413-3.34-7.394-5.736-1.981-2.395-3.478-5.137-4.492-8.223-.967-3.087-1.451-6.335-1.451-9.744 0-3.363.484-6.588 1.451-9.675 1.014-3.132 2.51-5.897 4.492-8.292 1.98-2.396 4.446-4.308 7.394-5.736C68.787.714 72.22 0 76.136 0c3.916 0 7.348.714 10.296 2.142 2.949 1.428 5.413 3.34 7.394 5.736 1.981 2.396 3.456 5.16 4.423 8.292 1.014 3.087 1.52 6.312 1.52 9.675 0 3.41-.506 6.657-1.52 9.744-.967 3.086-2.442 5.828-4.423 8.223-1.98 2.396-4.445 4.308-7.394 5.736-2.948 1.382-6.38 2.073-10.296 2.073Zm0-5.46c2.994 0 5.574-.575 7.74-1.727 2.165-1.198 3.938-2.764 5.32-4.699 1.383-1.935 2.396-4.1 3.041-6.496a28.84 28.84 0 0 0 .967-7.394c0-2.488-.322-4.93-.967-7.325-.645-2.442-1.658-4.63-3.04-6.565-1.383-1.935-3.156-3.478-5.322-4.63-2.165-1.198-4.745-1.797-7.74-1.797-2.994 0-5.574.6-7.739 1.797-2.165 1.152-3.939 2.695-5.321 4.63-1.382 1.935-2.396 4.123-3.04 6.565a28.057 28.057 0 0 0-.968 7.325c0 2.488.322 4.953.967 7.394.645 2.396 1.659 4.561 3.04 6.496 1.383 1.935 3.157 3.501 5.322 4.7 2.165 1.15 4.745 1.727 7.74 1.727ZM23.634 51.621c-3.916 0-7.348-.691-10.297-2.073-2.948-1.428-5.413-3.34-7.394-5.736-1.981-2.395-3.478-5.137-4.492-8.223C.484 32.502 0 29.254 0 25.845c0-3.363.484-6.588 1.451-9.675 1.014-3.132 2.511-5.897 4.492-8.292 1.981-2.396 4.446-4.308 7.394-5.736C16.286.714 19.717 0 23.634 0c3.916 0 7.348.714 10.296 2.142 2.949 1.428 5.413 3.34 7.394 5.736 1.981 2.396 3.456 5.16 4.423 8.292 1.014 3.087 1.52 6.312 1.52 9.675 0 3.41-.506 6.657-1.52 9.744-.967 3.086-2.442 5.828-4.423 8.223-1.98 2.396-4.445 4.308-7.394 5.736-2.948 1.382-6.38 2.073-10.296 2.073Zm0-5.46c2.994 0 5.574-.575 7.74-1.727 2.165-1.198 3.938-2.764 5.32-4.699 1.383-1.935 2.396-4.1 3.041-6.496.645-2.441.968-4.906.968-7.394 0-2.488-.323-4.93-.968-7.325-.645-2.442-1.658-4.63-3.04-6.565-1.383-1.935-3.156-3.478-5.322-4.63-2.165-1.198-4.745-1.797-7.74-1.797-2.994 0-5.574.6-7.739 1.797-2.165 1.152-3.939 2.695-5.321 4.63-1.382 1.935-2.396 4.123-3.04 6.565a28.054 28.054 0 0 0-.968 7.325c0 2.488.322 4.953.967 7.394.645 2.396 1.659 4.561 3.041 6.496 1.382 1.935 3.156 3.501 5.321 4.7 2.165 1.15 4.745 1.727 7.74 1.727Z" fill="#fff"/></svg>