<svg width="372" height="116" fill="none" xmlns="http://www.w3.org/2000/svg"><path d="M348.985 82.101c-3.112-.456-5.665-1.784-7.657-3.984s-2.988-5.187-2.988-8.964c0-4.233 1.225-7.429 3.673-9.587 2.49-2.158 5.935-3.236 10.334-3.236h19.048v44.446h-5.851V82.475h-9.898l-13.757 18.301h-7.346l14.442-18.675Zm16.559-4.606V61.309h-11.205c-3.237 0-5.727.623-7.47 1.868-1.743 1.245-2.615 3.237-2.615 5.976 0 2.74.851 4.814 2.552 6.225 1.743 1.411 4.254 2.117 7.533 2.117h11.205ZM294.9 56.33h5.914V93.99l22.348-37.661h7.47v44.446h-5.914V62.99l-22.41 37.786H294.9V56.33ZM284.25 100.776h-33.18V56.33h5.914v39.466h22.224V56.33h5.913v39.467h4.794v15.999h-5.665v-11.019ZM210.521 56.33h5.914v21.538L238.97 56.33h7.657l-21.165 19.795 21.912 24.651h-7.47l-18.924-21.04-4.545 4.233v16.807h-5.914V56.33ZM179.912 101.461a9.217 9.217 0 0 1-2.117-.249c-.664-.124-1.224-.29-1.68-.498v-5.291c.539.249 1.079.456 1.618.622a9.226 9.226 0 0 0 1.93.187c1.12 0 2.179-.394 3.175-1.183.996-.788 1.867-1.97 2.614-3.548l.747-1.556-17.554-33.615h6.411l14.256 27.826 11.08-27.827h6.288l-14.94 34.363c-.872 2.075-1.764 3.797-2.677 5.167-.913 1.37-1.847 2.469-2.802 3.299-.954.83-1.971 1.411-3.05 1.743a9.674 9.674 0 0 1-3.299.56ZM124.765 95.796h4.357c.83-1.494 1.598-3.361 2.303-5.602.706-2.241 1.308-4.69 1.806-7.346.539-2.697.954-5.54 1.245-8.528.29-3.03.436-6.08.436-9.15v-8.84h28.635v39.466h4.918v15.999H162.8v-11.019h-32.371v11.019h-5.664V95.796Zm32.868 0V61.31h-16.994v6.412c0 2.74-.146 5.5-.436 8.28a74.3 74.3 0 0 1-1.121 7.843 65.342 65.342 0 0 1-1.618 6.786c-.581 2.075-1.204 3.797-1.868 5.166h22.037ZM43.345 56.33h19.484c4.524 0 7.927 1.162 10.21 3.486 2.282 2.282 3.423 5.498 3.423 9.648 0 4.15-1.141 7.387-3.424 9.711-2.282 2.283-5.685 3.424-10.209 3.424H49.26v18.177h-5.914V56.33Zm17.492 21.29c3.362 0 5.81-.686 7.346-2.055 1.577-1.411 2.365-3.445 2.365-6.1 0-2.657-.788-4.67-2.365-6.039-1.536-1.411-3.984-2.117-7.346-2.117H49.258v16.31h11.58ZM0 56.33h34.611v44.446h-5.913V61.31H5.914v39.466H0V56.33ZM157.457 0h6.536l17.368 44.447h-6.536l-4.856-13.384H151.17l-4.98 13.384h-6.039L157.457 0Zm10.645 26.083-7.408-20.73h-.124l-7.533 20.73h15.065ZM83.433 0h5.913v39.467h17.742V0h5.914v39.467h17.741V0h5.914v44.447H83.433V0ZM56.117 0h6.537L80.02 44.447h-6.536L68.63 31.063h-18.8l-4.98 13.384h-6.038L56.117 0Zm10.645 26.083-7.408-20.73h-.124l-7.533 20.73h15.065ZM.088 0h5.914v19.11h23.406V0h5.914v44.447h-5.914V24.09H6.002v20.356H.088V0Z" fill="#fff"/><path d="M101.845 71.614v9.175m0 0 4.588-4.588m-4.588 4.588-4.588-4.588" stroke="#fff" stroke-width="2" stroke-linecap="square"/><path d="m102.226 54.956 18.4 10.623v21.245l-18.4 10.623-18.399-10.623V65.58l18.399-10.623Z" stroke="#fff" stroke-width="3"/></svg>