<svg width="1258" height="130" fill="none" xmlns="http://www.w3.org/2000/svg"><path d="M1208.75 64.428c-6.84-1.003-12.45-3.921-16.83-8.755-4.37-4.834-6.56-11.4-6.56-19.7 0-9.303 2.69-16.325 8.07-21.068 5.47-4.742 13.04-7.114 22.71-7.114H1258v97.678h-12.86v-40.22h-21.75l-30.24 40.22h-16.14l31.74-41.04Zm36.39-10.123v-35.57h-24.62c-7.12 0-12.59 1.369-16.42 4.105-3.83 2.736-5.75 7.114-5.75 13.133 0 6.02 1.87 10.58 5.61 13.68 3.83 3.101 9.35 4.652 16.56 4.652h24.62ZM1089.89 7.791h13v82.767L1152 7.79h16.41v97.678h-12.99v-83.04l-49.25 83.04h-16.28V7.791ZM1066.48 105.469h-72.915V7.791h12.995v86.734h48.84V7.791h13v86.734h10.53v35.159h-12.45v-24.215ZM904.455 7.791h12.996v47.334l49.523-47.334h16.827l-46.513 43.504 48.155 54.174h-16.416l-41.589-46.24-9.987 9.303v36.937h-12.996V7.791ZM837.188 106.974c-1.55 0-3.101-.182-4.651-.547-1.459-.274-2.691-.638-3.694-1.094V93.704a28.465 28.465 0 0 0 3.557 1.368c1.277.274 2.691.41 4.241.41 2.463 0 4.788-.866 6.977-2.599 2.189-1.732 4.104-4.332 5.746-7.797l1.641-3.42L812.427 7.79h14.091l31.328 61.152L882.197 7.79h13.817l-32.833 75.516c-1.915 4.56-3.876 8.345-5.883 11.355-2.006 3.01-4.058 5.426-6.156 7.25-2.097 1.825-4.332 3.101-6.703 3.831-2.28.821-4.697 1.231-7.251 1.231ZM715.995 94.525h9.576c1.824-3.283 3.511-7.387 5.062-12.312 1.55-4.925 2.873-10.306 3.967-16.143 1.186-5.928 2.098-12.176 2.736-18.742a210.7 210.7 0 0 0 .958-20.11V7.79h62.929v86.734h10.808v35.159h-12.449v-24.215h-71.138v24.215h-12.449V94.525Zm72.232 0v-75.79H750.88v14.092c0 6.019-.32 12.084-.958 18.194-.547 6.02-1.368 11.765-2.462 17.238-1.004 5.38-2.189 10.351-3.557 14.911-1.277 4.56-2.645 8.345-4.104 11.355h48.428ZM537.062 7.791h42.82c9.941 0 17.42 2.554 22.436 7.661 5.016 5.016 7.524 12.085 7.524 21.205 0 9.12-2.508 16.234-7.524 21.341-5.016 5.017-12.495 7.525-22.436 7.525h-29.823v39.946h-12.997V7.791Zm38.442 46.787c7.388 0 12.769-1.505 16.143-4.514 3.466-3.101 5.199-7.57 5.199-13.407s-1.733-10.26-5.199-13.27c-3.374-3.1-8.755-4.651-16.143-4.651h-25.445v35.842h25.445ZM441.807 7.791h76.063v97.678h-12.997V18.736h-50.07v86.733h-12.996V7.791ZM345.839 7.791h14.364l38.168 97.678h-14.364l-10.671-29.412h-41.315l-10.944 29.412h-13.27l38.032-97.678Zm23.393 57.321-16.28-45.555h-.273l-16.553 45.555h33.106ZM183.162 7.791h12.996v86.734h38.99V7.791h12.996v86.734h38.989V7.791h12.996v97.678H183.162V7.791ZM123.131 7.791h14.364l38.169 97.678h-14.365l-10.67-29.412h-41.315L98.37 105.469H85.1L123.13 7.791Zm23.394 57.321-16.28-45.555h-.274l-16.553 45.555h33.107ZM0 7.791h12.996v42h51.439v-42H77.43v97.678H64.435V60.735H12.996v44.734H0V7.791Z" fill="#fff"/><mask id="a" style="mask-type:alpha" maskUnits="userSpaceOnUse" x="621" y="0" width="90" height="103"><path fill="#D9D9D9" d="M621 0h90v103h-90z"/></mask><g mask="url(#a)" stroke="#fff"><path d="M665.622 41.38v20.165m0 0 10.082-10.082m-10.082 10.082L655.54 51.463" stroke-width="4" stroke-linecap="square"/><path d="m666.463 4.43 40.731 23.517v47.032l-40.731 23.516-40.732-23.516V27.947L666.463 4.43Z" stroke-width="6"/></g></svg>