<svg width="370" height="126" fill="none" xmlns="http://www.w3.org/2000/svg"><path d="M138.191 61.268h6.86v43.598l25.92-43.598h8.665v51.453h-6.859V68.979l-25.993 43.742h-8.593V61.268ZM89.894 61.268h40.145v51.453h-6.859V67.033H96.754v45.688h-6.86V61.268ZM48.86 61.268h35.596v5.765H55.72V83.39h26.787v5.765H55.72v17.8h28.953v5.765H48.86V61.268ZM38.484 112.721H0V61.268h6.86v45.688h25.776V61.268h6.859v45.688h5.56v18.521h-6.57v-12.756ZM334.188 1.223h35.596v5.765h-28.737v16.359h26.787v5.765h-26.787v17.8H370v5.765h-35.812V1.223ZM274.327 1.223h6.859v20.97h15.38c5.102 0 9.001 1.322 11.696 3.964 2.744 2.595 4.116 6.366 4.116 11.314 0 4.9-1.372 8.672-4.116 11.314-2.695 2.595-6.594 3.892-11.696 3.892h-22.239V1.223Zm19.928 45.689c7.509 0 11.264-3.147 11.264-9.44 0-6.39-3.755-9.585-11.264-9.585h-13.069v19.025h13.069Zm24.91-45.689h6.859v51.454h-6.859V1.223ZM225.325 1.223h6.859v22.124h27.149V1.223h6.859v51.454h-6.859V29.112h-27.149v23.565h-6.859V1.223ZM181.259 1.223h6.859v20.97h16.101c5.103 0 9.002 1.322 11.697 3.964 2.744 2.595 4.116 6.366 4.116 11.314 0 4.9-1.372 8.672-4.116 11.314-2.695 2.595-6.594 3.892-11.697 3.892h-22.96V1.223Zm20.65 45.689c7.509 0 11.263-3.147 11.263-9.44 0-6.39-3.754-9.585-11.263-9.585h-13.791v19.025h13.791ZM132.874 53.398c-.722 0-1.492-.073-2.31-.217-.77-.096-1.396-.264-1.877-.504v-6.198a9.795 9.795 0 0 0 2.96.433c2.166 0 3.851-1.105 5.054-3.315 1.252-2.258 2.166-5.405 2.744-9.44.577-4.036.938-8.84 1.083-14.413.144-5.621.216-11.795.216-18.52h32.347v51.453h-6.859V6.988h-18.773a469.656 469.656 0 0 1-.289 11.963 152.375 152.375 0 0 1-.649 10.954c-.289 3.41-.746 6.557-1.372 9.44-.626 2.883-1.468 5.38-2.527 7.495-1.059 2.066-2.383 3.675-3.971 4.828-1.589 1.153-3.514 1.73-5.777 1.73Z" fill="#252525"/><path d="M103.89 1.223h7.581l20.145 51.454h-7.582l-5.631-15.494H96.597l-5.776 15.494h-7.004L103.89 1.223Zm12.346 30.195-8.592-23.997h-.144l-8.737 23.997h17.473ZM63.226 6.988H46.042V1.223H87.27v5.765H70.086v45.689h-6.86V6.988ZM23.827 53.83c-3.995 0-7.485-.673-10.47-2.018-2.984-1.393-5.463-3.29-7.436-5.693-1.974-2.402-3.466-5.237-4.477-8.504C.481 34.35 0 30.841 0 27.095c0-3.748.53-7.255 1.588-10.522 1.06-3.315 2.6-6.197 4.621-8.648 2.07-2.45 4.621-4.372 7.654-5.765C16.895.72 20.409-.002 24.405-.002c2.695 0 5.246.36 7.653 1.081 2.407.72 4.549 1.778 6.426 3.171 1.877 1.393 3.442 3.147 4.693 5.26 1.252 2.066 2.07 4.469 2.455 7.207h-6.86c-.77-3.651-2.478-6.39-5.125-8.215-2.6-1.826-5.704-2.739-9.315-2.739-3.08 0-5.728.577-7.942 1.73a15.883 15.883 0 0 0-5.415 4.684c-1.396 1.922-2.431 4.132-3.105 6.63a29.753 29.753 0 0 0-1.01 7.783c0 2.93.336 5.717 1.01 8.36.674 2.593 1.709 4.875 3.105 6.845 1.444 1.922 3.273 3.46 5.487 4.612 2.215 1.153 4.862 1.73 7.943 1.73 2.214 0 4.211-.36 5.992-1.081 1.781-.769 3.298-1.802 4.55-3.099 1.299-1.345 2.31-2.93 3.032-4.756s1.155-3.795 1.3-5.91h6.859c-.674 6.535-2.913 11.603-6.715 15.206-3.755 3.555-8.953 5.333-15.596 5.333Z" fill="#252525"/></svg>