<svg width="1260" height="144" fill="none" xmlns="http://www.w3.org/2000/svg"><path d="M1168.68 2.7h15.12v96.064l57.11-96.065H1260v113.372h-15.11V19.689l-57.28 96.382h-18.93V2.699ZM1062.27 2.7h88.45V116.07h-15.11V15.402h-58.23v100.669h-15.11V2.699ZM971.852 2.7h78.428v12.702h-63.315v36.044h59.025V64.15h-59.025v39.219h63.795v12.703h-78.908V2.699ZM948.989 116.071h-84.796V2.699h15.114v100.669h56.795V2.699h15.114v100.669h12.25v40.808h-14.477v-28.105ZM736.343 2.7h78.431v12.702h-63.318v36.044h59.023V64.15h-59.023v39.219h63.796v12.703h-78.909V2.699ZM604.447 2.7h15.114v46.206h33.886c11.243 0 19.833 2.91 25.773 8.733 6.045 5.716 9.068 14.026 9.068 24.929 0 10.797-3.023 19.107-9.068 24.929-5.94 5.716-14.53 8.574-25.773 8.574h-49V2.699Zm43.909 100.668c16.546 0 24.818-6.933 24.818-20.8 0-14.08-8.272-21.118-24.818-21.118h-28.795v41.918h28.795ZM703.243 2.699h15.113v113.372h-15.113V2.699ZM496.478 2.7h15.113v48.746h59.818V2.7h15.114v113.372h-15.114V64.149h-59.818v51.922h-15.113V2.699ZM399.384 2.7h15.113v46.206h35.478c11.242 0 19.833 2.91 25.772 8.733 6.046 5.716 9.068 14.026 9.068 24.929 0 10.797-3.022 19.107-9.068 24.929-5.939 5.716-14.53 8.574-25.772 8.574h-50.591V2.699Zm45.5 100.668c16.545 0 24.818-6.933 24.818-20.8 0-14.08-8.273-21.118-24.818-21.118h-30.387v41.918h30.387ZM292.774 117.659c-1.591 0-3.288-.159-5.091-.476-1.697-.212-3.076-.583-4.136-1.112v-13.655c2.015.635 4.189.952 6.523.952 4.772 0 8.484-2.434 11.136-7.304 2.758-4.975 4.773-11.908 6.045-20.8 1.273-8.892 2.069-19.478 2.387-31.757.318-12.385.477-25.988.477-40.808h71.273v113.372h-15.114V15.402H324.91c-.106 8.998-.318 17.784-.636 26.358-.212 8.469-.689 16.514-1.432 24.135-.636 7.516-1.644 14.45-3.022 20.801-1.379 6.352-3.235 11.856-5.569 16.514-2.333 4.551-5.25 8.098-8.75 10.638-3.5 2.541-7.742 3.811-12.727 3.811Z" fill="#252525"/><path d="M228.911 2.7h16.704l44.387 113.371h-16.705l-12.409-34.138h-48.045l-12.728 34.138h-15.431L228.911 2.699Zm27.204 66.53-18.932-52.875h-.318l-19.25 52.875h38.5ZM139.31 15.402h-37.864V2.7h90.841v12.703h-37.864v100.669H139.31V15.402ZM52.5 118.612c-8.803 0-16.492-1.482-23.068-4.446-6.576-3.07-12.038-7.252-16.387-12.544-4.348-5.293-7.636-11.539-9.863-18.737C1.06 75.687 0 67.96 0 59.703c0-8.257 1.167-15.985 3.5-23.183 2.333-7.304 5.727-13.655 10.182-19.054 4.56-5.398 10.182-9.633 16.863-12.702C37.227 1.588 44.97 0 53.773 0c5.939 0 11.56.794 16.863 2.382C75.94 3.97 80.66 6.298 84.796 9.368c4.136 3.07 7.583 6.934 10.34 11.591 2.758 4.552 4.56 9.845 5.409 15.879H85.432c-1.697-8.045-5.463-14.079-11.296-18.102-5.727-4.022-12.568-6.033-20.522-6.033-6.788 0-12.622 1.27-17.5 3.81-4.773 2.541-8.75 5.981-11.932 10.321-3.076 4.235-5.356 9.104-6.841 14.609-1.485 5.504-2.227 11.22-2.227 17.148 0 6.457.742 12.597 2.227 18.42 1.485 5.715 3.765 10.743 6.84 15.084 3.183 4.234 7.213 7.621 12.092 10.162 4.878 2.54 10.712 3.811 17.5 3.811 4.878 0 9.28-.794 13.204-2.382 3.924-1.694 7.265-3.97 10.023-6.828 2.864-2.964 5.09-6.457 6.682-10.48 1.59-4.022 2.545-8.362 2.863-13.02h15.114c-1.485 14.396-6.417 25.564-14.796 33.504-8.272 7.833-19.727 11.75-34.363 11.75Z" fill="#252525"/></svg>