<svg width="370" height="30" fill="none" xmlns="http://www.w3.org/2000/svg"><path d="M353.295 29.612c-.44 0-.88-.051-1.321-.155a4.613 4.613 0 0 1-1.049-.31v-3.303c.337.155.674.285 1.011.389.362.077.764.116 1.204.116.699 0 1.36-.246 1.981-.738.622-.492 1.166-1.23 1.632-2.214l.466-.972-10.955-20.978h4.001l8.896 17.366 6.915-17.366H370l-9.324 21.445c-.543 1.294-1.1 2.37-1.67 3.224-.57.855-1.153 1.541-1.748 2.059-.596.518-1.23.88-1.904 1.088a6.03 6.03 0 0 1-2.059.35ZM323.344 1.447h3.69V14.89l14.063-13.442h4.779l-13.209 12.354 13.675 15.384h-4.662l-11.81-13.13-2.836 2.641v10.489h-3.69V1.447ZM296.75 1.447h10.062c.595 0 1.23.013 1.903.04.7 0 1.386.038 2.059.116.674.051 1.308.142 1.904.272.596.13 1.088.323 1.476.582.907.544 1.671 1.295 2.292 2.254.648.958.971 2.136.971 3.535 0 1.476-.362 2.758-1.087 3.846-.7 1.062-1.71 1.851-3.031 2.37v.077c1.71.363 3.018 1.14 3.924 2.331.907 1.191 1.36 2.642 1.36 4.351 0 1.01-.181 1.994-.544 2.953a7.468 7.468 0 0 1-1.632 2.564c-.699.725-1.58 1.32-2.641 1.787-1.036.44-2.241.66-3.613.66H296.75V1.447Zm12.937 24.63c1.631 0 2.9-.44 3.807-1.32.932-.881 1.398-2.099 1.398-3.652 0-.907-.168-1.658-.505-2.254a3.707 3.707 0 0 0-1.36-1.398c-.543-.363-1.178-.609-1.903-.738a10.722 10.722 0 0 0-2.253-.233h-8.43v9.595h9.246Zm-1.865-12.703c2.098 0 3.6-.363 4.506-1.088.933-.751 1.399-1.865 1.399-3.341 0-.958-.156-1.722-.466-2.292a3.263 3.263 0 0 0-1.282-1.36c-.544-.31-1.179-.505-1.904-.582a15.39 15.39 0 0 0-2.253-.156h-7.381v8.819h7.381ZM276.669 17.53c-1.942-.284-3.535-1.113-4.778-2.486-1.243-1.372-1.865-3.237-1.865-5.594 0-2.642.764-4.636 2.292-5.983 1.554-1.346 3.704-2.02 6.449-2.02h11.888v27.738h-3.652V17.764h-6.177l-8.586 11.421h-4.584l9.013-11.654Zm10.334-2.874v-10.1h-6.993c-2.02 0-3.574.388-4.662 1.165s-1.631 2.02-1.631 3.729c0 1.71.531 3.004 1.592 3.885 1.088.88 2.655 1.32 4.701 1.32h6.993Z" fill="#252525"/><path d="M253.03 1.447h4.079l10.839 27.738h-4.079l-3.03-8.352h-11.732l-3.108 8.352h-3.769l10.8-27.738Zm6.643 16.278L255.05 4.788h-.077l-4.701 12.937h9.401ZM229.945 29.805c-1.658 0-3.186-.194-4.584-.583-1.399-.388-2.616-.984-3.652-1.787a8.309 8.309 0 0 1-2.37-3.03c-.57-1.217-.855-2.668-.855-4.351h3.536c.025 1.243.259 2.305.699 3.186a6.422 6.422 0 0 0 1.787 2.097c.751.518 1.619.894 2.603 1.127.984.233 2.033.35 3.146.35.959 0 1.852-.13 2.681-.389.829-.285 1.541-.673 2.137-1.165a5.43 5.43 0 0 0 1.437-1.826c.363-.725.544-1.528.544-2.409 0-1.01-.194-1.826-.583-2.447a3.863 3.863 0 0 0-1.554-1.476c-.621-.363-1.359-.61-2.214-.739a17.116 17.116 0 0 0-2.642-.194c-.388 0-.829.013-1.321.039-.492 0-.88.013-1.165.039v-3.03c.311.051.725.077 1.243.077h1.243c.881 0 1.684-.077 2.409-.233.751-.181 1.385-.466 1.903-.854a3.745 3.745 0 0 0 1.244-1.516c.31-.647.466-1.437.466-2.37 0-.854-.169-1.566-.505-2.136a3.506 3.506 0 0 0-1.321-1.36c-.544-.362-1.179-.621-1.904-.777a10.18 10.18 0 0 0-2.214-.233c-2.046 0-3.652.454-4.817 1.36-1.166.88-1.852 2.33-2.059 4.351h-3.535c.051-1.476.349-2.758.893-3.846.57-1.114 1.321-2.02 2.253-2.72.933-.724 2.02-1.268 3.264-1.631 1.269-.363 2.641-.544 4.117-.544 1.321 0 2.551.156 3.691.466 1.165.285 2.176.738 3.03 1.36a6.626 6.626 0 0 1 2.02 2.37c.492.932.738 2.046.738 3.34 0 .752-.129 1.451-.388 2.099a6.287 6.287 0 0 1-1.049 1.748 6.715 6.715 0 0 1-3.147 2.175v.117c.907.181 1.71.492 2.409.932a6.21 6.21 0 0 1 1.748 1.515 6.336 6.336 0 0 1 1.049 1.982c.233.725.35 1.463.35 2.214 0 .854-.195 1.787-.583 2.797-.389 1.01-1.023 1.955-1.904 2.836-.854.88-1.968 1.619-3.341 2.214-1.346.57-2.991.855-4.933.855ZM183.883 1.447h3.69v11.305h8.664c2.745 0 4.843.712 6.293 2.137 1.476 1.398 2.214 3.431 2.214 6.099 0 2.642-.738 4.675-2.214 6.1-1.45 1.398-3.548 2.097-6.293 2.097h-12.354V1.447Zm11.11 24.63c4.041 0 6.061-1.696 6.061-5.089 0-3.444-2.02-5.167-6.061-5.167h-7.42v10.256h7.42ZM167.871 4.555h-9.246V1.447h22.182v3.108h-9.245v24.63h-3.691V4.555ZM133.199 1.447h3.691v23.504l13.946-23.504h4.662v27.738h-3.69V5.605l-13.986 23.58h-4.623V1.447ZM106.604 1.447h10.061c.596 0 1.23.013 1.904.04.699 0 1.385.038 2.059.116.673.051 1.308.142 1.903.272.596.13 1.088.323 1.477.582.906.544 1.67 1.295 2.292 2.254.647.958.971 2.136.971 3.535 0 1.476-.363 2.758-1.088 3.846-.699 1.062-1.709 1.851-3.03 2.37v.077c1.709.363 3.017 1.14 3.924 2.331.906 1.191 1.359 2.642 1.359 4.351 0 1.01-.181 1.994-.544 2.953a7.45 7.45 0 0 1-1.631 2.564c-.699.725-1.58 1.32-2.642 1.787-1.036.44-2.24.66-3.613.66h-13.402V1.447Zm12.936 24.63c1.632 0 2.901-.44 3.807-1.32.933-.881 1.399-2.099 1.399-3.652 0-.907-.169-1.658-.505-2.254a3.714 3.714 0 0 0-1.36-1.398c-.544-.363-1.178-.609-1.904-.738a10.722 10.722 0 0 0-2.253-.233h-8.43v9.595h9.246Zm-1.865-12.703c2.098 0 3.6-.363 4.507-1.088.932-.751 1.398-1.865 1.398-3.341 0-.958-.155-1.722-.466-2.292-.311-.596-.738-1.049-1.282-1.36-.544-.31-1.178-.505-1.903-.582-.7-.104-1.451-.156-2.254-.156h-7.381v8.819h7.381ZM88.948 1.447h4.08l10.838 27.738h-4.079l-3.03-8.352H85.025l-3.108 8.352h-3.769l10.8-27.738Zm6.643 16.278L90.968 4.788h-.077l-4.7 12.937h9.4ZM65.398 4.555h-9.246V1.447h22.183v3.108h-9.246v24.63h-3.69V4.555ZM42.53 29.805c-2.149 0-4.026-.363-5.632-1.088-1.606-.75-2.94-1.774-4.002-3.069-1.061-1.295-1.864-2.823-2.408-4.584-.518-1.761-.777-3.652-.777-5.672 0-2.02.285-3.91.855-5.672.57-1.787 1.398-3.34 2.486-4.662 1.114-1.32 2.486-2.356 4.118-3.107C38.8 1.174 40.692.785 42.842.785c1.45 0 2.823.194 4.118.583 1.295.388 2.447.958 3.457 1.71a9.522 9.522 0 0 1 2.525 2.835c.674 1.114 1.114 2.409 1.321 3.885h-3.69c-.415-1.968-1.334-3.445-2.759-4.429-1.398-.984-3.069-1.476-5.011-1.476-1.658 0-3.082.31-4.273.932a8.55 8.55 0 0 0-2.914 2.526c-.751 1.035-1.308 2.227-1.67 3.574a16.068 16.068 0 0 0-.544 4.195c0 1.58.18 3.082.543 4.507.363 1.398.92 2.628 1.67 3.69a8.613 8.613 0 0 0 2.953 2.486c1.192.622 2.616.933 4.274.933 1.191 0 2.266-.194 3.224-.583a7.464 7.464 0 0 0 2.448-1.67 7.748 7.748 0 0 0 1.631-2.564c.389-.985.622-2.046.7-3.186h3.69c-.362 3.522-1.567 6.255-3.613 8.197-2.02 1.917-4.817 2.875-8.391 2.875ZM13.286 29.805c-2.201 0-4.13-.389-5.788-1.165-1.658-.803-3.043-1.878-4.157-3.225-1.114-1.347-1.955-2.888-2.525-4.623A18.208 18.208 0 0 1 0 15.314c0-1.89.272-3.703.816-5.438.57-1.761 1.411-3.315 2.525-4.662 1.114-1.347 2.5-2.422 4.157-3.225C9.155 1.187 11.085.785 13.286.785c2.202 0 4.131.402 5.789 1.204 1.657.803 3.043 1.878 4.156 3.225 1.114 1.347 1.943 2.9 2.487 4.662.57 1.735.854 3.548.854 5.439 0 1.916-.285 3.742-.854 5.477a13.522 13.522 0 0 1-2.487 4.623c-1.113 1.347-2.499 2.422-4.156 3.225-1.658.776-3.587 1.165-5.789 1.165Zm0-3.07c1.684 0 3.134-.323 4.351-.97a8.93 8.93 0 0 0 2.991-2.642 11.258 11.258 0 0 0 1.71-3.652 16.21 16.21 0 0 0 .544-4.156c0-1.4-.182-2.772-.544-4.118a11.211 11.211 0 0 0-1.71-3.691 8.554 8.554 0 0 0-2.99-2.603c-1.218-.673-2.668-1.01-4.352-1.01-1.683 0-3.134.337-4.35 1.01a8.553 8.553 0 0 0-2.992 2.603 11.213 11.213 0 0 0-1.71 3.69 15.772 15.772 0 0 0-.543 4.119c0 1.398.18 2.784.543 4.156a11.26 11.26 0 0 0 1.71 3.652 8.93 8.93 0 0 0 2.991 2.642c1.217.647 2.668.97 4.351.97Z" fill="#252525"/></svg>