<svg width="390" height="80" fill="none" xmlns="http://www.w3.org/2000/svg"><path d="M335.246 64.298V0h13.594v26.529h27.597V0h13.562v64.298h-13.562v-26.56H348.84v26.56h-13.594ZM269.285 64.298V0h13.594v26.529h27.597V0h13.563v64.298h-13.563v-26.56h-27.597v26.56h-13.594ZM257.638 32.588V43.2h-29.324V32.588h29.324ZM184 30.893h14.41c6.384 0 11.365 1.528 14.944 4.584 3.579 3.034 5.369 7.095 5.369 12.18 0 3.308-.806 6.217-2.418 8.729-1.611 2.49-3.934 4.437-6.969 5.84-3.035 1.38-6.677 2.071-10.926 2.071h-22.793V16.074h12.778V53.78h10.015c2.24 0 4.082-.565 5.526-1.695 1.444-1.13 2.176-2.575 2.197-4.333-.021-1.863-.753-3.38-2.197-4.552-1.444-1.193-3.286-1.79-5.526-1.79H184V30.893ZM122.779 64.297V16.074h42.164v48.223h-12.778V26.592H135.4v37.705h-12.621ZM91.917 65.24c-4.96 0-9.23-1.005-12.809-3.014-3.558-2.03-6.3-4.898-8.226-8.603-1.925-3.725-2.888-8.131-2.888-13.217 0-4.96.963-9.314 2.888-13.06 1.926-3.747 4.636-6.667 8.132-8.76 3.516-2.093 7.64-3.14 12.37-3.14 3.181 0 6.143.513 8.884 1.539 2.763 1.005 5.17 2.522 7.221 4.552 2.072 2.03 3.684 4.584 4.835 7.66 1.151 3.057 1.727 6.636 1.727 10.738v3.673h-40.72V35.32h28.131c0-1.926-.419-3.632-1.256-5.118a8.998 8.998 0 0 0-3.485-3.485c-1.465-.858-3.171-1.287-5.118-1.287-2.03 0-3.83.471-5.4 1.413a9.905 9.905 0 0 0-3.641 3.736c-.88 1.549-1.33 3.276-1.35 5.18v7.88c0 2.386.44 4.448 1.318 6.185.9 1.738 2.166 3.077 3.799 4.019 1.633.942 3.569 1.413 5.808 1.413 1.486 0 2.847-.21 4.082-.628 1.234-.419 2.291-1.047 3.17-1.884s1.549-1.863 2.01-3.077l12.369.817c-.627 2.972-1.915 5.567-3.861 7.786-1.926 2.197-4.416 3.914-7.472 5.148-3.035 1.214-6.54 1.822-10.518 1.822ZM61.943 53.435l-.785 26.058H48.223V64.298h-4.52V53.434h18.24ZM0 64.297V0h13.06v53.372h26.75V0h13.217v64.297H0Z" fill="#fff"/></svg>