<svg width="370" height="53" fill="none" xmlns="http://www.w3.org/2000/svg"><path d="M330.645 1.958h6.513V43.44l24.615-41.482h8.228v48.956h-6.513V9.294l-24.684 41.62h-8.159V1.958ZM280.559 1.958h6.513V43.44l24.616-41.482h8.227v48.956h-6.513V9.294l-24.684 41.62h-8.159V1.958ZM251.303 52.01c-3.794 0-7.108-.64-9.943-1.92-2.834-1.325-5.188-3.13-7.062-5.416-1.874-2.285-3.291-4.982-4.251-8.09-.914-3.109-1.371-6.446-1.371-10.011 0-3.566.503-6.902 1.508-10.01 1.006-3.155 2.469-5.897 4.388-8.229 1.966-2.331 4.389-4.16 7.268-5.485 2.88-1.371 6.217-2.057 10.011-2.057 2.56 0 4.983.343 7.268 1.028 2.286.686 4.32 1.692 6.102 3.017 1.783 1.326 3.269 2.994 4.457 5.006 1.189 1.965 1.966 4.25 2.331 6.856h-6.513c-.732-3.474-2.354-6.08-4.868-7.816-2.469-1.737-5.417-2.606-8.845-2.606-2.926 0-5.44.549-7.543 1.646a15.085 15.085 0 0 0-5.142 4.457c-1.326 1.828-2.309 3.93-2.949 6.308a28.4 28.4 0 0 0-.959 7.405c0 2.788.32 5.44.959 7.954.64 2.468 1.623 4.64 2.949 6.513 1.371 1.829 3.108 3.291 5.211 4.388 2.102 1.097 4.617 1.646 7.542 1.646 2.103 0 4-.343 5.691-1.029 1.691-.73 3.131-1.714 4.32-2.948 1.234-1.28 2.194-2.788 2.879-4.525.686-1.737 1.098-3.611 1.235-5.623h6.513c-.64 6.217-2.765 11.04-6.376 14.468-3.566 3.382-8.502 5.074-14.81 5.074ZM181.592 1.958h6.514v21.05h25.78V1.958h6.514v48.956h-6.514V28.493h-25.78v22.421h-6.514V1.958ZM150.432 1.958h7.2l19.13 48.956h-7.2l-5.348-14.742h-20.707l-5.485 14.742h-6.651l19.061-48.956Zm11.725 28.73-8.159-22.833h-.137l-8.297 22.832h16.593Z" fill="#252525"/><path d="M91.398 1.958h6.514v23.724l24.821-23.724h8.434l-23.313 21.804 24.135 27.152h-8.227L102.918 27.74 97.912 32.4v18.513h-6.514V1.958ZM60.24 1.958h7.199l19.13 48.956h-7.2L74.02 36.172H53.314l-5.485 14.742h-6.651L60.239 1.958Zm11.724 28.73-8.16-22.833h-.137l-8.296 22.832h16.593ZM0 1.958h17.759c1.05 0 2.17.023 3.36.069 1.233 0 2.445.068 3.633.205 1.189.092 2.309.252 3.36.48 1.051.229 1.92.572 2.606 1.029 1.6.96 2.948 2.285 4.045 3.977 1.143 1.69 1.714 3.77 1.714 6.239 0 2.605-.64 4.868-1.92 6.788-1.234 1.874-3.017 3.268-5.348 4.183v.137c3.017.64 5.325 2.011 6.925 4.114 1.6 2.102 2.4 4.662 2.4 7.68 0 1.782-.32 3.519-.96 5.21-.64 1.691-1.6 3.2-2.88 4.525-1.234 1.28-2.788 2.332-4.662 3.154-1.829.778-3.954 1.166-6.377 1.166H0V1.958Zm22.832 43.47c2.88 0 5.12-.776 6.72-2.33 1.646-1.555 2.468-3.703 2.468-6.446 0-1.6-.297-2.925-.891-3.977a6.552 6.552 0 0 0-2.4-2.468c-.96-.64-2.08-1.074-3.36-1.303a18.934 18.934 0 0 0-3.976-.411H6.513v16.936h16.32Zm-3.29-22.42c3.702 0 6.353-.64 7.953-1.92 1.645-1.326 2.468-3.291 2.468-5.897 0-1.691-.274-3.04-.823-4.045-.548-1.052-1.302-1.851-2.262-2.4-.96-.548-2.08-.891-3.36-1.028a27.174 27.174 0 0 0-3.977-.275H6.514v15.565H19.54Z" fill="#252525"/></svg>