<svg xmlns="http://www.w3.org/2000/svg"><style>:root svg:not(:target){display:none}</style><svg viewBox="0 0 26 26" fill="none" id="arrow_big"><path d="M2 24 25 1m0 0H2m23 0v23" stroke="#252525" stroke-width="2" stroke-linecap="square"/></svg><svg viewBox="0 0 15 15" fill="none" id="arrow_small"><path d="m1.5 13 12-12m0 0h-12m12 0v12" stroke="#252525" stroke-width="1.5" stroke-linecap="square"/></svg><svg viewBox="0 0 17 17" fill="none" id="burger_close"><path d="M1 16 16 1M1 1l15 15" stroke="#fff" stroke-linecap="square"/></svg><svg viewBox="0 0 18 11" fill="none" id="burger_open"><path fill="#252525" d="M0 .75h18v1.5H0zM0 4.75h18v1.5H0zM0 8.75h18v1.5H0z"/></svg><svg viewBox="0 0 48 48" id="socials_hexagon"><path d="M35.711 3.715 47.423 24 35.71 44.285H12.29L.577 24 12.29 3.715H35.71Z"/></svg><svg viewBox="0 0 18 16" id="socials_telegram"><path d="M16.785.1.84 6.29C-.248 6.73-.24 7.343.64 7.616L4.735 8.9l9.472-6.017c.448-.274.857-.126.52.174L7.053 10.03H7.05l.002.001-.283 4.249c.414 0 .597-.191.829-.417l1.988-1.946 4.136 3.076c.762.422 1.31.205 1.5-.711l2.715-12.884C18.216.277 17.513-.232 16.785.1Z"/></svg><svg viewBox="0 0 18 11" id="socials_vk"><path d="M10.9 4.988c-.33-.123-.33-.59-.35-.917-.082-1.161.33-2.934-.165-3.688-.35-.448-2.036-.407-3.065-.346-.288.041-.637.102-.884.225-.247.122-.494.326-.494.509 0 .264.618.224.843.57.247.367.247 1.161.247 1.813 0 .754-.124 1.753-.432 1.793-.473.02-.74-.448-.987-.794A13.564 13.564 0 0 1 4.255 1.83C4.07 1.402 3.967.933 3.699.75 3.288.464 2.547.444 1.827.464 1.17.484.222.403.037.79c-.144.428.165.836.33 1.182.843 1.814 1.748 3.403 2.859 4.91C4.255 8.289 5.221 9.41 7.114 10c.535.163 2.88.632 3.353 0 .165-.245.124-.795.206-1.202.082-.408.185-.815.576-.836.33-.02.514.265.72.47.227.223.412.407.576.61.391.388.803.917 1.296 1.122.68.285 1.728.204 2.716.163.802-.02 1.378-.184 1.44-.652.042-.368-.37-.897-.617-1.203-.618-.753-.905-.978-1.605-1.67-.309-.307-.7-.633-.7-1-.02-.223.165-.427.33-.651.72-1.06 1.44-1.813 2.098-2.914.185-.326.617-1.08.453-1.447-.185-.407-1.214-.285-1.852-.285-.823 0-1.893-.062-2.099.101-.39.265-.555.694-.74 1.101-.412.938-.967 1.895-1.543 2.608-.206.245-.597.754-.823.672Z"/></svg><svg viewBox="0 0 18 13" id="socials_youtube"><path fill-rule="evenodd" clip-rule="evenodd" d="M7.19 8.627v-5.05c1.793.844 3.181 1.659 4.824 2.537-1.355.752-3.031 1.594-4.824 2.513Zm9.992-7.562c-.31-.408-.836-.725-1.398-.83-1.65-.313-11.94-.314-13.589 0C1.745.32 1.345.524 1 .84-.45 2.187.004 9.407.354 10.576c.147.506.337.871.576 1.111.309.317.73.535 1.216.633 1.358.28 8.355.438 13.61.042.484-.084.912-.31 1.25-.64 1.341-1.34 1.25-8.966.176-10.657Z"/></svg></svg>