<svg xmlns="http://www.w3.org/2000/svg"><style>:root svg:not(:target){display:none}</style><svg viewBox="0 0 46 30" fill="none" id="chain"><path d="m21.543 19.707 5.171-5.158c5.073-5.061.158-17.216-10.266-12.471-.995.453-1.862 1.154-2.636 1.926L2.972 14.818C-2.784 20.56 4.95 33.12 14.708 26.526" stroke="#000" stroke-width="2" stroke-linecap="round"/><path d="m24.457 9.877-5.17 5.273c-5.074 5.173-.159 17.598 10.265 12.748.996-.463 1.862-1.18 2.636-1.968l10.84-11.055c5.756-5.87-1.978-18.708-11.736-11.968" stroke="#000" stroke-width="2" stroke-linecap="round"/></svg><svg viewBox="0 0 26 26" fill="none" id="arrow_big"><path d="M2 24 25 1m0 0H2m23 0v23" stroke="#252525" stroke-width="2" stroke-linecap="square"/></svg><svg viewBox="0 0 15 15" fill="none" id="arrow_small"><path d="m1.5 13 12-12m0 0h-12m12 0v12" stroke="#252525" stroke-width="1.5" stroke-linecap="square"/></svg><svg viewBox="0 0 12 12" fill="none" id="arrow_tiny"><path d="m2 10 9-9m0 0H2m9 0v9" stroke="#252525" stroke-width="1.5" stroke-linecap="square"/></svg><svg viewBox="0 0 17 17" fill="none" id="burger_close"><path d="M1 16 16 1M1 1l15 15" stroke="#fff" stroke-linecap="square"/></svg><svg viewBox="0 0 18 11" fill="none" id="burger_open"><path fill="#252525" d="M0 .75h18v1.5H0zM0 4.75h18v1.5H0zM0 8.75h18v1.5H0z"/></svg><svg viewBox="0 0 28 28" fill="none" id="categories_car"><circle cx="22" cy="19.5" r="1.5" stroke="#252525"/><circle cx="6" cy="19.5" r="1.5" stroke="#252525"/><path d="M4.5 19.5H1a.5.5 0 0 1-.5-.5v0-5a8 8 0 0 1 8-8h2m10 5v0a5 5 0 0 0-5-5h-5M1 11h9.5m13 8.5H27a.5.5 0 0 0 .5-.5v0-5a3 3 0 0 0-3-3h-14m-3 8.5h4m9 0h-4M10.5 6v5m3 8.5h1" stroke="#252525" stroke-linecap="round"/><path d="M11 19c0-2.21-2.239-4-5-4s-5 1.79-5 4M27 19c0-2.21-2.239-4-5-4s-5 1.79-5 4" stroke="#252525"/></svg><svg viewBox="0 0 28 28" fill="none" id="categories_conveyor"><path d="m11.286 15.51 1.29 1.29a.5.5 0 0 1 0 .707l-6.281 6.28a.5.5 0 0 1-.707 0l-1.29-1.289a.5.5 0 0 1 0-.707l6.281-6.28a.5.5 0 0 1 .707 0ZM22.6 4.197l1.29 1.29a.5.5 0 0 1 0 .706l-6.281 6.281a.5.5 0 0 1-.707 0l-1.29-1.29a.5.5 0 0 1 0-.706l6.281-6.281a.5.5 0 0 1 .707 0Z" stroke="#252525" stroke-linecap="round"/><path d="m2.323 15.864 3.952 3.952 3.951-3.952a1 1 0 0 1 1.414 0l.583.582a1 1 0 0 1 0 1.415L8.27 21.812l3.952 3.952a1 1 0 0 0 1.414 0l12.229-12.23a1 1 0 0 0 0-1.413l-3.952-3.952 1.622-1.622a1 1 0 0 0 0-1.414l-.582-.583a1 1 0 0 0-1.414 0l-1.622 1.623-3.952-3.952a1 1 0 0 0-1.414 0L2.323 14.45a1 1 0 0 0 0 1.414Z" stroke="#252525" stroke-linecap="round"/><path d="m11.89 20.772-1.29-1.29 1.622-1.621a1 1 0 0 0 0-1.415l-.582-.582a1 1 0 0 0-1.415 0l-1.622 1.622-1.29-1.29a1 1 0 0 1 0-1.413l7.57-7.57a1 1 0 0 1 1.415 0l1.29 1.289-1.623 1.622a1 1 0 0 0 0 1.414l.583.582a1 1 0 0 0 1.414 0l1.622-1.622 1.29 1.29a1 1 0 0 1 0 1.414l-7.57 7.57a1 1 0 0 1-1.415 0Z" stroke="#252525" stroke-linecap="round"/></svg><svg viewBox="0 0 28 28" fill="none" id="categories_forklift"><circle cx="14.736" cy="4.946" fill="#252525" r=".491"/><path d="M6.873 22.127a2.445 2.445 0 1 1-4.89 0 2.445 2.445 0 0 1 4.89 0ZM17.673 22.127a2.445 2.445 0 1 1-4.89 0 2.445 2.445 0 0 1 4.89 0Z" stroke="#252525"/><path d="M27.5 24.582h-4.89a1 1 0 0 1-1-1v-6.855M21.61 2v14.727m0 0h-2.962M5.409 3.473v12.254a1 1 0 0 0 1 1h2.436M5.41 3.473H3.464a1 1 0 0 0-1 1v11.273c0 .542-.44.981-.982.981v0a.982.982 0 0 0-.982.982v2.927a1 1 0 0 0 1 1h.473M5.409 3.473H11.3c.49 0 .982 0 1.473.49M8.845 16.728v-5.4m0 5.4h9.803m-11.766 4.91h5.89m4.91 0h.02c.537 0 .979-.425.99-.962a66.45 66.45 0 0 0-.044-3.948m-2.439-10.8c1.639 1.639 2.264 6.537 2.439 10.8m0 0-4.893-4.909m0 0-1.473 1.473m1.473-1.473 1.472-1.473" stroke="#252525" stroke-linecap="round"/></svg><svg viewBox="0 0 28 28" fill="none" id="categories_group"><path d="M13.4 9c0 3.577-2.683 6.4-5.9 6.4-3.217 0-5.9-2.823-5.9-6.4 0-3.577 2.683-6.4 5.9-6.4 3.217 0 5.9 2.823 5.9 6.4Z" stroke="#252525" stroke-width="1.2"/><circle cx="22.5" cy="10.5" r="4.9" stroke="#252525" stroke-width="1.2"/><circle cx="12.5" cy="21.5" r="3.9" stroke="#252525" stroke-width="1.2"/></svg><svg viewBox="0 0 29 28" fill="none" id="categories_individual"><circle cx="14.286" cy="11" r="6.4" stroke="#252525" stroke-width="1.2"/><path fill="#252525" d="M14.286 17h1.2v9h-1.2z"/></svg><svg viewBox="0 0 28 28" fill="none" id="categories_specialized-machinery"><path d="M.5 12.313c3.929-3.438 14.732-2.947 12.768 7.857h7.366" stroke="#252525" stroke-linecap="round"/><path d="M.5 2.491h2.21m2.21 0H2.71m0 0v8.348m6.138-8.348h1.719m1.719 0h-1.719m0 0 3.192 9.33h-2.947 6.384m0 0V9.875a1 1 0 0 1 1-1h.72m-1.72 2.946c0 1.474.983 1.965 1.965 1.965 1.473 0 1.473-.982 1.473-1.965m-1.719-2.946h.719a1 1 0 0 1 1 1v1.946m-1.719-2.946v-4.91c0-.237-.147-1.474-1.719-1.474m3.438 9.33h2.437a1 1 0 0 1 1 1v3.911" stroke="#252525" stroke-linecap="round"/><path d="M27.5 20.66a3.429 3.429 0 1 1-6.857 0 3.429 3.429 0 0 1 6.857 0ZM10.804 19.188a4.902 4.902 0 1 1-9.804 0 4.902 4.902 0 0 1 9.804 0Z" stroke="#252525"/><circle cx="5.902" cy="19.188" r="1.955" stroke="#252525"/><circle cx="24.072" cy="20.661" fill="#252525" r=".982"/><circle cx="6.884" cy="2.491" fill="#252525" r=".491"/></svg><svg viewBox="0 0 28 28" fill="none" id="categories_truck"><circle cx="5" cy="21" r="1.5" stroke="#252525"/><circle cx="8" cy="21" r="1.5" stroke="#252525"/><circle cx="22" cy="21" r="1.5" stroke="#252525"/><path d="M3.5 21.5h-2a1 1 0 0 1-1-1v-4M5 5H1.5a1 1 0 0 0-1 1v10.5M9 5h4.25m4.25 0h-4.25m0 0v11M.5 16.5H17m-7.5 5H17m3.5 0H17m0 0v-12a1 1 0 0 1 1-1h2.5m3 13h3a1 1 0 0 0 1-1V15m-7-6.5h4a3 3 0 0 1 3 3V15m-7-6.5V14a1 1 0 0 0 1 1H24m3.5 0H24m0 0v-2M4 8v5.5M7 8v5.5M10 8v5.5M6.5 5h1" stroke="#252525" stroke-linecap="round"/></svg><svg viewBox="0 0 32 32" fill="none" id="modal_x-rounded"><path d="M8.942 24.942a1.333 1.333 0 1 1-1.885-1.886L14.114 16 7.057 8.942a1.333 1.333 0 0 1 1.885-1.885L16 14.114l7.057-7.057a1.333 1.333 0 1 1 1.886 1.885L17.884 16l7.057 7.057a1.333 1.333 0 0 1-1.885 1.886L16 17.885l-7.058 7.057Z" fill="#fff"/></svg><svg viewBox="0 0 25 25" fill="none" id="modal_x"><path d="M2 23 23 2M2 2l21 21" stroke="#A8A8A8" stroke-width="2" stroke-linecap="square"/></svg><svg viewBox="0 0 48 48" id="socials_hexagon"><path d="M35.711 3.715 47.423 24 35.71 44.285H12.29L.577 24 12.29 3.715H35.71Z"/></svg><svg viewBox="0 0 18 16" id="socials_telegram"><path d="M16.785.1.84 6.29C-.248 6.73-.24 7.343.64 7.616L4.735 8.9l9.472-6.017c.448-.274.857-.126.52.174L7.053 10.03H7.05l.002.001-.283 4.249c.414 0 .597-.191.829-.417l1.988-1.946 4.136 3.076c.762.422 1.31.205 1.5-.711l2.715-12.884C18.216.277 17.513-.232 16.785.1Z"/></svg><svg viewBox="0 0 18 11" id="socials_vk"><path d="M10.9 4.988c-.33-.123-.33-.59-.35-.917-.082-1.161.33-2.934-.165-3.688-.35-.448-2.036-.407-3.065-.346-.288.041-.637.102-.884.225-.247.122-.494.326-.494.509 0 .264.618.224.843.57.247.367.247 1.161.247 1.813 0 .754-.124 1.753-.432 1.793-.473.02-.74-.448-.987-.794A13.564 13.564 0 0 1 4.255 1.83C4.07 1.402 3.967.933 3.699.75 3.288.464 2.547.444 1.827.464 1.17.484.222.403.037.79c-.144.428.165.836.33 1.182.843 1.814 1.748 3.403 2.859 4.91C4.255 8.289 5.221 9.41 7.114 10c.535.163 2.88.632 3.353 0 .165-.245.124-.795.206-1.202.082-.408.185-.815.576-.836.33-.02.514.265.72.47.227.223.412.407.576.61.391.388.803.917 1.296 1.122.68.285 1.728.204 2.716.163.802-.02 1.378-.184 1.44-.652.042-.368-.37-.897-.617-1.203-.618-.753-.905-.978-1.605-1.67-.309-.307-.7-.633-.7-1-.02-.223.165-.427.33-.651.72-1.06 1.44-1.813 2.098-2.914.185-.326.617-1.08.453-1.447-.185-.407-1.214-.285-1.852-.285-.823 0-1.893-.062-2.099.101-.39.265-.555.694-.74 1.101-.412.938-.967 1.895-1.543 2.608-.206.245-.597.754-.823.672Z"/></svg><svg viewBox="0 0 18 13" id="socials_youtube"><path fill-rule="evenodd" clip-rule="evenodd" d="M7.19 8.627v-5.05c1.793.844 3.181 1.659 4.824 2.537-1.355.752-3.031 1.594-4.824 2.513Zm9.992-7.562c-.31-.408-.836-.725-1.398-.83-1.65-.313-11.94-.314-13.589 0C1.745.32 1.345.524 1 .84-.45 2.187.004 9.407.354 10.576c.147.506.337.871.576 1.111.309.317.73.535 1.216.633 1.358.28 8.355.438 13.61.042.484-.084.912-.31 1.25-.64 1.341-1.34 1.25-8.966.176-10.657Z"/></svg></svg>