<svg xmlns="http://www.w3.org/2000/svg"><style>:root svg:not(:target){display:none}</style><svg viewBox="0 0 98 20" id="logo" style="fill:currentColor" xmlns="http://www.w3.org/2000/svg"><path d="m15.805 13.297-.196 6.484h-3.218V16h-1.125v-2.703h4.539ZM.39 16V0h3.25v13.281h6.656V0h3.289v16H.39Zm22.873.234c-1.235 0-2.297-.25-3.188-.75a5.137 5.137 0 0 1-2.047-2.14c-.479-.927-.718-2.024-.718-3.29 0-1.234.24-2.317.718-3.25a5.313 5.313 0 0 1 2.024-2.179c.875-.52 1.9-.781 3.078-.781a6.26 6.26 0 0 1 2.21.383c.688.25 1.287.627 1.798 1.132.515.506.916 1.141 1.203 1.907.286.76.43 1.65.43 2.671v.915H18.639V8.789h7c0-.48-.104-.904-.313-1.273a2.239 2.239 0 0 0-.867-.868c-.365-.213-.79-.32-1.273-.32a2.56 2.56 0 0 0-1.344.352c-.386.229-.688.539-.906.93-.22.385-.331.814-.336 1.288v1.961c0 .594.109 1.107.328 1.54.224.432.539.765.945 1 .406.234.888.351 1.445.351.37 0 .709-.052 1.016-.156.307-.104.57-.26.789-.469.219-.208.386-.463.5-.766l3.078.204a4.203 4.203 0 0 1-.96 1.937c-.48.547-1.1.974-1.86 1.281-.755.302-1.628.453-2.617.453Zm7.68-.234V4h10.491v12h-3.18V6.617h-4.171V16h-3.14Zm15.234-8.313h3.586c1.588 0 2.828.38 3.718 1.141.891.755 1.336 1.766 1.336 3.031 0 .823-.2 1.547-.601 2.172-.401.62-.98 1.104-1.735 1.453-.755.344-1.661.516-2.718.516h-5.672V4h3.18v9.383h2.492c.557 0 1.015-.14 1.375-.422.359-.281.541-.64.546-1.078a1.414 1.414 0 0 0-.546-1.133c-.36-.297-.818-.445-1.375-.445h-3.586V7.688Zm18.324.422v2.641h-7.297V8.11h7.297ZM67.4 16V0h3.383v6.602h6.867V0h3.375v16H77.65V9.39h-6.867V16H67.4Zm16.414 0V0h3.383v6.602h6.867V0h3.376v16h-3.376V9.39h-6.867V16h-3.383Z"/></svg></svg>